<svg width="24" height="24" viewBox="0 0 16 17"  xmlns="http://www.w3.org/2000/svg">
<g clip-path="url(#clip0_5006_3505)">
<path d="M8.49994 0C4.0817 0 0.499939 3.58177 0.499939 8C0.499939 12.4182 4.0817 16 8.49994 16C12.9182 16 16.4999 12.4182 16.4999 8C16.4999 3.58177 12.9182 0 8.49994 0ZM13.0001 3.7182L11.2089 12.1303C11.1753 12.2954 10.9871 12.3764 10.8442 12.2868L8.08965 10.4599L6.64076 11.8082C6.51178 11.9186 6.31207 11.8649 6.25594 11.7046L5.31256 8.72923L2.7793 7.6903C2.58495 7.60172 2.58771 7.29218 2.78693 7.2148L12.676 3.445C12.8541 3.37589 13.0381 3.53099 13.0001 3.7182Z" fill="currentColor"/>
<path d="M6.5603 10.8223L6.72123 9.29275L11.1888 4.92578L5.79553 8.46764L6.5603 10.8223Z" fill="currentColor"/>
</g>
<defs>
<clipPath id="clip0_5006_3505">
<rect width="24" height="24" fill="white" />
</clipPath>
</defs>
</svg>
