<svg id="raidalert" data-name="raidalert" xmlns="http://www.w3.org/2000/svg" viewBox="0 0 424.48168 424.48168">
  <defs>
    <style>
      .cls-1ra {
        fill: #e3f2fd;
        stroke: #1e88e5;
        stroke-width: 10px;
      }

      .cls-1ra, .cls-2ra {
        stroke-miterlimit: 10;
      }

      .cls-2ra {
        fill: none;
        stroke: #111936;
        stroke-width: 6px;
      }

      .cls-3ra {
        fill: #111936;
      }

      .cls-4ra {
        fill: #fff;
      }

      .cls-5ra {
        fill: #3ab1f4;
        fill-rule: evenodd;
      }
    </style>
  </defs>
  <title>Raid Alert</title>
  <g>
    <circle class="cls-1ra" cx="212.24084" cy="212.24084" r="207.24084"/>
    <line class="cls-2ra" x1="379.17462" y1="318.88662" x2="379.16462" y2="318.89662"/>
    <line class="cls-2ra" x1="379.17462" y1="318.88662" x2="379.16462" y2="318.89662"/>
    <g>
      <path class="cls-3ra" d="M97.90984,136.19746H330.57053a31.69328,31.69328,0,0,1,31.69328,31.69328V235.4451A107.6815,107.6815,0,0,1,254.5823,343.1266H173.89806A107.6815,107.6815,0,0,1,66.21656,235.4451V167.89074a31.69328,31.69328,0,0,1,31.69328-31.69328Z"/>
      <path class="cls-3ra" d="M63.2074,209.89661H81.42588a0,0,0,0,1,0,0v70.91163a0,0,0,0,1,0,0H63.2076a21.46676,21.46676,0,0,1-21.46676-21.46676V231.36317A21.46656,21.46656,0,0,1,63.2074,209.89661Z"/>
      <path class="cls-3ra" d="M1243.32421,963.8764h15.53915a0,0,0,0,1,0,0V1034.788a0,0,0,0,1,0,0H1243.324a21.46656,21.46656,0,0,1-21.46656-21.46656V985.34316A21.46676,21.46676,0,0,1,1243.32421,963.8764Z" transform="translate(1604.5983 1244.68464) rotate(-180)"/>
      <rect class="cls-4ra" x="190.62017" y="291.33868" width="47.24002" height="12.3001" rx="6.15004"/>
      <rect class="cls-3ra" x="206.48392" y="111.15937" width="15.51252" height="48.18898"/>
      <path class="cls-5ra" d="M1095.00852,797.0303a36.81789,36.81789,0,1,0,31.91175,36.49183,36.69881,36.69881,0,0,0-10.65762-25.90666l-3.6067,6.96136a29.453,29.453,0,1,1-22.55127-10.50717l.10824.0002Z" transform="translate(-876.12252 -753.97979)"/>
      <path class="cls-3ra" d="M1105.066,792.61061a5.23029,5.23029,0,0,1,6.89826-1.60442l1.4147.80105a5.23029,5.23029,0,0,1,2.06584,6.95928l-15.62527,30.12716a5.23023,5.23023,0,0,1-7.25807,2.12156l-4.93746-2.85076a5.23013,5.23013,0,0,1-1.706-7.47626Z" transform="translate(-876.12252 -753.97979)"/>
      <g>
        <circle class="cls-4ra" cx="152.91615" cy="239.66203" r="28.01733"/>
        <circle class="cls-4ra" cx="275.56421" cy="239.66203" r="28.01733"/>
      </g>
    </g>
  </g>
</svg>
