<svg id="grabber" data-name="grabber" xmlns="http://www.w3.org/2000/svg" viewBox="0 0 424.48168 424.48168">
  <defs>
    <style>
      .cls-1gr {
        fill: #e3f2fd;
        stroke: #1e88e5;
        stroke-width: 10px;
      }

      .cls-1gr, .cls-5gr {
        stroke-miterlimit: 10;
      }

      .cls-2gr {
        fill: #111936;
      }

      .cls-3gr {
        fill: #fff;
      }

      .cls-4gr {
        fill: #3ab1f4;
        fill-rule: evenodd;
      }

      .cls-5gr {
        fill: none;
        stroke: #111936;
        stroke-width: 9px;
      }
    </style>
  </defs>
  <title>Grabber</title>
  <g>
    <circle class="cls-1gr" cx="212.24084" cy="212.24084" r="207.24084"/>
    <g>
      <path class="cls-2gr" d="M1163.28394,518.5915a503.964,503.964,0,0,1-80.94929,7.06395c-32.67756.09952-60.0579-3.16767-83.48706-6.01034-5.89468-.7152-13.83382-2.90954-20.38591-8.391a22.94609,22.94609,0,0,1-8.271-17.71412v-69.4281c0-13.83559,13.10216-21.719,28.23892-25.05154,24.09367-5.30445,51.9679-5.34152,83.197-5.30418,30.59361.03658,58.47872-.31,82.07674,2.77118,9.06392,1.18348,15.72509,3.8258,21.19384,8.89721,5.11025,4.53344,6.62567,11.76954,6.62567,18.68733V493.54C1191.5229,507.37555,1179.07,515.99332,1163.28394,518.5915Z" transform="translate(-868.61596 -232.65111)"/>
      <rect class="cls-3gr" x="130.41103" y="195.57124" width="66.26807" height="35.13193" rx="17.56595"/>
      <rect class="cls-3gr" x="232.33895" y="195.57124" width="66.26807" height="35.13193" rx="17.56595"/>
      <rect class="cls-2gr" x="208.55928" y="108.7529" width="7.36312" height="26.9981"/>
      <path class="cls-4gr" d="M1086.10038,272.69251a36.81789,36.81789,0,1,0,31.91176,36.49184,36.69883,36.69883,0,0,0-10.65763-25.90667l-3.6067,6.96137a29.453,29.453,0,1,1-22.55127-10.50717l.10824.00019Z" transform="translate(-868.61596 -232.65111)"/>
      <path class="cls-2gr" d="M1096.15791,268.27283a5.23029,5.23029,0,0,1,6.89826-1.60443l1.4147.80106a5.23029,5.23029,0,0,1,2.06584,6.95928l-15.62527,30.12715a5.23022,5.23022,0,0,1-7.25807,2.12156l-4.93746-2.85075a5.23014,5.23014,0,0,1-1.706-7.47627Z" transform="translate(-868.61596 -232.65111)"/>
      <path class="cls-5gr" d="M1196.5127,558.45737a494.08335,494.08335,0,0,1-113.89639,13.31555c-46.9818.16242-87.31023-2.97-117.54921-9.35124-11.79771-2.48963-19.25339-6.64335-24.71343-13.21047-5.88976-7.084-11.15041-16.811-11.15041-26.75144V418.54014c0-19.88091,16.456-32.34016,35.9976-35.99759a624.1121,624.1121,0,0,1,119.3824-10.73758c43.04619.25553,80.89793,3.29344,112.18845,7.91963,16.07071,2.376,21.85872,6.846,27.41618,13.63755,5.83424,7.1298,8.32246,15.23754,8.32246,25.178V522.45977C1232.51035,542.34068,1216.62388,553.58256,1196.5127,558.45737Z" transform="translate(-868.61596 -232.65111)"/>
    </g>
  </g>
</svg>
