<svg id="sales" data-name="sales" xmlns="http://www.w3.org/2000/svg" viewBox="0 0 424.48168 424.48168">
  <defs>
    <style>
      .cls-1sl {
        fill: #e3f2fd;
        stroke: #1e88e5;
        stroke-width: 10px;
      }

      .cls-1sl, .cls-2sl {
        stroke-miterlimit: 10;
      }

      .cls-2sl {
        fill: none;
        stroke: #111936;
        stroke-width: 6px;
      }

      .cls-3sl {
        fill: #111936;
      }

      .cls-4sl {
        fill: #fff;
      }

      .cls-5sl {
        fill: #3ab1f4;
        fill-rule: evenodd;
      }
    </style>
  </defs>
  <title>Sales</title>
  <g>
    <circle class="cls-1sl" cx="212.24084" cy="212.24084" r="207.24084"/>
    <line class="cls-2sl" x1="380.17462" y1="301.88662" x2="380.16462" y2="301.89662"/>
    <line class="cls-2sl" x1="380.17462" y1="301.88662" x2="380.16462" y2="301.89662"/>
    <g>
      <path class="cls-3sl" d="M173.54564,105.93409h80.68424a107.6815,107.6815,0,0,1,107.6815,107.6815V248.848a55.369,55.369,0,0,1-55.369,55.369H121.2331a55.369,55.369,0,0,1-55.369-55.369V213.61559a107.6815,107.6815,0,0,1,107.6815-107.6815Z"/>
      <path class="cls-2sl" d="M55.2074,182.89661H73.42588a0,0,0,0,1,0,0v70.91163a0,0,0,0,1,0,0H55.2076a21.46676,21.46676,0,0,1-21.46676-21.46676V204.36317A21.46656,21.46656,0,0,1,55.2074,182.89661Z"/>
      <path class="cls-2sl" d="M551.19515,943.8764H566.7343a0,0,0,0,1,0,0V1014.788a0,0,0,0,1,0,0H551.195a21.46656,21.46656,0,0,1-21.46656-21.46656V965.34316A21.46676,21.46676,0,0,1,551.19515,943.8764Z" transform="translate(924.46923 1197.68464) rotate(-180)"/>
      <path class="cls-2sl" d="M219.97616,945.05171c3.04925-56.48093,50.03742-98.26581,107.33894-101.62277,29.30816-1.71578,86.06883-.76464,115.35834,0,57.087,1.492,103.8048,44.573,107.30163,100.71825" transform="translate(-171.99346 -760.97979)"/>
      <path class="cls-2sl" d="M219.0903,1013.26335a107.49341,107.49341,0,0,0,106.01479,100.653" transform="translate(-171.99346 -760.97979)"/>
      <path class="cls-2sl" d="M238.542,1014.79264c6.52743,44.61087,46.05568,69.60106,87.93381,75.45709" transform="translate(-171.99346 -760.97979)"/>
      <rect class="cls-2sl" x="151.77259" y="321.77242" width="73.55765" height="41.2059" rx="17.78991"/>
      <rect class="cls-4sl" x="190.62083" y="264.33868" width="47.24002" height="12.3001" rx="6.15004"/>
      <path class="cls-5sl" d="M389.87945,878.0303a36.81789,36.81789,0,1,0,31.91176,36.49183,36.69881,36.69881,0,0,0-10.65762-25.90666l-3.6067,6.96136a29.453,29.453,0,1,1-22.55127-10.50717l.10824.0002Z" transform="translate(-171.99346 -760.97979)"/>
      <path class="cls-4sl" d="M399.937,873.61061a5.23028,5.23028,0,0,1,6.89826-1.60442l1.41469.80105a5.23028,5.23028,0,0,1,2.06585,6.95928l-15.62527,30.12716a5.23024,5.23024,0,0,1-7.25808,2.12156l-4.93746-2.85076a5.23013,5.23013,0,0,1-1.706-7.47626Z" transform="translate(-171.99346 -760.97979)"/>
      <g>
        <rect class="cls-4sl" x="128.02505" y="172.21777" width="41.44373" height="76.04614" rx="20.72184"/>
        <rect class="cls-4sl" x="258.30674" y="172.21777" width="41.44373" height="76.04614" rx="20.72184"/>
      </g>
    </g>
  </g>
</svg>
