<svg width="326" height="95" viewBox="0 0 326 95" fill="none" xmlns="http://www.w3.org/2000/svg">
<path d="M158.996 35H156.938V26.708H152.953V35H150.902V25.0469H158.996V35ZM160.363 31.2334C160.363 30.4997 160.505 29.8457 160.787 29.2715C161.07 28.6973 161.475 28.2529 162.004 27.9385C162.537 27.624 163.155 27.4668 163.856 27.4668C164.854 27.4668 165.668 27.7721 166.297 28.3828C166.93 28.9935 167.284 29.8229 167.356 30.8711L167.37 31.377C167.37 32.5117 167.053 33.4232 166.42 34.1113C165.786 34.7949 164.937 35.1367 163.87 35.1367C162.804 35.1367 161.951 34.7949 161.313 34.1113C160.68 33.4277 160.363 32.498 160.363 31.3223V31.2334ZM162.339 31.377C162.339 32.0788 162.471 32.6165 162.735 32.9902C163 33.3594 163.378 33.5439 163.87 33.5439C164.349 33.5439 164.722 33.3617 164.991 32.9971C165.26 32.6279 165.395 32.04 165.395 31.2334C165.395 30.5452 165.26 30.012 164.991 29.6338C164.722 29.2555 164.344 29.0664 163.856 29.0664C163.373 29.0664 163 29.2555 162.735 29.6338C162.471 30.0075 162.339 30.5885 162.339 31.377ZM174.521 29.1895H172.148V35H170.166V29.1895H167.835V27.6035H174.521V29.1895ZM181.685 27.6035V35H179.716V32.4434H178.465L177.043 35H175.04L176.653 32.1084C176.211 31.9033 175.869 31.6253 175.628 31.2744C175.391 30.9235 175.272 30.5247 175.272 30.0781C175.272 29.3626 175.548 28.777 176.1 28.3213C176.656 27.861 177.398 27.6217 178.328 27.6035H181.685ZM178.362 31.0625H179.716V29.1895H178.431C178.08 29.1895 177.795 29.2829 177.576 29.4697C177.357 29.652 177.248 29.8753 177.248 30.1396C177.248 30.404 177.353 30.6227 177.562 30.7959C177.772 30.9691 178.039 31.0579 178.362 31.0625ZM189.765 35H187.782V32.1562H185.328V35H183.353V27.6035H185.328V30.5703H187.782V27.6035H189.765V35ZM195.753 27.6035H197.729V35H195.753V30.4336L193.278 35H191.296V27.6035H193.278V32.1631L195.753 27.6035ZM205.378 29.1895H203.006V35H201.023V29.1895H198.692V27.6035H205.378V29.1895ZM209.343 35.1367C208.258 35.1367 207.374 34.804 206.69 34.1387C206.011 33.4733 205.672 32.5869 205.672 31.4795V31.2881C205.672 30.5452 205.815 29.8822 206.103 29.2988C206.39 28.7109 206.795 28.2598 207.319 27.9453C207.848 27.6263 208.45 27.4668 209.124 27.4668C210.136 27.4668 210.931 27.7858 211.51 28.4238C212.093 29.0618 212.385 29.9665 212.385 31.1377V31.9443H207.675C207.739 32.4274 207.93 32.8148 208.249 33.1064C208.573 33.3981 208.98 33.5439 209.473 33.5439C210.234 33.5439 210.828 33.2682 211.257 32.7168L212.228 33.8037C211.931 34.223 211.53 34.5511 211.024 34.7881C210.519 35.0205 209.958 35.1367 209.343 35.1367ZM209.117 29.0664C208.725 29.0664 208.406 29.1986 208.16 29.4629C207.919 29.7272 207.764 30.1055 207.695 30.5977H210.443V30.4404C210.434 30.0029 210.316 29.6657 210.088 29.4287C209.86 29.1872 209.536 29.0664 209.117 29.0664ZM220.882 29.7842C220.882 29.5244 220.795 29.3239 220.622 29.1826C220.453 29.0368 220.212 28.9639 219.897 28.9639C219.574 28.9639 219.31 29.0322 219.104 29.1689C218.904 29.3011 218.804 29.4902 218.804 29.7363H216.828C216.828 29.0664 217.106 28.5218 217.662 28.1025C218.218 27.6833 218.929 27.4736 219.795 27.4736C220.747 27.4736 221.495 27.6605 222.037 28.0342C222.584 28.4079 222.857 28.9388 222.857 29.627C222.857 29.9551 222.757 30.2581 222.557 30.5361C222.361 30.8096 222.083 31.0283 221.723 31.1924C222.566 31.4886 222.987 32.0605 222.987 32.9082C222.987 33.5872 222.696 34.1296 222.112 34.5352C221.534 34.9362 220.761 35.1367 219.795 35.1367C218.897 35.1367 218.159 34.9271 217.58 34.5078C217.001 34.0885 216.712 33.5234 216.712 32.8125H218.688C218.688 33.0632 218.799 33.266 219.022 33.4209C219.246 33.5758 219.537 33.6533 219.897 33.6533C220.248 33.6533 220.522 33.5713 220.718 33.4072C220.914 33.2432 221.012 33.029 221.012 32.7646C221.012 32.4411 220.918 32.2109 220.731 32.0742C220.545 31.9329 220.264 31.8623 219.891 31.8623H218.817V30.5771H219.959C220.574 30.5589 220.882 30.2946 220.882 29.7842ZM228.477 35C228.385 34.8223 228.319 34.6012 228.278 34.3369C227.8 34.8701 227.178 35.1367 226.412 35.1367C225.688 35.1367 225.086 34.9271 224.607 34.5078C224.133 34.0885 223.896 33.5599 223.896 32.9219C223.896 32.138 224.186 31.5365 224.765 31.1172C225.348 30.6979 226.189 30.486 227.287 30.4814H228.196V30.0576C228.196 29.7158 228.107 29.4424 227.93 29.2373C227.757 29.0322 227.481 28.9297 227.103 28.9297C226.77 28.9297 226.508 29.0094 226.316 29.1689C226.13 29.3285 226.036 29.5472 226.036 29.8252H224.061C224.061 29.3968 224.193 29.0003 224.457 28.6357C224.721 28.2712 225.095 27.9863 225.578 27.7812C226.061 27.5716 226.604 27.4668 227.205 27.4668C228.117 27.4668 228.839 27.6969 229.372 28.1572C229.91 28.613 230.179 29.2555 230.179 30.085V33.291C230.183 33.9928 230.281 34.5238 230.473 34.8838V35H228.477ZM226.843 33.626C227.134 33.626 227.403 33.5622 227.649 33.4346C227.896 33.3024 228.078 33.127 228.196 32.9082V31.6367H227.458C226.469 31.6367 225.943 31.9785 225.879 32.6621L225.872 32.7783C225.872 33.0244 225.959 33.2272 226.132 33.3867C226.305 33.5462 226.542 33.626 226.843 33.626ZM241.615 35H239.633V29.2031H237.158V35H235.183V27.6035H241.615V35ZM242.818 31.2334C242.818 30.4997 242.96 29.8457 243.242 29.2715C243.525 28.6973 243.93 28.2529 244.459 27.9385C244.992 27.624 245.61 27.4668 246.312 27.4668C247.31 27.4668 248.123 27.7721 248.752 28.3828C249.385 28.9935 249.739 29.8229 249.812 30.8711L249.825 31.377C249.825 32.5117 249.508 33.4232 248.875 34.1113C248.242 34.7949 247.392 35.1367 246.325 35.1367C245.259 35.1367 244.407 34.7949 243.769 34.1113C243.135 33.4277 242.818 32.498 242.818 31.3223V31.2334ZM244.794 31.377C244.794 32.0788 244.926 32.6165 245.19 32.9902C245.455 33.3594 245.833 33.5439 246.325 33.5439C246.804 33.5439 247.177 33.3617 247.446 32.9971C247.715 32.6279 247.85 32.04 247.85 31.2334C247.85 30.5452 247.715 30.012 247.446 29.6338C247.177 29.2555 246.799 29.0664 246.312 29.0664C245.828 29.0664 245.455 29.2555 245.19 29.6338C244.926 30.0075 244.794 30.5885 244.794 31.377ZM257.365 27.6035V35H255.39V29.2031H253.646L253.523 31.4863C253.446 32.7031 253.207 33.5895 252.806 34.1455C252.405 34.7015 251.808 34.9863 251.015 35H250.345L250.324 33.3936L250.57 33.373C250.926 33.3457 251.186 33.1361 251.35 32.7441C251.514 32.3522 251.616 31.6846 251.657 30.7412L251.794 27.6035H257.365ZM262.772 29.7842C262.772 29.5244 262.686 29.3239 262.513 29.1826C262.344 29.0368 262.103 28.9639 261.788 28.9639C261.465 28.9639 261.2 29.0322 260.995 29.1689C260.795 29.3011 260.694 29.4902 260.694 29.7363H258.719C258.719 29.0664 258.997 28.5218 259.553 28.1025C260.109 27.6833 260.82 27.4736 261.686 27.4736C262.638 27.4736 263.385 27.6605 263.928 28.0342C264.475 28.4079 264.748 28.9388 264.748 29.627C264.748 29.9551 264.648 30.2581 264.447 30.5361C264.251 30.8096 263.973 31.0283 263.613 31.1924C264.456 31.4886 264.878 32.0605 264.878 32.9082C264.878 33.5872 264.586 34.1296 264.003 34.5352C263.424 34.9362 262.652 35.1367 261.686 35.1367C260.788 35.1367 260.049 34.9271 259.471 34.5078C258.892 34.0885 258.603 33.5234 258.603 32.8125H260.578C260.578 33.0632 260.69 33.266 260.913 33.4209C261.136 33.5758 261.428 33.6533 261.788 33.6533C262.139 33.6533 262.412 33.5713 262.608 33.4072C262.804 33.2432 262.902 33.029 262.902 32.7646C262.902 32.4411 262.809 32.2109 262.622 32.0742C262.435 31.9329 262.155 31.8623 261.781 31.8623H260.708V30.5771H261.85C262.465 30.5589 262.772 30.2946 262.772 29.7842ZM268.843 32.2041L270.21 27.6035H272.329L269.355 36.1484L269.191 36.5381C268.749 37.5042 268.02 37.9873 267.004 37.9873C266.717 37.9873 266.425 37.944 266.129 37.8574V36.3604L266.43 36.3672C266.803 36.3672 267.081 36.3102 267.264 36.1963C267.451 36.0824 267.596 35.8932 267.701 35.6289L267.934 35.0205L265.343 27.6035H267.469L268.843 32.2041ZM279.521 35H277.538V32.1562H275.084V35H273.108V27.6035H275.084V30.5703H277.538V27.6035H279.521V35ZM280.744 31.2334C280.744 30.4997 280.885 29.8457 281.168 29.2715C281.451 28.6973 281.856 28.2529 282.385 27.9385C282.918 27.624 283.535 27.4668 284.237 27.4668C285.235 27.4668 286.049 27.7721 286.678 28.3828C287.311 28.9935 287.664 29.8229 287.737 30.8711L287.751 31.377C287.751 32.5117 287.434 33.4232 286.801 34.1113C286.167 34.7949 285.317 35.1367 284.251 35.1367C283.185 35.1367 282.332 34.7949 281.694 34.1113C281.061 33.4277 280.744 32.498 280.744 31.3223V31.2334ZM282.72 31.377C282.72 32.0788 282.852 32.6165 283.116 32.9902C283.381 33.3594 283.759 33.5439 284.251 33.5439C284.729 33.5439 285.103 33.3617 285.372 32.9971C285.641 32.6279 285.775 32.04 285.775 31.2334C285.775 30.5452 285.641 30.012 285.372 29.6338C285.103 29.2555 284.725 29.0664 284.237 29.0664C283.754 29.0664 283.381 29.2555 283.116 29.6338C282.852 30.0075 282.72 30.5885 282.72 31.377ZM291.866 32.2725H291.073V35H289.098V27.6035H291.073V30.3857H291.777L293.391 27.6035H295.886L293.466 31.124L296.111 35H293.479L291.866 32.2725ZM297.369 37.4951L296.337 36.9551L296.583 36.5107C296.888 35.9548 297.046 35.401 297.055 34.8496V33.3184H298.723L298.716 34.6855C298.711 35.1914 298.584 35.7018 298.333 36.2168C298.082 36.7318 297.761 37.1579 297.369 37.4951ZM156.993 51H155.018V48.6758C154.648 48.7441 154.304 48.7783 153.985 48.7783C152.869 48.7783 152.028 48.5413 151.463 48.0674C150.898 47.5934 150.611 46.9007 150.602 45.9893V43.6035H152.577V45.9893C152.582 46.4176 152.687 46.7253 152.892 46.9121C153.097 47.0944 153.461 47.1855 153.985 47.1855C154.313 47.1855 154.658 47.1468 155.018 47.0693V43.6035H156.993V51ZM164.649 45.1895H162.277V51H160.295V45.1895H157.964V43.6035H164.649V45.1895ZM165.135 47.2334C165.135 46.4997 165.276 45.8457 165.559 45.2715C165.841 44.6973 166.247 44.2529 166.775 43.9385C167.309 43.624 167.926 43.4668 168.628 43.4668C169.626 43.4668 170.439 43.7721 171.068 44.3828C171.702 44.9935 172.055 45.8229 172.128 46.8711L172.142 47.377C172.142 48.5117 171.825 49.4232 171.191 50.1113C170.558 50.7949 169.708 51.1367 168.642 51.1367C167.575 51.1367 166.723 50.7949 166.085 50.1113C165.451 49.4277 165.135 48.498 165.135 47.3223V47.2334ZM167.11 47.377C167.11 48.0788 167.243 48.6165 167.507 48.9902C167.771 49.3594 168.149 49.5439 168.642 49.5439C169.12 49.5439 169.494 49.3617 169.763 48.9971C170.032 48.6279 170.166 48.04 170.166 47.2334C170.166 46.5452 170.032 46.012 169.763 45.6338C169.494 45.2555 169.116 45.0664 168.628 45.0664C168.145 45.0664 167.771 45.2555 167.507 45.6338C167.243 46.0075 167.11 46.5885 167.11 47.377ZM177.029 44.0137C177.977 44.0137 178.734 44.3281 179.299 44.957C179.864 45.5859 180.146 46.4404 180.146 47.5205V47.6162C180.146 48.6826 179.832 49.5371 179.203 50.1797C178.574 50.8223 177.729 51.1436 176.667 51.1436C175.601 51.1436 174.751 50.7972 174.117 50.1045C173.488 49.4072 173.174 48.4616 173.174 47.2676V46.9395C173.183 45.276 173.463 43.9749 174.015 43.0361C174.571 42.0928 175.405 41.498 176.517 41.252C177.1 41.1243 177.476 40.999 177.645 40.876C177.813 40.7484 177.897 40.5729 177.897 40.3496H179.497C179.497 41.0651 179.303 41.6029 178.916 41.9629C178.533 42.3229 177.85 42.6009 176.865 42.7969C176.282 42.9154 175.822 43.1455 175.484 43.4873C175.147 43.8291 174.919 44.3099 174.801 44.9297C175.43 44.319 176.173 44.0137 177.029 44.0137ZM176.653 45.6133C176.184 45.6133 175.815 45.7705 175.546 46.085C175.282 46.3994 175.149 46.9098 175.149 47.6162C175.149 48.2451 175.279 48.7259 175.539 49.0586C175.799 49.3867 176.175 49.5508 176.667 49.5508C177.146 49.5508 177.515 49.389 177.774 49.0654C178.034 48.7419 178.166 48.2656 178.171 47.6367V47.4727C178.171 46.8665 178.036 46.4062 177.768 46.0918C177.503 45.7728 177.132 45.6133 176.653 45.6133ZM183.441 45.7705H184.856C185.494 45.7705 186.055 45.8776 186.538 46.0918C187.021 46.306 187.39 46.6136 187.646 47.0146C187.905 47.4111 188.035 47.8737 188.035 48.4023C188.035 49.1816 187.746 49.8105 187.167 50.2891C186.593 50.763 185.809 51 184.815 51H181.459V43.6035H183.441V45.7705ZM191.18 51H189.204V43.6035H191.18V51ZM183.441 47.3564V49.4209H184.843C185.235 49.4209 185.535 49.3298 185.745 49.1475C185.955 48.9652 186.06 48.7168 186.06 48.4023C186.06 48.0833 185.957 47.8304 185.752 47.6436C185.547 47.4521 185.244 47.3564 184.843 47.3564H183.441ZM199.171 48.2041L200.538 43.6035H202.657L199.684 52.1484L199.52 52.5381C199.077 53.5042 198.348 53.9873 197.332 53.9873C197.045 53.9873 196.753 53.944 196.457 53.8574V52.3604L196.758 52.3672C197.132 52.3672 197.41 52.3102 197.592 52.1963C197.779 52.0824 197.924 51.8932 198.029 51.6289L198.262 51.0205L195.671 43.6035H197.797L199.171 48.2041ZM203.566 51V43.6035H206.656C207.663 43.6035 208.436 43.7812 208.974 44.1367C209.511 44.4922 209.78 45.0026 209.78 45.668C209.78 46.0098 209.666 46.3174 209.438 46.5908C209.215 46.8597 208.887 47.0671 208.454 47.2129C208.983 47.3132 209.397 47.5114 209.698 47.8076C210.004 48.0993 210.156 48.4593 210.156 48.8877C210.156 49.5758 209.896 50.0999 209.377 50.46C208.862 50.82 208.112 51 207.128 51H203.566ZM205.542 47.9307V49.4209H207.135C207.832 49.4209 208.181 49.1771 208.181 48.6895C208.181 48.1927 207.848 47.9398 207.183 47.9307H205.542ZM205.542 46.6045H206.766C207.458 46.5954 207.805 46.3721 207.805 45.9346C207.805 45.6657 207.709 45.4743 207.518 45.3604C207.331 45.2464 207.044 45.1895 206.656 45.1895H205.542V46.6045ZM215.823 43.6035H217.799V51H215.823V46.4336L213.349 51H211.366V43.6035H213.349V48.1631L215.823 43.6035ZM219.412 49.4072C219.859 48.9333 220.162 48.4639 220.321 47.999C220.481 47.5342 220.57 46.8757 220.588 46.0234L220.643 43.6035H226.084V49.4072H227.15V53.2217H225.175V51H220.793V53.2217H218.776V49.4072H219.412ZM221.743 49.4072H224.115V45.2373H222.577L222.563 46.126C222.522 47.484 222.249 48.5778 221.743 49.4072ZM231.56 51.1367C230.475 51.1367 229.591 50.804 228.907 50.1387C228.228 49.4733 227.889 48.5869 227.889 47.4795V47.2881C227.889 46.5452 228.032 45.8822 228.319 45.2988C228.606 44.7109 229.012 44.2598 229.536 43.9453C230.065 43.6263 230.666 43.4668 231.341 43.4668C232.353 43.4668 233.148 43.7858 233.727 44.4238C234.31 45.0618 234.602 45.9665 234.602 47.1377V47.9443H229.892C229.955 48.4274 230.147 48.8148 230.466 49.1064C230.789 49.3981 231.197 49.5439 231.689 49.5439C232.451 49.5439 233.045 49.2682 233.474 48.7168L234.444 49.8037C234.148 50.223 233.747 50.5511 233.241 50.7881C232.735 51.0205 232.175 51.1367 231.56 51.1367ZM231.334 45.0664C230.942 45.0664 230.623 45.1986 230.377 45.4629C230.135 45.7272 229.98 46.1055 229.912 46.5977H232.66V46.4404C232.651 46.0029 232.533 45.6657 232.305 45.4287C232.077 45.1872 231.753 45.0664 231.334 45.0664ZM241.786 45.1895H239.414V51H237.432V45.1895H235.101V43.6035H241.786V45.1895ZM244.896 45.7705H246.312C246.95 45.7705 247.51 45.8776 247.993 46.0918C248.476 46.306 248.845 46.6136 249.101 47.0146C249.36 47.4111 249.49 47.8737 249.49 48.4023C249.49 49.1816 249.201 49.8105 248.622 50.2891C248.048 50.763 247.264 51 246.271 51H242.914V43.6035H244.896V45.7705ZM244.896 47.3564V49.4209H246.298C246.69 49.4209 246.991 49.3298 247.2 49.1475C247.41 48.9652 247.515 48.7168 247.515 48.4023C247.515 48.0833 247.412 47.8304 247.207 47.6436C247.002 47.4521 246.699 47.3564 246.298 47.3564H244.896ZM258.548 43.6035H260.523V51H258.548V46.4336L256.073 51H254.091V43.6035H256.073V48.1631L258.548 43.6035ZM265.917 45.7842C265.917 45.5244 265.83 45.3239 265.657 45.1826C265.489 45.0368 265.247 44.9639 264.933 44.9639C264.609 44.9639 264.345 45.0322 264.14 45.1689C263.939 45.3011 263.839 45.4902 263.839 45.7363H261.863C261.863 45.0664 262.141 44.5218 262.697 44.1025C263.253 43.6833 263.964 43.4736 264.83 43.4736C265.783 43.4736 266.53 43.6605 267.072 44.0342C267.619 44.4079 267.893 44.9388 267.893 45.627C267.893 45.9551 267.792 46.2581 267.592 46.5361C267.396 46.8096 267.118 47.0283 266.758 47.1924C267.601 47.4886 268.022 48.0605 268.022 48.9082C268.022 49.5872 267.731 50.1296 267.147 50.5352C266.569 50.9362 265.796 51.1367 264.83 51.1367C263.932 51.1367 263.194 50.9271 262.615 50.5078C262.036 50.0885 261.747 49.5234 261.747 48.8125H263.723C263.723 49.0632 263.834 49.266 264.058 49.4209C264.281 49.5758 264.573 49.6533 264.933 49.6533C265.284 49.6533 265.557 49.5713 265.753 49.4072C265.949 49.2432 266.047 49.029 266.047 48.7646C266.047 48.4411 265.953 48.2109 265.767 48.0742C265.58 47.9329 265.299 47.8623 264.926 47.8623H263.853V46.5771H264.994C265.609 46.5589 265.917 46.2946 265.917 45.7842ZM273.73 48.6689L275.665 43.6035H278.14V51H276.164V46.4609L274.394 51H273.067L271.331 46.5361V51H269.355V43.6035H271.81L273.73 48.6689ZM283.267 51.1367C282.182 51.1367 281.298 50.804 280.614 50.1387C279.935 49.4733 279.596 48.5869 279.596 47.4795V47.2881C279.596 46.5452 279.739 45.8822 280.026 45.2988C280.313 44.7109 280.719 44.2598 281.243 43.9453C281.772 43.6263 282.373 43.4668 283.048 43.4668C284.06 43.4668 284.855 43.7858 285.434 44.4238C286.017 45.0618 286.309 45.9665 286.309 47.1377V47.9443H281.599C281.662 48.4274 281.854 48.8148 282.173 49.1064C282.496 49.3981 282.904 49.5439 283.396 49.5439C284.158 49.5439 284.752 49.2682 285.181 48.7168L286.151 49.8037C285.855 50.223 285.454 50.5511 284.948 50.7881C284.442 51.0205 283.882 51.1367 283.267 51.1367ZM283.041 45.0664C282.649 45.0664 282.33 45.1986 282.084 45.4629C281.842 45.7272 281.688 46.1055 281.619 46.5977H284.367V46.4404C284.358 46.0029 284.24 45.6657 284.012 45.4287C283.784 45.1872 283.46 45.0664 283.041 45.0664ZM293.849 51H291.866V48.1562H289.412V51H287.437V43.6035H289.412V46.5703H291.866V43.6035H293.849V51ZM298.784 51.1367C297.7 51.1367 296.815 50.804 296.132 50.1387C295.453 49.4733 295.113 48.5869 295.113 47.4795V47.2881C295.113 46.5452 295.257 45.8822 295.544 45.2988C295.831 44.7109 296.237 44.2598 296.761 43.9453C297.289 43.6263 297.891 43.4668 298.565 43.4668C299.577 43.4668 300.372 43.7858 300.951 44.4238C301.535 45.0618 301.826 45.9665 301.826 47.1377V47.9443H297.116C297.18 48.4274 297.371 48.8148 297.69 49.1064C298.014 49.3981 298.422 49.5439 298.914 49.5439C299.675 49.5439 300.27 49.2682 300.698 48.7168L301.669 49.8037C301.373 50.223 300.972 50.5511 300.466 50.7881C299.96 51.0205 299.399 51.1367 298.784 51.1367ZM298.559 45.0664C298.167 45.0664 297.848 45.1986 297.602 45.4629C297.36 45.7272 297.205 46.1055 297.137 46.5977H299.885V46.4404C299.876 46.0029 299.757 45.6657 299.529 45.4287C299.301 45.1872 298.978 45.0664 298.559 45.0664ZM309.366 51H307.384V48.1562H304.93V51H302.954V43.6035H304.93V46.5703H307.384V43.6035H309.366V51ZM315.354 43.6035H317.33V51H315.354V46.4336L312.88 51H310.897V43.6035H312.88V48.1631L315.354 43.6035ZM325.007 43.6035V51H323.038V48.4434H321.787L320.365 51H318.362L319.976 48.1084C319.534 47.9033 319.192 47.6253 318.95 47.2744C318.713 46.9235 318.595 46.5247 318.595 46.0781C318.595 45.3626 318.87 44.777 319.422 44.3213C319.978 43.861 320.721 43.6217 321.65 43.6035H325.007ZM321.685 47.0625H323.038V45.1895H321.753C321.402 45.1895 321.117 45.2829 320.898 45.4697C320.68 45.652 320.57 45.8753 320.57 46.1396C320.57 46.404 320.675 46.6227 320.885 46.7959C321.094 46.9691 321.361 47.0579 321.685 47.0625Z" fill="#1E88E5"/>
<g clip-path="url(#clip0_552_6845)">
<path d="M162.382 58.8486C150.562 69.6797 108.415 73.63 82.1449 66.9616C53.7098 59.7434 39.3988 50.6376 13.6032 23.0841C13.2318 25.3898 13.0207 27.2118 12.6289 28.994C12.2535 30.9474 11.7087 32.8644 11.0006 34.7233C10.7659 35.2919 9.41038 35.8332 8.75081 35.6659C8.36612 35.4892 8.032 35.2187 7.77912 34.8792C7.52623 34.5398 7.36269 34.1422 7.30353 33.723C7.44248 27.8926 7.70812 22.0637 8.03796 16.2401C8.00757 15.8234 8.07818 15.4055 8.24381 15.0219C8.40943 14.6384 8.66518 14.3004 8.98932 14.0368C9.31347 13.7732 9.69644 13.5917 10.1057 13.5077C10.515 13.4238 10.9385 13.4398 11.3403 13.5545C18.9139 14.5859 26.5026 15.5212 34.0508 16.7134C35.8309 16.9945 37.4748 18.1373 39.6547 19.0907C36.1387 22.9078 32.53 20.8816 29.3345 21.0099C25.9572 21.1455 22.5561 20.6842 18.4064 20.4388C24.4342 29.2891 31.9869 36.9977 40.7122 43.205C71.8073 65.553 106.317 71.0271 143.332 63.3993C148.151 62.4063 152.853 60.8546 157.626 59.6236C158.915 59.2909 160.264 59.1851 162.382 58.8486Z" fill="#1E88E5"/>
</g>
<defs>
<clipPath id="clip0_552_6845">
<rect width="38.608" height="159.39" fill="white" transform="translate(0 35.8799) rotate(-68.3329)"/>
</clipPath>
</defs>
</svg>
