<svg width="22" height="16" viewBox="0 0 22 16" fill="none" xmlns="http://www.w3.org/2000/svg">
    <path d="M11 14.75C6.42451 14.75 2.49887 11.9683 0.81043 8C2.49887 4.03169 6.42451 1.25 11 1.25C15.5755 1.25 19.5011 4.03169 21.1896 8C19.5011 11.9683 15.5755 14.75 11 14.75ZM5.25 8C5.25 11.1742 7.82579 13.75 11 13.75C14.1742 13.75 16.75 11.1742 16.75 8C16.75 4.82579 14.1742 2.25 11 2.25C7.82579 2.25 5.25 4.82579 5.25 8ZM8.75 8C8.75 6.75421 9.75421 5.75 11 5.75C12.2458 5.75 13.25 6.75421 13.25 8C13.25 9.24579 12.2458 10.25 11 10.25C9.75421 10.25 8.75 9.24579 8.75 8Z" stroke="currentColor" stroke-width="1.5" />
</svg>