<svg width="24" height="24" viewBox="0 0 20 20" fill="none" xmlns="http://www.w3.org/2000/svg">
    <path d="M8.33521 4.16676C8.33521 3.72473 8.5108 3.30081 8.82336 2.98825C9.13592 2.67569 9.55984 2.50009 10.0019 2.50009C10.4439 2.50009 10.8678 2.67569 11.1804 2.98825C11.4929 3.30081 11.6685 3.72473 11.6685 4.16676C12.6255 4.61928 13.4414 5.3237 14.0286 6.20451C14.6158 7.08532 14.9522 8.10932 15.0019 9.16676V11.6668C15.0646 12.1848 15.2481 12.681 15.5375 13.1152C15.827 13.5494 16.2144 13.9096 16.6685 14.1668H3.33521C3.78932 13.9096 4.17671 13.5494 4.46619 13.1152C4.75568 12.681 4.93916 12.1848 5.00187 11.6668V9.16676C5.05151 8.10932 5.38796 7.08532 5.97516 6.20451C6.56237 5.3237 7.3782 4.61928 8.33521 4.16676" stroke="currentColor" stroke-width="1.5" stroke-linecap="round" stroke-linejoin="round" />
    <path d="M7.49719 14.1667V15.0001C7.49719 15.6631 7.76058 16.299 8.22943 16.7678C8.69827 17.2367 9.33415 17.5001 9.99719 17.5001C10.6602 17.5001 11.2961 17.2367 11.765 16.7678C12.2338 16.299 12.4972 15.6631 12.4972 15.0001V14.1667" stroke="currentColor" stroke-width="1.5" stroke-linecap="round" stroke-linejoin="round" />
</svg>