<svg width="54" height="56" viewBox="0 0 54 56" fill="none" xmlns="http://www.w3.org/2000/svg">
<g clip-path="url(#clip0_4319_17747)">
<path d="M20.2257 9.30102C20.8379 9.30102 21.3342 8.80472 21.3342 8.1925C21.3342 7.58029 20.8379 7.08398 20.2257 7.08398C19.6135 7.08398 19.1172 7.58029 19.1172 8.1925C19.1172 8.80472 19.6135 9.30102 20.2257 9.30102Z" fill="#5FB0E5"/>
<path d="M20.9951 1.51411C20.9951 1.66622 20.9501 1.81492 20.8656 1.9414C20.7811 2.06789 20.6609 2.16651 20.5204 2.22472C20.3799 2.28294 20.2252 2.29816 20.076 2.26849C19.9269 2.23882 19.7898 2.16557 19.6823 2.05801C19.5747 1.95045 19.5015 1.81345 19.4718 1.66426C19.4421 1.51507 19.4574 1.36044 19.5156 1.21991C19.5738 1.07938 19.6723 0.959218 19.7988 0.874718C19.9253 0.790218 20.074 0.745104 20.2261 0.745117C20.4301 0.745117 20.6257 0.826161 20.7699 0.970375C20.9141 1.11459 20.9951 1.31016 20.9951 1.51411Z" fill="#5FB0E5"/>
<path d="M8.95694 5.16876C9.72221 5.16876 10.3426 4.54838 10.3426 3.78311C10.3426 3.01784 9.72221 2.39746 8.95694 2.39746C8.19166 2.39746 7.57129 3.01784 7.57129 3.78311C7.57129 4.54838 8.19166 5.16876 8.95694 5.16876Z" fill="#5FB0E5"/>
<path d="M32.3458 1.89171C32.3458 2.26585 32.2349 2.63157 32.027 2.94265C31.8191 3.25372 31.5237 3.49621 31.178 3.63937C30.8324 3.78253 30.452 3.81997 30.085 3.74696C29.7181 3.67396 29.3811 3.49378 29.1165 3.22921C28.852 2.96465 28.6718 2.62757 28.5988 2.26062C28.5259 1.89367 28.5633 1.51336 28.7065 1.1677C28.8497 0.822049 29.0921 0.526572 29.4032 0.318723C29.7143 0.110874 30.0801 -1.31554e-05 30.4543 1.17055e-09C30.7027 -1.74682e-06 30.9487 0.0489033 31.1782 0.143973C31.4077 0.239044 31.6162 0.378383 31.7918 0.55405C31.9675 0.729717 32.1069 0.938268 32.2019 1.16778C32.297 1.3973 32.3458 1.64329 32.3458 1.89171Z" fill="#5FB0E5"/>
<path d="M27.7261 41.9229H25.7305V56.0002H27.7261V41.9229Z" fill="#0686D8"/>
<path d="M19.7994 43.3907L12.4463 53.3457L14.0522 54.5319L21.4053 44.5769L19.7994 43.3907Z" fill="#0686D8"/>
<path d="M33.6544 43.3917L32.0488 44.5781L39.4039 54.5316L41.0094 53.3452L33.6544 43.3917Z" fill="#0686D8"/>
<path d="M50.5204 14.9629H2.93555V44.8751H50.5204V14.9629Z" fill="white"/>
<path d="M51.5183 45.8725H1.9375V13.9648H51.5183V45.8725ZM3.93315 43.8769H49.5226V15.9605H3.93315V43.8769Z" fill="#0686D8"/>
<path d="M8.63703 42.2345H5.64355V32.348L8.63703 31.124V42.2345Z" fill="#D2E9F7"/>
<path d="M11.6325 42.2344H8.6377V31.4552L11.6325 29.0059V42.2344Z" fill="#9ECFEF"/>
<path d="M14.6253 42.2344H11.6318V29.0059L14.6253 30.2299V42.2344Z" fill="#D2E9F7"/>
<path d="M17.6201 30.2305H14.626V42.234H17.6201V30.2305Z" fill="#9ECFEF"/>
<path d="M20.6143 30.2305H17.6201V42.234H20.6143V30.2305Z" fill="#D2E9F7"/>
<path d="M23.6091 42.2341H20.6143V30.2296L23.6091 27.7803V42.2341Z" fill="#9ECFEF"/>
<path d="M26.6019 42.2348H23.6084V29.0063L26.6019 26.5557V42.2348Z" fill="#D2E9F7"/>
<path d="M29.5967 27.7803H26.6025V42.2344H29.5967V27.7803Z" fill="#9ECFEF"/>
<path d="M32.5908 27.7803H29.5967V42.2344H32.5908V27.7803Z" fill="#D2E9F7"/>
<path d="M35.5856 42.2348H32.5908V27.781L35.5856 26.5557V42.2348Z" fill="#9ECFEF"/>
<path d="M38.5784 42.2346H35.585V26.5554L38.5784 25.3301V42.2346Z" fill="#D2E9F7"/>
<path d="M41.5739 42.2346H38.5791V25.3301L41.5739 26.5554V42.2346Z" fill="#9ECFEF"/>
<path d="M44.5667 42.2346H41.5732V26.5554L44.5667 25.3301V42.2346Z" fill="#D2E9F7"/>
<path d="M47.5622 42.2348H44.5674V25.3303L47.5622 21.6543V42.2348Z" fill="#9ECFEF"/>
<path d="M6.1335 33.218L5.1543 31.4791L11.4113 27.9588L17.5593 29.6378L26.4931 26.031L32.0264 27.0036L38.322 23.6043L42.8069 25.8195L46.7943 21.0166L48.3296 22.2912L43.3338 28.3061L38.3633 25.8501L32.3644 29.0883L26.7113 28.0945L17.6817 31.7399L11.6761 30.1008L6.1335 33.218Z" fill="#0686D8"/>
<path d="M2.17375 11.8086H51.2498C51.5616 11.8086 51.8606 11.9325 52.0811 12.1529C52.3016 12.3734 52.4255 12.6725 52.4255 12.9843V15.7757C52.4255 16.0875 52.3016 16.3865 52.0811 16.607C51.8606 16.8275 51.5616 16.9514 51.2498 16.9514H2.17362C1.86184 16.9514 1.56283 16.8275 1.34236 16.6071C1.1219 16.3866 0.998047 16.0876 0.998047 15.7758V12.9843C0.998047 12.6725 1.12192 12.3734 1.3424 12.1529C1.56289 11.9325 1.86194 11.8086 2.17375 11.8086Z" fill="#5FB0E5"/>
<path d="M51.3427 17.9493H2.08018C1.5286 17.9486 0.999807 17.7291 0.609837 17.339C0.219866 16.949 0.000513999 16.42 0 15.8685V12.8914C0.000492909 12.3398 0.21978 11.8109 0.609756 11.4208C0.999731 11.0307 1.52859 10.8112 2.08018 10.8105H8.63881V12.8062H2.08018L1.99565 15.8685L51.3427 15.9536L51.427 12.8914L21.4793 12.8062V10.8105H51.3427C51.8943 10.8112 52.423 11.0307 52.813 11.4208C53.203 11.8109 53.4222 12.3398 53.4227 12.8914V15.8685C53.4222 16.42 53.2029 16.949 52.813 17.339C52.423 17.7291 51.8943 17.9486 51.3427 17.9493Z" fill="#0686D8"/>
<path d="M18.23 10.8105H12.9316V12.8062H18.23V10.8105Z" fill="#0686D8"/>
<path d="M12.9312 19.0215H7.33789V21.0171H12.9312V19.0215Z" fill="#0686D8"/>
<path d="M12.9312 21.8896H7.33789V23.8853H12.9312V21.8896Z" fill="#0686D8"/>
<path d="M12.9312 24.7578H7.33789V26.7535H12.9312V24.7578Z" fill="#0686D8"/>
</g>
<defs>
<clipPath id="clip0_4319_17747">
<rect width="53.4227" height="56" fill="white"/>
</clipPath>
</defs>
</svg>
