<svg width="36" height="36" viewBox="0 0 36 36" fill="none" xmlns="http://www.w3.org/2000/svg">
<path opacity="0.3" d="M18 6C11.37 6 6 11.37 6 18C6 24.63 11.37 30 18 30C24.63 30 30 24.63 30 18C30 11.37 24.63 6 18 6ZM24.375 24.225L16.5 19.5V10.5H18.75V18.375L25.5 22.38L24.375 24.225Z" fill="#90CAF9"/>
<path d="M17.985 3C9.705 3 3 9.72 3 18C3 26.28 9.705 33 17.985 33C26.28 33 33 26.28 33 18C33 9.72 26.28 3 17.985 3ZM18 30C11.37 30 6 24.63 6 18C6 11.37 11.37 6 18 6C24.63 6 30 11.37 30 18C30 24.63 24.63 30 18 30ZM18.75 10.5H16.5V19.5L24.375 24.225L25.5 22.38L18.75 18.375V10.5Z" fill="#FAFAFA"/>
</svg>
