<svg width="60" height="56" viewBox="0 0 60 56" fill="none" xmlns="http://www.w3.org/2000/svg">
<g clip-path="url(#clip0_4319_17784)">
<path d="M54.8797 15.1553H4.99678C4.26613 15.1553 3.67383 15.7476 3.67383 16.4782V51.5891C3.67383 52.3198 4.26613 52.9121 4.99678 52.9121H54.8797C55.6104 52.9121 56.2027 52.3198 56.2027 51.5891V16.4782C56.2027 15.7476 55.6104 15.1553 54.8797 15.1553Z" fill="#5FB0E5"/>
<path d="M54.8976 53.9045H4.97969C4.37054 53.9036 3.78657 53.661 3.35596 53.2302C2.92535 52.7993 2.68321 52.2153 2.68262 51.6061V16.4602C2.68349 15.8512 2.92578 15.2674 3.35636 14.8368C3.78695 14.4062 4.37074 14.164 4.97969 14.1631H8.39817V16.1475H4.97969C4.89714 16.1487 4.81827 16.182 4.7599 16.2404C4.70152 16.2987 4.66821 16.3776 4.66704 16.4602V51.6061C4.66793 51.6889 4.7011 51.768 4.75949 51.8267C4.81789 51.8853 4.89694 51.9188 4.97969 51.9201H54.8976C54.9804 51.9189 55.0594 51.8853 55.1178 51.8267C55.1763 51.768 55.2095 51.6889 55.2104 51.6061V16.4602C55.2092 16.3776 55.1759 16.2987 55.1175 16.2404C55.0591 16.182 54.9802 16.1487 54.8976 16.1475H51.1033V14.1631H54.8976C55.5066 14.1639 56.0904 14.4062 56.5211 14.8368C56.9517 15.2674 57.1939 15.8512 57.1948 16.4602V51.6061C57.1942 52.2153 56.9521 52.7993 56.5215 53.2302C56.0908 53.661 55.5068 53.9036 54.8976 53.9045Z" fill="#0686D8"/>
<path d="M53.3664 18.126H6.22461V48.7655H53.3664V18.126Z" fill="white"/>
<path d="M55.2851 55.0076H4.01323C3.41722 55.0077 2.84062 54.796 2.38635 54.4101C1.93208 54.0243 1.62973 53.4895 1.53335 52.9014L1.16797 50.6738H24.9318L25.8411 51.979H32.4074L33.3902 50.6738H58.4244L58.1066 52.6111C57.9969 53.2803 57.6529 53.8887 57.1361 54.3277C56.6193 54.7667 55.9632 55.0077 55.2851 55.0076Z" fill="#5FB0E5"/>
<path d="M55.2848 56.0002H4.01277C3.18063 56.003 2.37488 55.7086 1.74057 55.17C1.10626 54.6314 0.685132 53.8839 0.553032 53.0623L0 49.6826H25.4501L26.3583 50.9874H31.9123L32.8955 49.6826H59.5922L59.0858 52.7716C58.9403 53.6741 58.4775 54.4952 57.7807 55.087C57.084 55.6788 56.199 56.0026 55.2848 56.0002ZM2.33591 51.667L2.51162 52.7419C2.56915 53.0982 2.75199 53.4223 3.02718 53.6558C3.30237 53.8893 3.65185 54.017 4.01277 54.0158H55.2848C55.7281 54.017 56.1572 53.8599 56.4949 53.5728C56.8326 53.2858 57.0569 52.8876 57.1272 52.45L57.2563 51.667H33.885L32.902 52.9718H25.3221L24.4138 51.667H2.33591Z" fill="#0686D8"/>
<path d="M49.8785 3.41625C49.8785 3.58048 49.8298 3.741 49.7386 3.87756C49.6474 4.01411 49.5177 4.12056 49.366 4.18342C49.2142 4.24628 49.0472 4.26277 48.8862 4.23074C48.7251 4.19871 48.5772 4.11964 48.461 4.00352C48.3449 3.8874 48.2658 3.73946 48.2337 3.57839C48.2017 3.41732 48.2181 3.25033 48.281 3.0986C48.3438 2.94686 48.4502 2.8172 48.5868 2.72595C48.7233 2.6347 48.8838 2.58595 49.0481 2.58594C49.2683 2.58594 49.4794 2.67344 49.6352 2.82915C49.7909 2.98485 49.8784 3.19604 49.8785 3.41625Z" fill="#5FB0E5"/>
<path d="M53.9729 10.3076C53.9729 10.5645 53.8967 10.8157 53.754 11.0293C53.6112 11.2429 53.4084 11.4094 53.1711 11.5077C52.9337 11.606 52.6725 11.6318 52.4205 11.5817C52.1685 11.5316 51.9371 11.4078 51.7554 11.2262C51.5738 11.0445 51.4501 10.813 51.4 10.5611C51.3499 10.3091 51.3755 10.048 51.4739 9.8106C51.5722 9.57325 51.7387 9.37034 51.9524 9.22761C52.166 9.08489 52.4171 9.00878 52.674 9.00879C53.0185 9.00881 53.3488 9.1456 53.5924 9.38919C53.836 9.63277 53.9729 9.96312 53.9729 10.3076Z" fill="#5FB0E5"/>
<path d="M57.3892 1.70803C57.3892 2.0459 57.289 2.37625 57.1013 2.6572C56.9136 2.93815 56.6469 3.15714 56.3347 3.28646C56.0226 3.41578 55.6791 3.44957 55.3478 3.38368C55.0164 3.31778 54.7119 3.15514 54.473 2.91624C54.2341 2.67733 54.0714 2.37289 54.0055 2.04151C53.9396 1.71013 53.9733 1.3667 54.1026 1.05455C54.2319 0.742394 54.451 0.475566 54.7319 0.287861C55.0128 0.100156 55.3431 -1.56957e-05 55.681 1.84468e-09C56.134 1.4033e-05 56.5685 0.179988 56.8888 0.500304C57.2091 0.820621 57.3891 1.25502 57.3892 1.70803Z" fill="#5FB0E5"/>
<path d="M40.8598 10.9498V7.86896C40.8458 7.43636 40.9195 7.00537 41.0766 6.60205C41.2337 6.19874 41.4709 5.83144 41.7739 5.52231C42.0768 5.21319 42.4392 4.9687 42.8393 4.80351C43.2394 4.63832 43.6688 4.55586 44.1016 4.56119H7.84675C7.22896 4.54669 6.63064 4.778 6.18329 5.20433C5.73595 5.63067 5.47615 6.21715 5.46094 6.83493V10.9498H40.8598Z" fill="#5FB0E5"/>
<path d="M10.4324 11.9422H4.46875V6.63233C4.46965 5.73683 4.82569 4.87825 5.45878 4.24491C6.09188 3.61156 6.95038 3.25516 7.84589 3.25391H20.2886V5.23833H7.84589C7.47651 5.23901 7.12241 5.38616 6.86134 5.64747C6.60028 5.90878 6.4535 6.26295 6.45317 6.63233V9.95779H10.4324V11.9422Z" fill="#0686D8"/>
<path d="M48.7589 48.7237V10.089C48.7589 8.53954 48.1434 7.05356 47.0477 5.9579C45.952 4.86223 44.466 4.24664 42.9165 4.24664H7.64551C8.03683 4.21088 8.43122 4.26032 8.80163 4.3915C9.17205 4.52267 9.50973 4.73248 9.79134 5.00654C10.0729 5.28061 10.2919 5.61241 10.433 5.97913C10.5742 6.34585 10.6343 6.73883 10.6091 7.13098V48.7235L48.7589 48.7237Z" fill="white"/>
<path d="M11.6015 48.7238H9.61709V7.1311C9.6416 6.86953 9.6068 6.6058 9.51519 6.35957C9.42358 6.11334 9.27757 5.89094 9.08804 5.709C8.89852 5.52706 8.67036 5.39023 8.42059 5.30874C8.17083 5.22725 7.90587 5.20317 7.64551 5.23833V3.25391H29.4587V5.23833H11.1686C11.4577 5.82715 11.6059 6.47516 11.6015 7.1311V48.7238Z" fill="#0686D8"/>
<path d="M36.7277 3.25391H32.5908V5.23833H36.7277V3.25391Z" fill="#0686D8"/>
<path d="M49.7515 48.7238H47.7671V10.0896C47.7658 8.80331 47.2543 7.57012 46.3448 6.66059C45.4353 5.75107 44.2021 5.23955 42.9158 5.23833H40.2363V3.25391H42.9158C44.7281 3.25618 46.4654 3.97707 47.7469 5.25852C49.0283 6.53996 49.7492 8.27733 49.7515 10.0896V48.7238Z" fill="#0686D8"/>
<path d="M24.7808 11.5273H15.7295V13.5118H24.7808V11.5273Z" fill="#0686D8"/>
<path d="M36.7275 14.7598H15.7295V16.7442H36.7275V14.7598Z" fill="#0686D8"/>
<path d="M44.4144 20.9727H15.7305V25.5335H44.4144V20.9727Z" fill="#9ECFEF"/>
<path d="M45.4067 44.4125H14.7373V19.9805H45.4067V44.4125ZM16.7217 42.428H43.4223V21.9649H16.7217V42.428Z" fill="#0686D8"/>
<path d="M43.8731 24.541H15.1895V26.5254H43.8731V24.541Z" fill="#0686D8"/>
<path d="M21.2471 20.4082H19.2627V43.4202H21.2471V20.4082Z" fill="#0686D8"/>
</g>
<defs>
<clipPath id="clip0_4319_17784">
<rect width="59.5922" height="56" fill="white"/>
</clipPath>
</defs>
</svg>
