<svg width="20" height="20" viewBox="0 0 20 20" fill="none" xmlns="http://www.w3.org/2000/svg">
<path d="M5 8.0001H8V5.0001L4.5 1.5001C5.61963 0.965372 6.8775 0.790904 8.1004 1.00072C9.3233 1.21054 10.4511 1.79432 11.3284 2.67167C12.2058 3.54903 12.7896 4.6768 12.9994 5.8997C13.2092 7.1226 13.0347 8.38047 12.5 9.5001L18.5 15.5001C18.8978 15.8979 19.1213 16.4375 19.1213 17.0001C19.1213 17.5627 18.8978 18.1023 18.5 18.5001C18.1022 18.8979 17.5626 19.1214 17 19.1214C16.4374 19.1214 15.8978 18.8979 15.5 18.5001L9.5 12.5001C8.38037 13.0348 7.1225 13.2093 5.8996 12.9995C4.6767 12.7897 3.54893 12.2059 2.67157 11.3285C1.79422 10.4512 1.21044 9.32339 1.00062 8.1005C0.790805 6.8776 0.965273 5.61973 1.5 4.5001L5 8.0001Z" stroke="#757575" stroke-width="1.5" stroke-linecap="round" stroke-linejoin="round"/>
</svg>
