<svg width="320" height="146" viewBox="0 0 320 146" fill="none" xmlns="http://www.w3.org/2000/svg">
    <g opacity="0.25" clip-path="url(#clip0_5635_27643)">
        <g opacity="0.7">
            <path fill-rule="evenodd" clip-rule="evenodd" d="M235 128.999L425.864 -4.6334C404.375 -35.3121 375.808 -60.36 342.584 -77.6554C309.36 -94.9508 272.456 -103.984 235 -103.991V128.999Z" fill="url(#paint0_radial_5635_27643)" />
            <path d="M234.999 330.292C185.256 330.232 137.308 311.697 100.457 278.285C63.6053 244.872 40.4775 198.964 35.5597 149.464C30.6419 99.9641 44.2845 50.4021 73.8413 10.392C103.398 -29.6181 146.762 -57.2242 195.521 -67.0712C244.28 -76.9181 294.959 -68.304 337.726 -42.8998C380.493 -17.4955 412.3 22.8878 426.978 70.4166C441.655 117.945 438.156 169.232 417.159 214.327C396.162 259.421 359.165 295.11 313.344 314.47C288.56 324.962 261.913 330.344 234.999 330.292ZM234.999 -71.288C124.56 -71.288 34.7112 18.5604 34.7112 128.999C34.7112 239.439 124.56 329.287 234.999 329.287C345.438 329.287 435.287 239.439 435.287 128.999C435.287 18.5604 345.438 -71.288 234.999 -71.288V-71.288Z" fill="url(#paint1_radial_5635_27643)" />
            <path d="M467.991 127.995H2.00873V130.005H467.991V127.995Z" fill="url(#paint2_radial_5635_27643)" />
            <path d="M404.524 129C404.524 124.208 404.328 119.449 403.937 114.724L467.148 109.193L467.062 108.193L403.851 113.724C403.444 109.122 402.853 104.564 402.078 100.05L464.536 89.038L464.365 88.0485L401.907 99.0601C401.103 94.5187 400.115 90.0293 398.943 85.5919L460.18 69.1849L459.924 68.2104L398.682 84.6225C397.486 80.1715 396.112 75.7842 394.558 71.4607L454.112 49.7842L453.765 48.8396L394.211 70.5164C392.629 66.1961 390.869 61.9478 388.931 57.7716L446.375 30.9911L445.948 30.0769L388.509 56.8623C386.55 52.7078 384.42 48.6337 382.119 44.64L437.027 12.9414L436.524 12.0674L381.617 43.7709C379.301 39.8124 376.824 35.9393 374.187 32.1515L426.141 -4.22398L425.568 -5.04768L373.609 31.3327C370.962 27.5953 368.157 23.9549 365.195 20.4115L413.803 -20.3795L413.16 -21.1483L364.547 19.643C361.588 16.1515 358.479 12.7673 355.218 9.49045L400.104 -35.3949L399.395 -36.1034L354.51 8.78202C351.23 5.52164 347.845 2.41211 344.357 -0.546585L385.148 -49.1594L384.38 -49.8026L343.589 -1.19467C340.047 -4.15878 336.407 -6.96358 332.667 -9.60911L369.048 -61.5676L368.224 -62.1404L331.849 -10.187C328.066 -12.8292 324.193 -15.3058 320.229 -17.6166L351.933 -72.524L351.059 -73.0264L319.36 -18.1189C315.367 -20.4198 311.293 -22.5498 307.138 -24.509L333.923 -81.9481L333.009 -82.3751L306.224 -24.9309C302.054 -26.865 297.808 -28.625 293.484 -30.2107L315.161 -89.7699L314.216 -90.1113L292.539 -30.5574C288.214 -32.1095 283.827 -33.4859 279.378 -34.6866L295.789 -95.9237L294.815 -96.1798L278.408 -34.9429C273.972 -36.1083 269.483 -37.0962 264.94 -37.9067L275.951 -100.364L274.962 -100.54L263.95 -38.0775C259.434 -38.8511 254.876 -39.4422 250.276 -39.8509L255.807 -103.062L254.807 -103.148L249.277 -39.9363C239.775 -40.7199 230.225 -40.7199 220.723 -39.9363L215.192 -103.148L214.192 -103.062L219.723 -39.8509C215.121 -39.444 210.563 -38.8528 206.049 -38.0775L195.038 -100.54L194.048 -100.364L205.06 -37.9067C200.518 -37.1029 196.029 -36.1166 191.591 -34.9478L175.184 -96.1798L174.215 -95.9237L190.622 -34.6866C186.171 -33.491 181.784 -32.1146 177.46 -30.5574L155.783 -90.1113L154.839 -89.7699L176.516 -30.2107C172.2 -28.6284 167.954 -26.8684 163.776 -24.9309L136.991 -82.3751L136.076 -81.9481L162.862 -24.509C158.707 -22.5498 154.633 -20.4216 150.639 -18.1241L118.941 -73.0264L118.072 -72.524L149.77 -17.6217C145.807 -15.3059 141.934 -12.8277 138.151 -10.187L101.775 -62.1404L100.951 -61.5676L137.332 -9.60911C133.594 -6.96165 129.954 -4.15684 126.411 -1.19467L85.6196 -49.8026L84.8509 -49.1594L125.642 -0.546585C122.151 2.4072 118.767 5.51501 115.489 8.77684L70.6042 -36.1034L69.8958 -35.3949L114.776 9.48527C111.516 12.7658 108.408 16.1517 105.453 19.643L56.8397 -21.1483L56.1966 -20.3795L104.804 20.4115C101.841 23.9532 99.0358 27.5936 96.3901 31.3327L44.4315 -5.04768L43.8587 -4.22398L95.8124 32.1515C93.1699 35.9342 90.6916 39.8073 88.3774 43.7709L33.4751 12.0674L32.9727 12.9414L87.8751 44.64C85.5794 48.6286 83.4511 52.7027 81.4902 56.8623L24.051 30.0769L23.624 30.9911L81.0682 57.7716C79.1342 61.9462 77.3742 66.1945 75.7884 70.5164L16.2344 48.8396L15.8877 49.7842L75.4418 71.4607C73.8896 75.7859 72.5132 80.1715 71.3126 84.6174L10.0754 68.2104L9.8193 69.18L71.0513 85.5919C69.8857 90.0277 68.8994 94.5171 68.0924 99.0601L5.63464 88.0485L5.46389 89.038L67.9217 100.05C67.1481 104.566 66.5569 109.124 66.1483 113.724L2.94207 108.193L2.85159 109.193L66.0629 114.724C65.6711 119.446 65.4735 124.205 65.47 129C65.47 133.793 65.6676 138.552 66.0629 143.277L2.85159 148.808L2.94207 149.808L66.1483 144.277C66.5552 148.879 67.1463 153.437 67.9217 157.951L5.46389 168.963L5.63464 169.952L68.0924 158.941C68.8962 163.482 69.8842 167.971 71.0563 172.409L9.8193 188.816L10.0754 189.785L71.3126 173.378C72.513 177.824 73.8895 182.211 75.4418 186.54L15.8877 208.216L16.2344 209.161L75.7884 187.484C77.371 191.8 79.131 196.046 81.0682 200.224L23.624 227.009L24.051 227.919L81.4902 201.133C83.4493 205.293 85.5793 209.369 87.8802 213.361L32.9727 245.059L33.4751 245.928L88.3826 214.23C90.6935 218.188 93.1701 222.06 95.8124 225.844L43.8587 262.225L44.4315 263.048L96.3901 226.668C99.0375 230.406 101.842 234.046 104.804 237.589L56.1966 278.381L56.8397 279.149L105.453 238.358C108.411 241.849 111.521 245.233 114.781 248.511L69.8958 293.396L70.6042 294.104L115.489 249.219C118.77 252.479 122.154 255.589 125.642 258.547L84.8509 307.155L85.6196 307.803L126.411 259.195C129.952 262.16 133.593 264.964 137.332 267.61L100.951 319.568L101.775 320.141L138.151 268.188C141.934 270.83 145.807 273.307 149.77 275.618L118.067 330.525L118.941 331.027L150.639 276.12C154.633 278.415 158.707 280.545 162.862 282.51L136.076 339.949L136.991 340.371L163.776 282.932C167.945 284.866 172.192 286.625 176.516 288.211L154.839 347.765L155.783 348.112L177.46 288.558C181.785 290.11 186.173 291.487 190.622 292.687L174.21 353.919L175.184 354.181L191.591 292.943C196.027 294.109 200.516 295.097 205.06 295.908L194.048 358.365L195.038 358.536L206.049 296.078C210.565 296.852 215.123 297.443 219.723 297.852L214.192 361.058L215.192 361.148L220.723 297.937C230.225 298.721 239.775 298.721 249.277 297.937L254.807 361.148L255.807 361.058L250.276 297.852C254.878 297.444 259.436 296.853 263.95 296.078L274.962 358.536L275.951 358.365L264.94 295.908C269.481 295.104 273.971 294.118 278.408 292.949L294.815 354.181L295.785 353.919L279.378 292.687C283.829 291.492 288.216 290.115 292.539 288.558L314.216 348.112L315.161 347.765L293.484 288.211C297.799 286.629 302.046 284.869 306.224 282.932L333.009 340.371L333.923 339.949L307.138 282.51C311.292 280.55 315.366 278.422 319.36 276.125L351.059 331.027L351.928 330.525L320.229 275.623C324.193 273.306 328.066 270.828 331.849 268.188L368.224 320.141L369.048 319.568L332.667 267.61C336.405 264.963 340.046 262.158 343.589 259.195L384.38 307.803L385.148 307.155L344.357 258.547C347.848 255.589 351.233 252.481 354.51 249.224L399.395 294.104L400.104 293.396L355.223 248.511C358.483 245.235 361.591 241.851 364.547 238.358L413.16 279.149L413.803 278.381L365.195 237.589C368.159 234.048 370.964 230.407 373.609 226.668L425.568 263.048L426.141 262.225L374.187 225.844C376.829 222.066 379.308 218.195 381.622 214.23L436.524 245.928L437.027 245.059L382.124 213.361C384.42 209.372 386.549 205.296 388.509 201.133L445.948 227.919L446.375 227.009L388.931 200.224C390.865 196.049 392.625 191.803 394.211 187.484L453.765 209.161L454.112 208.216L394.553 186.54C396.11 182.219 397.488 177.832 398.687 173.378L459.924 189.785L460.18 188.816L398.948 172.409C400.113 167.973 401.1 163.484 401.907 158.941L464.365 169.952L464.536 168.963L402.078 157.951C402.851 153.435 403.443 148.877 403.851 144.277L467.062 149.808L467.148 148.808L403.937 143.277C404.329 138.555 404.524 133.796 404.524 129ZM402.842 113.809L371.816 116.527C371.485 112.865 371.014 109.234 370.404 105.636L401.063 100.231C401.837 104.701 402.43 109.228 402.842 113.809ZM307.123 135.812C306.957 137.59 306.728 139.349 306.435 141.087L268.562 134.411C268.512 134.742 268.456 135.074 268.391 135.401L306.259 142.077C305.937 143.825 305.554 145.555 305.108 147.266L267.969 137.314C267.889 137.641 267.803 137.962 267.708 138.284L304.847 148.236C304.375 149.949 303.842 151.647 303.244 153.304L267.12 140.158C267.01 140.474 266.894 140.786 266.779 141.097L302.903 154.249C302.28 155.917 301.6 157.553 300.864 159.157L266.025 142.91C265.89 143.217 265.749 143.524 265.598 143.82L300.436 160.066C299.673 161.673 298.853 163.244 297.975 164.778L264.689 145.563C264.528 145.854 264.362 146.146 264.192 146.432L297.467 165.647C296.568 167.174 295.614 168.671 294.609 170.123L263.132 148.085C262.946 148.366 262.755 148.637 262.554 148.909L294.031 170.947C293.002 172.389 291.921 173.792 290.791 175.157L261.358 150.466C261.147 150.727 260.936 150.978 260.715 151.23L290.143 175.925C288.993 177.276 287.796 178.583 286.551 179.844L259.389 152.676C259.158 152.918 258.922 153.154 258.68 153.39L285.843 180.552C284.582 181.798 283.278 182.995 281.93 184.144L257.234 154.716C256.983 154.937 256.722 155.153 256.46 155.364L281.156 184.792C279.795 185.922 278.391 187.002 276.946 188.032L254.908 156.56C254.637 156.755 254.365 156.946 254.084 157.132L276.123 188.61C274.666 189.615 273.179 190.569 271.647 191.468L252.436 158.192C252.15 158.363 251.859 158.529 251.562 158.689L270.777 191.976C269.24 192.849 267.67 193.67 266.065 194.437L249.819 159.599C249.523 159.749 249.216 159.89 248.91 160.026L265.156 194.859C263.553 195.598 261.917 196.279 260.248 196.904L247.096 160.779C246.785 160.895 246.473 161.01 246.157 161.121L259.304 197.245C257.646 197.838 255.948 198.375 254.235 198.848L244.283 161.709C243.962 161.804 243.64 161.889 243.314 161.97L253.265 199.109C251.557 199.551 249.824 199.938 248.076 200.259L241.4 162.392C241.073 162.457 240.741 162.512 240.41 162.562L247.086 200.43C245.348 200.727 243.59 200.958 241.811 201.124L238.461 162.819C238.13 162.854 237.798 162.884 237.461 162.904L240.812 201.209C236.943 201.515 233.056 201.515 229.187 201.209L232.538 162.904C232.201 162.884 231.87 162.854 231.539 162.819L228.188 201.124C226.41 200.958 224.651 200.726 222.913 200.43L229.59 162.562C229.258 162.512 228.926 162.457 228.6 162.392L221.923 200.259C220.17 199.938 218.441 199.553 216.734 199.104L226.686 161.97C226.359 161.889 226.038 161.804 225.716 161.709L215.765 198.843C214.047 198.37 212.357 197.838 210.696 197.245L223.842 161.121C223.526 161.01 223.21 160.895 222.898 160.779L209.751 196.904C208.084 196.28 206.447 195.599 204.843 194.859L221.089 160.021C220.783 159.89 220.477 159.749 220.18 159.599L203.934 194.437C202.327 193.668 200.764 192.844 199.227 191.965L218.437 158.689C218.146 158.529 217.854 158.363 217.568 158.192L198.358 191.463C196.826 190.564 195.332 189.613 193.877 188.61L215.915 157.132C215.634 156.946 215.363 156.755 215.091 156.56L193.053 188.032C191.611 187.002 190.208 185.922 188.843 184.792L213.539 155.364C213.278 155.153 213.017 154.937 212.766 154.716L188.07 184.144C186.724 182.993 185.421 181.794 184.161 180.547L211.319 153.39C211.078 153.154 210.846 152.923 210.61 152.681L183.453 179.839C182.207 178.577 181.009 177.273 179.856 175.925L209.284 151.234C209.068 150.983 208.852 150.727 208.641 150.466L179.208 175.157C178.078 173.795 176.998 172.392 175.968 170.947L207.446 148.909C207.245 148.637 207.054 148.366 206.868 148.085L175.39 170.123C174.386 168.671 173.436 167.169 172.537 165.642L205.808 146.432C205.637 146.146 205.471 145.854 205.311 145.563L172.035 164.773C171.156 163.236 170.326 161.673 169.563 160.066L204.401 143.82C204.251 143.524 204.11 143.217 203.974 142.91L169.136 159.157C168.398 157.554 167.718 155.918 167.096 154.249L203.221 141.097C203.1 140.786 202.99 140.469 202.879 140.153L166.755 153.304C166.157 151.642 165.63 149.954 165.152 148.236L202.291 138.284C202.196 137.962 202.111 137.641 202.03 137.314L164.896 147.266C164.449 145.558 164.064 143.828 163.741 142.077L201.608 135.401C201.543 135.074 201.488 134.742 201.438 134.411L163.565 141.087C163.273 139.349 163.044 137.59 162.877 135.812L201.181 132.461C201.146 132.13 201.116 131.799 201.096 131.462L162.791 134.813C162.636 132.894 162.56 130.96 162.56 129C162.56 127.041 162.636 125.107 162.791 123.188L201.096 126.539C201.116 126.202 201.146 125.871 201.181 125.539L162.877 122.183C163.042 120.405 163.272 118.649 163.565 116.914L201.438 123.595C201.488 123.258 201.543 122.927 201.608 122.6L163.741 115.924C164.062 114.171 164.446 112.441 164.891 110.735L202.03 120.686C202.111 120.36 202.196 120.038 202.291 119.717L165.152 109.765C165.625 108.047 166.159 106.358 166.755 104.697L202.879 117.843C202.99 117.527 203.105 117.21 203.221 116.899L167.096 103.752C167.72 102.084 168.399 100.448 169.136 98.8439L203.979 115.09C204.11 114.779 204.256 114.477 204.401 114.176L169.563 97.9298C170.326 96.3273 171.147 94.7582 172.024 93.2226L205.311 112.438C205.471 112.141 205.637 111.85 205.808 111.564L172.532 92.3536C173.431 90.8215 174.384 89.3296 175.39 87.8778L206.868 109.916C207.054 109.635 207.245 109.363 207.44 109.092L175.968 87.0538C176.998 85.6071 178.078 84.2022 179.208 82.839L208.641 107.535C208.852 107.274 209.068 107.017 209.284 106.766L179.856 82.0705C181.006 80.7242 182.204 79.4197 183.448 78.1572L210.61 105.319C210.846 105.078 211.082 104.842 211.324 104.611L184.156 77.4487C185.417 76.2029 186.722 75.0057 188.07 73.857L212.766 103.285C213.017 103.069 213.273 102.853 213.534 102.642L188.843 73.2089C190.205 72.0786 191.608 70.9985 193.053 69.9686L215.091 101.446C215.363 101.245 215.634 101.055 215.915 100.869L193.877 69.391C195.329 68.3863 196.826 67.4319 198.353 66.5277L217.568 99.8087C217.854 99.6377 218.146 99.4719 218.437 99.3112L199.222 66.0254C200.759 65.1512 202.33 64.3306 203.934 63.5636L220.175 98.4019C220.477 98.2563 220.778 98.1105 221.089 97.9749L204.843 63.1368C206.446 62.3983 208.082 61.7184 209.751 61.0972L222.903 97.2213C223.214 97.1058 223.526 96.9903 223.842 96.8799L210.696 60.7506C212.354 60.1578 214.051 59.6253 215.765 59.1531L225.716 96.2922C226.038 96.1965 226.359 96.1111 226.686 96.031L216.734 58.8918C218.442 58.4447 220.172 58.0612 221.923 57.7414L228.6 95.6088C228.926 95.5436 229.258 95.4884 229.594 95.4381L222.913 57.5656C224.651 57.2742 226.41 57.0447 228.188 56.8772L231.539 95.1817C231.87 95.1467 232.201 95.1165 232.538 95.0964L229.187 56.7919C233.056 56.4856 236.943 56.4856 240.812 56.7919L237.461 95.0964C237.798 95.1165 238.13 95.1467 238.461 95.1817L241.811 56.8772C243.59 57.0431 245.348 57.2725 247.086 57.5656L240.405 95.4381C240.741 95.4884 241.073 95.5436 241.4 95.6088L248.076 57.7414C249.829 58.063 251.559 58.4481 253.265 58.8968L243.314 96.031C243.64 96.1111 243.962 96.1965 244.283 96.2922L254.235 59.1531C255.953 59.6253 257.642 60.1578 259.304 60.7506L246.157 96.8799C246.473 96.9903 246.785 97.1058 247.096 97.2213L260.248 61.0972C261.916 61.72 263.552 62.3999 265.156 63.1368L248.91 97.9749C249.221 98.1105 249.523 98.2563 249.824 98.4019L266.065 63.5636C267.673 64.3272 269.235 65.1563 270.772 66.0354L251.562 99.3112C251.854 99.4719 252.145 99.6377 252.432 99.8087L271.642 66.5378C273.174 67.4368 274.667 68.3878 276.123 69.391L254.084 100.869C254.365 101.055 254.637 101.245 254.908 101.446L276.946 69.9686C278.393 70.9986 279.796 72.0787 281.156 73.2089L256.466 102.642C256.727 102.853 256.983 103.069 257.234 103.285L281.93 73.857C283.276 75.0022 284.577 76.2081 285.838 77.4539L258.676 104.611C258.917 104.842 259.158 105.083 259.389 105.325L286.546 78.1621C287.792 79.4231 288.991 80.7259 290.143 82.0705L260.715 106.766C260.931 107.017 261.147 107.274 261.358 107.535L290.791 82.839C291.921 84.2055 293.001 85.6105 294.031 87.0538L262.559 109.092C262.755 109.363 262.946 109.635 263.132 109.916L294.609 87.8778C295.614 89.3294 296.565 90.823 297.462 92.3587L264.192 111.569C264.362 111.855 264.528 112.146 264.689 112.438L297.965 93.2278C298.844 94.7599 299.673 96.3273 300.436 97.9298L265.598 114.176C265.744 114.477 265.89 114.779 266.025 115.09L300.864 98.8439C301.602 100.447 302.282 102.083 302.903 103.752L266.779 116.904C266.894 117.215 267.01 117.527 267.12 117.843L303.244 104.697C303.842 106.354 304.37 108.047 304.847 109.765L267.708 119.717C267.803 120.038 267.889 120.36 267.969 120.686L305.103 110.735C305.551 112.443 305.936 114.173 306.259 115.924L268.391 122.6C268.456 122.927 268.512 123.258 268.562 123.595L306.435 116.914C306.726 118.652 306.955 120.408 307.123 122.183L268.818 125.539C268.853 125.871 268.884 126.202 268.904 126.539L307.208 123.188C307.364 125.107 307.439 127.041 307.439 129C307.439 130.96 307.364 132.894 307.208 134.813L268.904 131.462C268.884 131.799 268.853 132.13 268.818 132.461L307.123 135.812ZM307.424 116.738L337.721 111.398C338.168 114.04 338.518 116.713 338.771 119.415L308.122 122.098C307.957 120.295 307.72 118.506 307.424 116.738ZM307.249 115.748C306.922 113.97 306.532 112.212 306.078 110.474L335.792 102.511C336.475 105.108 337.06 107.741 337.545 110.408L307.249 115.748ZM305.816 109.504C305.334 107.761 304.792 106.043 304.189 104.35L333.1 93.8305C334.009 96.3575 334.819 98.9278 335.531 101.542L305.816 109.504ZM303.847 103.405C303.214 101.712 302.523 100.05 301.773 98.4172L329.648 85.416C330.779 87.8577 331.813 90.3477 332.753 92.8861L303.847 103.405ZM301.346 97.5078C300.567 95.8801 299.73 94.286 298.834 92.7254L325.474 77.3433C326.815 79.6792 328.066 82.067 329.227 84.5067L301.346 97.5078ZM298.332 91.8564C297.417 90.299 296.449 88.7802 295.428 87.2999L320.621 69.6622C322.158 71.8726 323.608 74.1432 324.971 76.4742L298.332 91.8564ZM294.85 86.4762C293.805 85.0091 292.708 83.5824 291.56 82.1961L315.115 62.4333C316.838 64.5031 318.481 66.6381 320.043 68.8383L294.85 86.4762ZM290.912 81.4274C289.747 80.056 288.521 78.7348 287.26 77.4539L309.001 55.707C310.895 57.621 312.724 59.6051 314.467 61.6597L290.912 81.4274ZM286.546 76.7404C285.265 75.4796 283.944 74.2539 282.573 73.0833L302.335 49.533C304.395 51.276 306.381 53.0979 308.293 54.9986L286.546 76.7404ZM281.804 72.4404C280.418 71.29 278.991 70.1915 277.524 69.145L295.162 43.9568C297.362 45.5191 299.497 47.1618 301.567 48.885L281.804 72.4404ZM276.7 68.5671C275.223 67.5474 273.705 66.5812 272.144 65.6684L287.526 39.0287C289.857 40.3953 292.128 41.8454 294.338 43.3792L276.7 68.5671ZM271.275 65.1612C269.712 64.272 268.12 63.428 266.493 62.6543L279.493 34.7737C281.935 35.9342 284.322 37.1851 286.657 38.5264L271.275 65.1612ZM265.583 62.2275C263.95 61.4789 262.288 60.7873 260.595 60.1526L271.114 31.2474C273.651 32.1866 276.139 33.2214 278.579 34.3518L265.583 62.2275ZM259.65 59.8112C257.962 59.2034 256.239 58.6657 254.496 58.1834L262.458 28.4692C265.071 29.1826 267.641 29.993 270.169 30.9006L259.65 59.8112ZM253.526 57.9222C251.788 57.4701 250.03 57.0799 248.252 56.7516L253.592 26.4549C256.26 26.9371 258.892 27.5215 261.489 28.208L253.526 57.9222ZM247.262 56.576C245.494 56.2795 243.71 56.0435 241.902 55.8777L244.585 25.2289C247.287 25.4753 249.96 25.8253 252.602 26.2791L247.262 56.576ZM240.902 55.7872C238.953 55.6315 236.986 55.5544 235 55.5562C233.01 55.5562 231.043 55.6332 229.097 55.7872L226.419 25.1436C232.13 24.6815 237.869 24.6815 243.58 25.1436L240.902 55.7872ZM228.097 55.8777C226.289 56.0435 224.506 56.2795 222.737 56.576L217.397 26.2791C220.039 25.827 222.712 25.477 225.415 25.2289L228.097 55.8777ZM221.748 56.7516C219.969 57.0784 218.206 57.4701 216.473 57.9222L208.51 28.2031C211.108 27.5197 213.74 26.937 216.408 26.4549L221.748 56.7516ZM215.504 58.1785C213.76 58.6608 212.037 59.2034 210.349 59.8112L199.83 30.9006C202.356 29.9915 204.927 29.1794 207.541 28.4644L215.504 58.1785ZM209.405 60.1526C207.712 60.7857 206.049 61.4773 204.416 62.2275L191.416 34.3518C193.857 33.2215 196.347 32.1867 198.886 31.2474L209.405 60.1526ZM203.507 62.6543C201.88 63.4331 200.284 64.2671 198.72 65.1563L183.343 38.5215C185.673 37.1851 188.061 35.9359 190.506 34.7737L203.507 62.6543ZM197.85 65.6586C196.298 66.5728 194.776 67.5474 193.299 68.5671L175.662 43.3792C177.872 41.842 180.143 40.3902 182.474 39.0238L197.85 65.6586ZM192.475 69.145C191.008 70.1948 189.582 71.2933 188.195 72.4404L168.433 48.885C170.503 47.1618 172.638 45.5191 174.838 43.9568L192.475 69.145ZM187.427 73.0833C186.055 74.2539 184.729 75.4712 183.448 76.7354L161.706 54.9934C163.62 53.0947 165.606 51.2745 167.664 49.533L187.427 73.0833ZM182.735 77.4487C181.474 78.7296 180.253 80.056 179.088 81.4274L155.532 61.6597C157.275 59.6051 159.096 57.6209 160.993 55.707L182.735 77.4487ZM178.44 82.1961C177.289 83.5825 176.191 85.0092 175.144 86.4762L149.956 68.8383C151.519 66.6381 153.161 64.5031 154.884 62.4333L178.44 82.1961ZM174.571 87.2999C173.547 88.7819 172.577 90.2939 171.658 91.8512L145.023 76.4742C146.39 74.1432 147.841 71.8726 149.378 69.6622L174.571 87.2999ZM171.156 92.7202C170.266 94.2828 169.432 95.8786 168.654 97.5078L140.773 84.5067C141.934 82.0654 143.183 79.6776 144.52 77.3433L171.156 92.7202ZM168.227 98.4172C167.478 100.05 166.787 101.713 166.152 103.405L137.247 92.8861C138.186 90.3493 139.221 87.8593 140.351 85.416L168.227 98.4172ZM165.81 104.35C165.208 106.038 164.66 107.761 164.178 109.504L134.464 101.542C135.177 98.9295 135.991 96.3523 136.9 93.8305L165.81 104.35ZM163.921 110.474C163.47 112.207 163.078 113.97 162.751 115.748L132.454 110.408C132.936 107.741 133.519 105.108 134.202 102.511L163.921 110.474ZM162.575 116.738C162.279 118.506 162.043 120.295 161.877 122.098L131.228 119.415C131.479 116.713 131.829 114.04 132.278 111.398L162.575 116.738ZM161.786 123.098C161.636 125.047 161.555 127.016 161.555 129C161.555 130.985 161.631 132.954 161.786 134.903L131.143 137.581C130.912 134.752 130.795 131.892 130.791 129C130.791 126.112 130.908 123.252 131.143 120.42L161.786 123.098ZM161.877 135.903C162.043 137.706 162.279 139.494 162.575 141.258L132.278 146.603C131.831 143.961 131.481 141.288 131.228 138.585L161.877 135.903ZM162.751 142.248C163.078 144.031 163.468 145.791 163.921 147.527L134.207 155.489C133.524 152.892 132.94 150.26 132.454 147.592L162.751 142.248ZM164.183 148.497C164.665 150.24 165.208 151.958 165.81 153.651L136.9 164.17C135.991 161.643 135.18 159.073 134.468 156.459L164.183 148.497ZM166.152 154.59C166.785 156.283 167.476 157.948 168.227 159.584L140.351 172.58C139.221 170.138 138.186 167.65 137.247 165.114L166.152 154.59ZM168.654 160.493C169.433 162.12 170.27 163.715 171.165 165.275L144.526 180.657C143.185 178.321 141.934 175.934 140.773 173.494L168.654 160.493ZM171.668 166.144C172.582 167.697 173.547 169.224 174.571 170.701L149.378 188.339C147.841 186.128 146.391 183.857 145.028 181.526L171.668 166.144ZM175.149 171.525C176.194 172.992 177.291 174.418 178.44 175.805L154.884 195.567C153.161 193.497 151.518 191.362 149.956 189.162L175.149 171.525ZM179.088 176.573C180.253 177.945 181.479 179.266 182.74 180.547L160.998 202.294C159.104 200.38 157.276 198.395 155.532 196.336L179.088 176.573ZM183.453 181.255C184.734 182.521 186.055 183.747 187.427 184.912L167.664 208.467C165.605 206.724 163.62 204.896 161.706 203.002L183.453 181.255ZM188.195 185.56C189.582 186.706 191.008 187.803 192.475 188.851L174.838 214.044C172.638 212.481 170.503 210.839 168.433 209.116L188.195 185.56ZM193.299 189.429C194.776 190.453 196.295 191.421 197.855 192.332L182.474 218.972C180.143 217.606 177.872 216.155 175.662 214.621L193.299 189.429ZM198.725 192.835C200.287 193.724 201.88 194.567 203.507 195.346L190.506 223.222C188.065 222.066 185.679 220.81 183.343 219.474L198.725 192.835ZM204.416 195.773C206.049 196.522 207.712 197.213 209.405 197.848L198.886 226.753C196.348 225.814 193.858 224.779 191.416 223.649L204.416 195.773ZM210.349 198.189C212.042 198.792 213.76 199.335 215.504 199.817L207.541 229.532C204.929 228.818 202.358 228.008 199.83 227.1L210.349 198.189ZM216.473 200.073C218.211 200.53 219.971 200.922 221.753 201.249L216.408 231.546C213.74 231.064 211.107 230.479 208.51 229.793L216.473 200.073ZM222.742 201.42C224.506 201.721 226.291 201.955 228.097 202.123L225.415 232.772C222.712 232.521 220.04 232.171 217.397 231.721L222.742 201.42ZM229.097 202.208C233.026 202.52 236.973 202.52 240.902 202.208L243.58 232.857C237.869 233.319 232.13 233.319 226.419 232.857L229.097 202.208ZM241.902 202.123C243.71 201.952 245.496 201.718 247.257 201.42L252.602 231.721C249.96 232.169 247.287 232.519 244.585 232.772L241.902 202.123ZM248.247 201.249C250.03 200.922 251.79 200.532 253.526 200.079L261.489 229.798C258.891 230.476 256.259 231.059 253.592 231.546L248.247 201.249ZM254.496 199.817C256.239 199.34 257.962 198.792 259.65 198.189L270.169 227.1C267.643 228.009 265.073 228.821 262.458 229.536L254.496 199.817ZM260.595 197.848C262.288 197.215 263.951 196.524 265.583 195.773L278.579 223.649C276.137 224.779 273.649 225.814 271.114 226.753L260.595 197.848ZM266.493 195.346C268.12 194.567 269.716 193.733 271.28 192.844L286.657 219.48C284.321 220.815 281.933 222.063 279.493 223.222L266.493 195.346ZM272.149 192.342C273.706 191.423 275.218 190.453 276.7 189.429L294.338 214.621C292.127 216.159 289.857 217.611 287.526 218.977L272.149 192.342ZM277.524 188.851C278.991 187.806 280.418 186.709 281.804 185.56L301.567 209.116C299.497 210.839 297.362 212.482 295.162 214.044L277.524 188.851ZM282.573 184.912C283.944 183.747 285.27 182.526 286.551 181.265L308.293 203.007C306.379 204.901 304.393 206.721 302.335 208.467L282.573 184.912ZM287.265 180.552C288.526 179.271 289.747 177.945 290.912 176.573L314.467 196.336C312.724 198.395 310.904 200.381 309.007 202.294L287.265 180.552ZM291.56 175.805C292.71 174.418 293.807 172.992 294.85 171.525L320.043 189.162C318.481 191.362 316.838 193.497 315.115 195.567L291.56 175.805ZM295.428 170.701C296.453 169.224 297.422 167.702 298.341 166.15L324.977 181.526C323.61 183.858 322.158 186.128 320.621 188.339L295.428 170.701ZM298.844 165.28C299.733 163.718 300.567 162.122 301.346 160.493L329.227 173.494C328.066 175.93 326.815 178.326 325.479 180.657L298.844 165.28ZM301.773 159.584C302.521 157.951 303.213 156.286 303.847 154.59L332.753 165.114C331.813 167.651 330.779 170.14 329.648 172.58L301.773 159.584ZM304.189 153.651C304.792 151.958 305.339 150.24 305.816 148.497L335.536 156.459C334.823 159.071 334.01 161.642 333.1 164.17L304.189 153.651ZM306.078 147.527C306.53 145.789 306.92 144.029 307.249 142.248L337.545 147.592C337.063 150.26 336.48 152.892 335.797 155.489L306.078 147.527ZM307.424 141.258C307.72 139.494 307.957 137.706 308.122 135.903L338.771 138.585C338.52 141.288 338.17 143.96 337.721 146.603L307.424 141.258ZM308.213 134.903C308.368 132.954 308.446 130.986 308.444 129C308.444 127.016 308.364 125.047 308.213 123.098L338.857 120.42C339.088 123.248 339.205 126.108 339.208 129C339.208 131.889 339.091 134.749 338.857 137.581L308.213 134.903ZM338.711 111.222L369.395 105.812C370.003 109.368 370.48 112.97 370.806 116.612L339.771 119.33C339.519 116.597 339.166 113.895 338.711 111.222ZM338.535 110.232C338.048 107.535 337.457 104.876 336.762 102.255L366.858 94.1871C367.782 97.6837 368.569 101.229 369.219 104.822L338.535 110.232ZM336.5 101.28C335.782 98.6431 334.963 96.0442 334.044 93.4839L363.321 82.829C364.547 86.2299 365.639 89.6928 366.596 93.2177L336.5 101.28ZM333.697 92.5395C332.748 89.9774 331.703 87.4623 330.563 84.9942L358.795 71.8275C360.317 75.1129 361.71 78.4652 362.975 81.8846L333.697 92.5395ZM330.136 84.0848C328.965 81.6133 327.701 79.1987 326.343 76.8409L353.319 61.268C355.123 64.4125 356.806 67.6293 358.368 70.9181L330.136 84.0848ZM325.84 75.9719C324.459 73.6159 322.994 71.3201 321.445 69.0846L346.955 51.2209C349.024 54.1948 350.979 57.2541 352.817 60.3989L325.84 75.9719ZM320.867 68.2607C319.29 66.0403 317.627 63.8751 315.884 61.7853L339.741 41.7716C342.062 44.5546 344.274 47.4315 346.377 50.4021L320.867 68.2607ZM315.236 61.0168C313.472 58.9369 311.631 56.9309 309.71 54.9986L331.733 32.9804C334.285 35.5525 336.738 38.225 339.093 40.9979L315.236 61.0168ZM309.001 54.2853C307.067 52.3713 305.061 50.5309 302.983 48.7643L322.997 24.9076C325.77 27.2536 328.445 29.7067 331.02 32.2671L309.001 54.2853ZM302.215 48.1162C300.12 46.3732 297.961 44.7121 295.739 43.1329L313.598 17.6235C316.567 19.7232 319.444 21.9352 322.228 24.2596L302.215 48.1162ZM294.915 42.5553C292.68 41.0031 290.384 39.5379 288.028 38.1597L303.601 11.1832C306.741 13.0219 309.8 14.9761 312.779 17.0458L294.915 42.5553ZM287.159 37.6524C284.798 36.3009 282.383 35.0383 279.915 33.8647L293.082 5.63227C296.372 7.18961 299.589 8.87247 302.732 10.6808L287.159 37.6524ZM279.006 33.4376C276.54 32.2973 274.023 31.2523 271.456 30.3028L282.116 1.02572C285.531 2.28648 288.884 3.67966 292.172 5.20522L279.006 33.4376ZM270.516 29.9562C267.959 29.0368 265.36 28.2163 262.719 27.4947L270.783 -2.59624C274.304 -1.64182 277.767 -0.550034 281.171 0.679115L270.516 29.9562ZM261.745 27.2384C259.123 26.5452 256.463 25.9542 253.768 25.4652L259.178 -5.21863C262.77 -4.57059 266.315 -3.78354 269.813 -2.85747L261.745 27.2384ZM252.778 25.2893C250.106 24.8323 247.403 24.479 244.67 24.2294L247.388 -6.80592C251.03 -6.47943 254.63 -6.00896 258.188 -5.3945L252.778 25.2893ZM243.67 24.1441C240.812 23.9079 237.922 23.789 235 23.7874C232.081 23.7874 229.191 23.9063 226.329 24.1441L223.616 -6.89152C231.192 -7.51429 238.807 -7.51429 246.383 -6.89152L243.67 24.1441ZM225.329 24.2294C222.596 24.4806 219.894 24.8339 217.222 25.2893L211.811 -5.3945C215.368 -6.00235 218.968 -6.47282 222.612 -6.80592L225.329 24.2294ZM216.232 25.4652C213.534 25.9526 210.873 26.542 208.249 27.2335L200.187 -2.86265C203.683 -3.78688 207.228 -4.5722 210.821 -5.21863L216.232 25.4652ZM207.28 27.4947C204.637 28.2132 202.038 29.0337 199.483 29.9562L188.828 0.679115C192.229 -0.546585 195.7 -1.64182 199.217 -2.60141L207.28 27.4947ZM198.544 30.3028C195.977 31.2523 193.46 32.2973 190.994 33.4376L177.827 5.20522C181.112 3.68319 184.465 2.29002 187.884 1.02572L198.544 30.3028ZM190.084 33.8647C187.618 35.0349 185.196 36.3009 182.84 37.6524L167.267 10.6759C170.407 8.87254 173.624 7.19135 176.917 5.63227L190.084 33.8647ZM181.971 38.1548C179.615 39.5362 177.319 41.0031 175.084 42.5553L157.22 17.0458C160.194 14.9761 163.253 13.0202 166.398 11.1782L181.971 38.1548ZM174.265 43.1329C172.04 44.7104 169.88 46.3715 167.785 48.1162L147.771 24.2596C150.554 21.9386 153.431 19.7266 156.401 17.6235L174.265 43.1329ZM167.016 48.7643C164.941 50.5225 162.934 52.3629 160.993 54.2853L138.974 32.2671C141.552 29.705 144.228 27.2519 147.002 24.9076L167.016 48.7643ZM160.284 54.9934C158.371 56.9275 156.53 58.9353 154.764 61.0168L130.907 40.9979C133.258 38.2249 135.711 35.5508 138.267 32.9755L160.284 54.9934ZM154.116 61.7853C152.372 63.8751 150.71 66.0403 149.132 68.2607L123.623 50.4021C125.722 47.4331 127.934 44.5562 130.259 41.7716L154.116 61.7853ZM148.555 69.0846C147.002 71.3199 145.535 73.6157 144.154 75.9719L117.182 60.3989C119.016 57.2592 120.97 54.1998 123.045 51.2209L148.555 69.0846ZM143.652 76.8409C142.3 79.1969 141.034 81.6182 139.864 84.0848L111.631 70.9181C113.189 67.6278 114.87 64.4111 116.675 61.268L143.652 76.8409ZM139.437 84.9942C138.301 87.4608 137.257 89.9759 136.302 92.5395L107.025 81.8846C108.286 78.4635 109.679 75.1112 111.204 71.8275L139.437 84.9942ZM135.955 93.4839C135.036 96.041 134.216 98.6398 133.494 101.28L103.398 93.2177C104.357 89.6961 105.451 86.2332 106.678 82.829L135.955 93.4839ZM133.233 102.25C132.544 104.872 131.955 107.533 131.465 110.232L100.781 104.822C101.429 101.225 102.214 97.6802 103.137 94.1871L133.233 102.25ZM131.289 111.222C130.837 113.894 130.483 116.597 130.229 119.33L99.1933 116.612C99.5247 112.97 99.9968 109.37 100.61 105.812L131.289 111.222ZM130.143 120.33C129.907 123.188 129.788 126.078 129.786 129C129.786 131.919 129.905 134.809 130.143 137.671L99.1079 140.384C98.7964 136.631 98.6389 132.836 98.6355 129C98.6355 125.167 98.793 121.373 99.1079 117.617L130.143 120.33ZM130.229 138.671C130.48 141.403 130.833 144.106 131.289 146.779L100.61 152.189C99.9968 148.632 99.5246 145.031 99.1933 141.384L130.229 138.671ZM131.465 147.769C131.952 150.466 132.549 153.123 133.238 155.746L103.142 163.813C102.217 160.317 101.43 156.772 100.781 153.179L131.465 147.769ZM133.499 156.715C134.217 159.357 135.036 161.956 135.955 164.512L106.678 175.172C105.453 171.766 104.361 168.303 103.403 164.783L133.499 156.715ZM136.302 165.456C137.252 168.018 138.296 170.535 139.437 173.006L111.204 186.173C109.682 182.888 108.289 179.534 107.025 176.111L136.302 165.456ZM139.864 173.916C141.034 176.387 142.299 178.802 143.657 181.16L116.68 196.733C114.877 193.588 113.194 190.371 111.631 187.083L139.864 173.916ZM144.159 182.029C145.54 184.38 147.006 186.676 148.555 188.916L123.045 206.78C120.975 203.806 119.021 200.747 117.182 197.602L144.159 182.029ZM149.132 189.735C150.71 191.96 152.371 194.12 154.116 196.215L130.259 216.229C127.938 213.446 125.726 210.569 123.623 207.599L149.132 189.735ZM154.764 196.984C156.527 199.059 158.369 201.065 160.29 203.002L138.271 225.02C135.715 222.443 133.26 219.769 130.907 216.998L154.764 196.984ZM160.998 203.71C162.932 205.63 164.938 207.471 167.016 209.236L147.002 233.093C144.229 230.742 141.555 228.287 138.98 225.729L160.998 203.71ZM167.785 209.884C169.88 211.622 172.04 213.29 174.265 214.868L156.401 240.377C153.432 238.278 150.556 236.064 147.771 233.736L167.785 209.884ZM175.084 215.445C177.319 216.998 179.615 218.463 181.971 219.841L166.398 246.812C163.259 244.979 160.199 243.027 157.22 240.955L175.084 215.445ZM182.84 220.343C185.201 221.695 187.613 222.966 190.084 224.136L176.917 252.369C173.627 250.811 170.41 249.128 167.267 247.32L182.84 220.343ZM190.994 224.558C193.46 225.699 195.976 226.745 198.544 227.698L187.884 256.975C184.463 255.709 181.111 254.314 177.827 252.79L190.994 224.558ZM199.483 228.045C202.04 228.964 204.639 229.783 207.28 230.501L199.217 260.597C195.695 259.637 192.233 258.546 188.828 257.321L199.483 228.045ZM208.254 230.762C210.877 231.45 213.534 232.048 216.232 232.535L210.821 263.219C207.229 262.571 203.684 261.784 200.187 260.858L208.254 230.762ZM217.222 232.711C219.894 233.163 222.596 233.517 225.329 233.771L222.612 264.807C218.969 264.475 215.369 264.003 211.811 263.39L217.222 232.711ZM226.329 233.857C232.1 234.324 237.899 234.324 243.67 233.857L246.383 264.892C238.807 265.515 231.192 265.515 223.616 264.892L226.329 233.857ZM244.67 233.771C247.403 233.52 250.106 233.167 252.778 232.711L258.188 263.39C254.632 264.003 251.032 264.475 247.388 264.807L244.67 233.771ZM253.768 232.535C256.466 232.048 259.126 231.459 261.75 230.767L269.813 260.863C266.316 261.788 262.771 262.573 259.178 263.219L253.768 232.535ZM262.719 230.506C265.362 229.783 267.961 228.962 270.516 228.045L281.171 257.321C277.77 258.547 274.299 259.642 270.783 260.602L262.719 230.506ZM271.456 227.698C274.022 226.748 276.539 225.702 279.006 224.558L292.172 252.795C288.882 254.318 285.53 255.711 282.116 256.975L271.456 227.698ZM279.915 224.136C282.382 222.966 284.803 221.7 287.159 220.348L302.732 247.325C299.592 249.128 296.376 250.809 293.082 252.369L279.915 224.136ZM288.028 219.846C290.384 218.465 292.68 216.996 294.915 215.441L312.779 240.955C309.805 243.024 306.746 244.979 303.601 246.818L288.028 219.846ZM295.735 214.863C297.96 213.285 300.12 211.626 302.215 209.884L322.228 233.736C319.44 236.062 316.564 238.276 313.598 240.377L295.735 214.863ZM302.983 209.236C305.058 207.473 307.066 205.633 309.007 203.715L331.025 225.733C328.447 228.291 325.772 230.744 322.997 233.093L302.983 209.236ZM309.715 203.002C311.629 201.068 313.469 199.062 315.236 196.984L339.093 216.998C336.742 219.77 334.288 222.446 331.733 225.026L309.715 203.002ZM315.884 196.215C317.627 194.12 319.288 191.96 320.867 189.735L346.377 207.599C344.277 210.563 342.065 213.44 339.741 216.229L315.884 196.215ZM321.445 188.916C322.997 186.681 324.464 184.385 325.845 182.029L352.817 197.602C350.983 200.741 349.029 203.801 346.955 206.78L321.445 188.916ZM326.348 181.16C327.699 178.804 328.965 176.383 330.136 173.916L358.368 187.083C356.811 190.373 355.13 193.59 353.324 196.733L326.348 181.16ZM330.563 173.006C331.698 170.54 332.743 168.023 333.697 165.456L362.975 176.116C361.714 179.532 360.32 182.884 358.795 186.173L330.563 173.006ZM334.044 164.512C334.963 161.96 335.784 159.363 336.505 156.72L366.601 164.783C365.642 168.299 364.547 171.771 363.321 175.172L334.044 164.512ZM336.767 155.751C337.455 153.123 338.044 150.462 338.535 147.769L369.219 153.179C368.571 156.776 367.785 160.321 366.863 163.813L336.767 155.751ZM338.711 146.779C339.163 144.106 339.516 141.404 339.771 138.671L370.806 141.384C370.48 145.031 370.003 148.632 369.395 152.189L338.711 146.779ZM339.856 137.671C340.092 134.813 340.211 131.923 340.213 129C340.213 126.081 340.094 123.191 339.856 120.33L370.892 117.617C371.203 121.37 371.361 125.164 371.364 129C371.364 132.833 371.206 136.628 370.892 140.384L339.856 137.671ZM400.892 99.2408L370.229 104.646C369.586 101.029 368.799 97.4525 367.868 93.916L397.923 85.8632C399.084 90.2539 400.084 94.7148 400.892 99.2408ZM397.662 84.8936L367.611 92.9464C366.652 89.4047 365.555 85.9117 364.321 82.4674L393.538 71.8324C395.085 76.1075 396.46 80.4612 397.662 84.8936ZM393.196 70.888L363.979 81.5228C362.714 78.0819 361.312 74.6977 359.774 71.3702L387.937 58.2389C389.855 62.3681 391.609 66.5844 393.196 70.888ZM387.509 57.3296L359.348 70.4609C357.785 67.1505 356.089 63.9053 354.259 60.7254L381.165 45.1926C383.436 49.141 385.551 53.1867 387.509 57.3296ZM380.662 44.3236L353.757 59.8563C351.913 56.7016 349.94 53.6172 347.839 50.603L373.288 32.7844C375.895 36.5221 378.353 40.3685 380.662 44.3236ZM372.71 31.9607L347.261 49.7791C345.151 46.8051 342.917 43.9066 340.559 41.0833L364.361 21.1098C367.285 24.6062 370.068 28.2231 372.71 31.9607ZM363.718 20.3362L339.911 40.3148C337.556 37.5366 335.079 34.8406 332.482 32.2268L354.46 10.254C357.675 13.4891 360.761 16.8498 363.718 20.3362ZM343.659 0.282249C347.145 3.23112 350.508 6.31718 353.746 9.54047L331.773 31.5185C329.161 28.9265 326.465 26.4499 323.685 24.0889L343.659 0.282249ZM332.039 -8.70984C335.767 -6.07248 339.384 -3.28951 342.89 -0.360916L322.917 23.4408C320.099 21.0845 317.2 18.8507 314.221 16.7392L332.039 -8.70984ZM319.676 -16.6622C323.625 -14.3565 327.472 -11.8983 331.216 -9.28774L313.397 16.1616C310.388 14.0567 307.304 12.0842 304.144 10.244L319.676 -16.6622ZM306.671 -23.5092C310.815 -21.5552 314.861 -19.4403 318.808 -17.1645L303.275 9.74163C300.095 7.91296 296.85 6.21661 293.539 4.65258L306.671 -23.5092ZM293.112 -29.196C297.412 -27.6136 301.629 -25.8604 305.762 -23.9362L292.63 4.22578C289.304 2.68852 285.92 1.28693 282.477 0.0210114L293.112 -29.196ZM279.106 -33.662C283.532 -32.4613 287.886 -31.0882 292.168 -29.5426L281.533 -0.320679C278.092 -1.55647 274.599 -2.65324 271.053 -3.61099L279.106 -33.662ZM264.759 -36.892C269.285 -36.0833 273.745 -35.0937 278.137 -33.9232L270.079 -3.86736C266.547 -4.79651 262.972 -5.58347 259.354 -6.22826L264.759 -36.892ZM250.191 -38.8462C254.767 -38.4343 259.304 -37.8363 263.769 -37.063L258.364 -6.40414C254.767 -7.01712 251.137 -7.48766 247.473 -7.81576L250.191 -38.8462ZM249.186 -38.9316L246.473 -7.90115C238.837 -8.52417 231.162 -8.52417 223.526 -7.90115L220.813 -38.9316C230.255 -39.7152 239.745 -39.7152 249.186 -38.9316ZM219.808 -38.8462L222.526 -7.81576C218.864 -7.48415 215.234 -7.01362 211.635 -6.40414L206.23 -37.063C210.696 -37.8363 215.232 -38.4343 219.808 -38.8462ZM205.24 -36.892L210.645 -6.22826C207.029 -5.58534 203.452 -4.80001 199.915 -3.87223L191.863 -33.9281C196.253 -35.0935 200.712 -36.0814 205.24 -36.892ZM190.893 -33.6669L198.946 -3.61099C195.404 -2.65657 191.911 -1.5598 188.467 -0.320679L177.832 -29.5426C182.107 -31.0847 186.461 -32.4595 190.893 -33.6669ZM176.887 -29.196L187.522 0.0210114C184.081 1.28695 180.697 2.68854 177.37 4.22578L164.238 -23.9362C168.368 -25.8554 172.584 -27.6086 176.887 -29.196ZM163.329 -23.5092L176.46 4.65258C173.15 6.21505 169.905 7.90967 166.725 9.73645L151.192 -17.1697C155.135 -19.4403 159.181 -21.5535 163.329 -23.5092ZM150.323 -16.6622L165.856 10.2388C162.701 12.0824 159.616 14.0566 156.602 16.1616L138.784 -9.28774C142.521 -11.895 146.368 -14.3531 150.323 -16.6622ZM137.96 -8.70984L155.778 16.7392C152.804 18.8492 149.906 21.0831 147.083 23.4408L127.109 -0.360916C130.606 -3.28452 134.223 -6.06749 137.96 -8.70984ZM126.341 0.282249L146.314 24.0889C143.536 26.4449 140.84 28.9198 138.226 31.5135L116.248 9.53555C119.483 6.32054 122.847 3.23611 126.341 0.282249ZM115.54 10.2488L137.518 32.2268C134.921 34.8392 132.444 37.5352 130.088 40.3148L106.281 20.3362C109.23 16.8548 112.316 13.4923 115.54 10.2488ZM105.639 21.1098L129.44 41.0833C127.084 43.9017 124.85 46.8003 122.739 49.7791L97.2893 31.9607C99.9267 28.2282 102.71 24.6112 105.639 21.1098ZM96.7117 32.7844L122.161 50.603C120.061 53.6119 118.087 56.6964 116.238 59.8563L89.337 44.3236C91.6428 40.37 94.101 36.5236 96.7117 32.7844ZM88.8346 45.1926L115.736 60.7254C113.907 63.9053 112.213 67.1505 110.652 70.4609L82.49 57.3296C84.439 53.1901 86.5539 49.1444 88.8346 45.1926ZM82.0629 58.2389L110.225 71.3702C108.688 74.6959 107.286 78.0801 106.02 81.5228L76.8032 70.888C78.3907 66.5878 80.144 62.3714 82.0629 58.2389ZM76.4617 71.8324L105.678 82.4674C104.443 85.9083 103.346 89.4013 102.388 92.9464L72.3323 84.8936C73.5329 80.4629 74.9094 76.1091 76.4617 71.8324ZM72.071 85.8632L102.127 93.916C101.203 97.4475 100.417 101.024 99.7709 104.646L69.1072 99.2408C69.9159 94.7148 70.9039 90.2556 72.071 85.8632ZM68.9364 100.231L99.6002 105.636C98.9872 109.233 98.515 112.863 98.1834 116.527L67.1581 113.809C67.5651 109.228 68.1578 104.702 68.9364 100.231ZM66.4747 129C66.4747 124.223 66.6724 119.494 67.0676 114.814L98.0981 117.527C97.7865 121.324 97.6307 125.149 97.6308 129C97.6308 132.853 97.7865 136.678 98.0981 140.474L67.0676 143.187C66.6758 138.51 66.4782 133.781 66.4747 129ZM67.1581 144.186L98.1834 141.474C98.515 145.136 98.9873 148.766 99.6002 152.365L68.9364 157.77C68.1628 153.304 67.57 148.776 67.1581 144.186ZM69.1072 158.76L99.7709 153.354C100.414 156.971 101.201 160.546 102.132 164.08L72.0761 172.138C70.9105 167.742 69.9209 163.283 69.1072 158.76ZM72.3374 173.107L102.388 165.054C103.348 168.596 104.444 172.089 105.678 175.533L76.4617 186.168C74.9144 181.893 73.5396 177.54 72.3374 173.107ZM76.8032 187.113L106.02 176.478C107.286 179.919 108.688 183.302 110.225 186.625L82.0629 199.762C80.144 195.632 78.3908 191.416 76.8032 187.113ZM82.49 200.671L110.652 187.54C112.214 190.845 113.91 194.091 115.741 197.275L88.8346 212.808C86.564 208.859 84.4491 204.814 82.49 200.671ZM89.337 213.677L116.243 198.144C118.086 201.299 120.059 204.384 122.161 207.398L96.7117 225.216C94.1042 221.479 91.646 217.632 89.337 213.677ZM97.2893 226.04L122.739 208.216C124.849 211.191 127.082 214.091 129.44 216.917L105.639 236.891C102.715 233.394 99.9316 229.777 97.2893 226.04ZM106.281 237.659L130.088 217.686C132.444 220.464 134.92 223.158 137.518 225.769L115.54 247.747C112.325 244.511 109.238 241.149 106.281 237.659ZM126.341 257.713C122.849 254.77 119.487 251.685 116.253 248.46L138.231 226.482C140.838 229.074 143.532 231.551 146.314 233.912L126.341 257.713ZM137.96 266.711C134.232 264.073 130.616 261.29 127.109 258.361L147.083 234.555C149.901 236.916 152.799 239.152 155.778 241.261L137.96 266.711ZM150.323 274.658C146.374 272.357 142.528 269.901 138.784 267.289L156.602 241.839C159.617 243.939 162.701 245.912 165.856 247.757L150.323 274.658ZM163.329 281.51C159.184 279.556 155.139 277.441 151.192 275.165L166.725 248.259C169.905 250.088 173.15 251.784 176.46 253.348L163.329 281.51ZM176.887 287.197C172.587 285.609 168.371 283.856 164.238 281.937L177.37 253.775C180.695 255.312 184.08 256.714 187.522 257.98L176.887 287.197ZM190.893 291.663C186.467 290.462 182.113 289.087 177.832 287.538L188.467 258.321C191.908 259.557 195.401 260.652 198.946 261.607L190.893 291.663ZM205.24 294.893C200.714 294.084 196.258 293.084 191.863 291.924L199.92 261.868C203.452 262.792 207.027 263.579 210.645 264.229L205.24 294.893ZM219.808 296.842C215.232 296.435 210.696 295.837 206.23 295.064L211.635 264.4C215.232 265.013 218.863 265.483 222.526 265.811L219.808 296.842ZM220.813 296.932L223.526 265.897C231.162 266.525 238.837 266.525 246.473 265.897L249.186 296.932C239.745 297.716 230.255 297.716 220.813 296.932ZM250.191 296.842L247.473 265.811C251.135 265.485 254.766 265.014 258.364 264.4L263.769 295.064C259.304 295.837 254.767 296.435 250.191 296.842ZM264.759 294.893L259.354 264.229C262.971 263.586 266.547 262.801 270.084 261.873L278.137 291.929C273.746 293.095 269.287 294.082 264.759 294.893ZM279.106 291.667L271.053 261.612C274.595 260.657 278.089 259.561 281.533 258.321L292.168 287.538C287.893 289.086 283.539 290.462 279.106 291.667ZM293.112 287.197L282.477 257.98C285.919 256.714 289.303 255.312 292.63 253.775L305.762 281.937C301.632 283.856 297.415 285.609 293.112 287.197ZM306.671 281.51L293.539 253.348C296.845 251.786 300.09 250.091 303.275 248.264L318.808 275.165C314.864 277.441 310.819 279.556 306.671 281.51ZM319.676 274.663L304.144 247.757C307.299 245.913 310.383 243.94 313.397 241.839L331.216 267.289C327.478 269.896 323.632 272.354 319.676 274.663ZM332.039 266.711L314.221 241.261C317.195 239.151 320.094 236.916 322.917 234.555L342.89 258.361C339.394 261.285 335.777 264.068 332.039 266.711ZM343.659 257.713L323.685 233.912C326.464 231.556 329.159 229.08 331.773 226.482L353.751 248.46C350.516 251.68 347.152 254.765 343.659 257.713V257.713ZM354.46 247.752L332.482 225.774C335.079 223.161 337.555 220.465 339.911 217.686L363.718 237.659C360.769 241.146 357.683 244.51 354.46 247.752ZM364.361 236.891L340.559 216.917C342.916 214.099 345.149 211.199 347.261 208.216L372.71 226.04C370.073 229.768 367.29 233.384 364.361 236.891V236.891ZM373.288 225.216L347.839 207.398C349.938 204.383 351.913 201.299 353.761 198.144L380.662 213.677C378.357 217.631 375.899 221.477 373.288 225.216ZM381.165 212.808L354.264 197.275C356.092 194.095 357.787 190.85 359.348 187.54L387.509 200.671C385.56 204.811 383.445 208.856 381.165 212.808ZM387.937 199.762L359.774 186.625C361.312 183.3 362.714 179.917 363.979 176.478L393.196 187.113C391.609 191.413 389.856 195.63 387.937 199.762ZM393.538 186.168L364.321 175.533C365.556 172.092 366.653 168.599 367.611 165.054L397.667 173.107C396.466 177.538 395.09 181.892 393.538 186.168ZM397.928 172.138L367.872 164.085C368.797 160.548 369.582 156.971 370.229 153.354L400.892 158.76C400.084 163.286 399.095 167.745 397.928 172.138ZM401.063 157.77L370.399 152.365C371.012 148.768 371.484 145.138 371.816 141.474L402.842 144.186C402.434 148.768 401.842 153.296 401.063 157.77ZM402.932 143.187L371.901 140.474C372.213 136.676 372.368 132.852 372.369 129C372.369 125.147 372.213 121.323 371.901 117.527L402.932 114.814C403.324 119.486 403.52 124.215 403.52 129C403.52 133.773 403.324 138.502 402.932 143.187Z" fill="url(#paint3_radial_5635_27643)" />
            <path d="M234.999 345.456C181.509 345.391 129.95 325.46 90.3232 289.531C50.6964 253.601 25.8269 204.235 20.5389 151.006C15.251 97.7783 29.9214 44.4834 61.7046 1.45978C93.4878 -41.5638 140.118 -71.249 192.55 -81.8374C244.981 -92.4259 299.477 -83.1627 345.466 -55.8449C391.454 -28.5271 425.657 14.898 441.439 66.0068C457.222 117.116 453.459 172.265 430.881 220.756C408.303 269.247 368.519 307.625 319.246 328.443C292.595 339.725 263.94 345.512 234.999 345.456ZM234.999 -86.4518C116.199 -86.4518 19.5475 10.1994 19.5475 128.999C19.5475 247.8 116.199 344.451 234.999 344.451C353.8 344.451 450.451 247.8 450.451 128.999C450.451 10.1993 353.8 -86.4518 234.999 -86.4518Z" fill="url(#paint4_radial_5635_27643)" />
            <path d="M235 164.248C228.028 164.248 221.213 162.181 215.417 158.308C209.62 154.434 205.102 148.929 202.434 142.488C199.766 136.048 199.068 128.96 200.428 122.123C201.788 115.285 205.145 109.004 210.075 104.075C215.005 99.1452 221.285 95.7881 228.123 94.428C234.961 93.0679 242.048 93.766 248.489 96.4339C254.93 99.1018 260.435 103.62 264.308 109.416C268.181 115.213 270.248 122.028 270.248 128.999C270.238 138.345 266.521 147.304 259.913 153.912C253.304 160.52 244.345 164.238 235 164.248ZM235 95.7601C228.426 95.7601 221.999 97.7096 216.533 101.362C211.067 105.014 206.806 110.206 204.291 116.279C201.775 122.353 201.116 129.036 202.399 135.484C203.682 141.932 206.847 147.855 211.496 152.503C216.145 157.152 222.067 160.317 228.515 161.6C234.963 162.883 241.646 162.224 247.72 159.708C253.793 157.193 258.985 152.932 262.637 147.466C266.289 142 268.239 135.573 268.239 128.999C268.229 120.187 264.724 111.738 258.492 105.507C252.261 99.2753 243.812 95.7701 235 95.7601Z" fill="white" />
            <path d="M424.705 -6.27972L233.845 127.349L236.149 130.641L427.01 -2.98791L424.705 -6.27972Z" fill="url(#paint5_radial_5635_27643)" />
            <path d="M234.999 133.774C237.637 133.774 239.774 131.637 239.774 128.999C239.774 126.362 237.637 124.225 234.999 124.225C232.362 124.225 230.225 126.362 230.225 128.999C230.225 131.637 232.362 133.774 234.999 133.774Z" fill="white" />
            <path d="M236.005 -103.991H233.995V361.991H236.005V-103.991Z" fill="white" />
            <path d="M235 364C180.787 363.962 128.254 345.186 86.2987 310.853C44.3433 276.52 15.5451 228.74 4.78201 175.606C-5.98105 122.473 1.95272 67.252 27.2395 19.2978C52.5262 -28.6564 93.6114 -66.396 143.536 -87.5286C200.952 -111.728 265.628 -112.14 323.348 -88.6755C381.069 -65.2105 427.111 -19.7881 451.356 37.6089C475.602 95.006 476.066 159.681 452.647 217.42C429.228 275.159 383.842 321.238 326.464 345.529C297.53 357.778 266.42 364.06 235 364ZM235 -101.981C107.637 -101.981 4.01883 1.6363 4.01883 128.999C4.01883 256.363 107.637 359.981 235 359.981C362.364 359.981 465.981 256.363 465.981 128.999C465.981 1.6363 362.364 -101.981 235 -101.981Z" fill="url(#paint6_radial_5635_27643)" />
            <g style="mix-blend-mode:color-dodge">
                <path fill-rule="evenodd" clip-rule="evenodd" d="M235 128.999L425.864 -4.6334C404.375 -35.3121 375.808 -60.36 342.584 -77.6554C309.36 -94.9508 272.456 -103.984 235 -103.991V128.999Z" fill="url(#paint7_linear_5635_27643)" />
            </g>
        </g>
    </g>
    <defs>
        <radialGradient id="paint0_radial_5635_27643" cx="0" cy="0" r="1" gradientUnits="userSpaceOnUse" gradientTransform="translate(330.432 12.5043) rotate(90) scale(116.495 95.4322)">
            <stop stop-color="white" />
            <stop offset="1" stop-color="white" stop-opacity="0" />
        </radialGradient>
        <radialGradient id="paint1_radial_5635_27643" cx="0" cy="0" r="1" gradientUnits="userSpaceOnUse" gradientTransform="translate(235.244 129.502) rotate(90) scale(200.79 200.668)">
            <stop stop-color="white" />
            <stop offset="1" stop-color="white" stop-opacity="0" />
        </radialGradient>
        <radialGradient id="paint2_radial_5635_27643" cx="0" cy="0" r="1" gradientUnits="userSpaceOnUse" gradientTransform="translate(235 128.999) rotate(179.681) scale(179.503 41626.6)">
            <stop stop-color="white" />
            <stop offset="1" stop-color="white" stop-opacity="0" />
        </radialGradient>
        <radialGradient id="paint3_radial_5635_27643" cx="0" cy="0" r="1" gradientUnits="userSpaceOnUse" gradientTransform="translate(235 129) rotate(90) scale(232.148 232.148)">
            <stop stop-color="white" />
            <stop offset="1" stop-color="white" stop-opacity="0" />
        </radialGradient>
        <radialGradient id="paint4_radial_5635_27643" cx="0" cy="0" r="1" gradientUnits="userSpaceOnUse" gradientTransform="translate(235.264 129.502) rotate(90) scale(215.954 215.782)">
            <stop stop-color="white" />
            <stop offset="1" stop-color="white" stop-opacity="0" />
        </radialGradient>
        <radialGradient id="paint5_radial_5635_27643" cx="0" cy="0" r="1" gradientUnits="userSpaceOnUse" gradientTransform="translate(330.427 62.1807) rotate(55.0025) scale(2.00922 116.495)">
            <stop stop-color="white" />
            <stop offset="1" stop-color="white" stop-opacity="0" />
        </radialGradient>
        <radialGradient id="paint6_radial_5635_27643" cx="0" cy="0" r="1" gradientUnits="userSpaceOnUse" gradientTransform="translate(234.992 129.01) rotate(90) scale(234.991 234.89)">
            <stop stop-color="white" />
            <stop offset="1" stop-color="white" stop-opacity="0" />
        </radialGradient>
        <linearGradient id="paint7_linear_5635_27643" x1="277.5" y1="83" x2="235" y2="61" gradientUnits="userSpaceOnUse">
            <stop stop-color="white" />
            <stop offset="1" stop-color="white" stop-opacity="0" />
        </linearGradient>
        <clipPath id="clip0_5635_27643">
            <rect width="470" height="470" fill="white" transform="translate(0 -106)" />
        </clipPath>
    </defs>
</svg>