<svg width="15" height="15" viewBox="0 0 15 15" fill="none" xmlns="http://www.w3.org/2000/svg">
<path d="M11.6667 8.6666C11.4899 8.6666 11.3203 8.73684 11.1953 8.86186C11.0703 8.98689 11 9.15645 11 9.33327V9.5866L10.0134 8.59993C9.66499 8.25429 9.19413 8.06035 8.70337 8.06035C8.21262 8.06035 7.74176 8.25429 7.39337 8.59993L6.92671 9.0666L5.27337 7.41326C4.92012 7.077 4.45109 6.88946 3.96337 6.88946C3.47566 6.88946 3.00663 7.077 2.65337 7.41326L1.66671 8.39993V4.6666C1.66671 4.48979 1.73695 4.32022 1.86197 4.19519C1.98699 4.07017 2.15656 3.99993 2.33337 3.99993H7.00004C7.17685 3.99993 7.34642 3.92969 7.47145 3.80467C7.59647 3.67964 7.66671 3.51008 7.66671 3.33326C7.66671 3.15645 7.59647 2.98688 7.47145 2.86186C7.34642 2.73684 7.17685 2.6666 7.00004 2.6666H2.33337C1.80294 2.6666 1.29423 2.87731 0.919161 3.25238C0.544088 3.62746 0.333374 4.13616 0.333374 4.6666V12.6666C0.333374 13.197 0.544088 13.7057 0.919161 14.0808C1.29423 14.4559 1.80294 14.6666 2.33337 14.6666H10.3334C10.8638 14.6666 11.3725 14.4559 11.7476 14.0808C12.1227 13.7057 12.3334 13.197 12.3334 12.6666V9.33327C12.3334 9.15645 12.2631 8.98689 12.1381 8.86186C12.0131 8.73684 11.8435 8.6666 11.6667 8.6666ZM2.33337 13.3333C2.15656 13.3333 1.98699 13.263 1.86197 13.138C1.73695 13.013 1.66671 12.8434 1.66671 12.6666V10.2866L3.60004 8.35326C3.69798 8.25993 3.82808 8.20787 3.96337 8.20787C4.09866 8.20787 4.22877 8.25993 4.32671 8.35326L6.44004 10.4666L9.30671 13.3333H2.33337ZM11 12.6666C10.9991 12.7942 10.957 12.9181 10.88 13.0199L7.87337 9.99993L8.34004 9.53327C8.38784 9.48448 8.44489 9.44573 8.50785 9.41927C8.57081 9.39282 8.63841 9.37919 8.70671 9.37919C8.775 9.37919 8.84261 9.39282 8.90557 9.41927C8.96853 9.44573 9.02558 9.48448 9.07337 9.53327L11 11.4733V12.6666ZM14.14 2.85993L12.14 0.859931C12.0766 0.799237 12.0019 0.75166 11.92 0.719931C11.7577 0.653252 11.5757 0.653252 11.4134 0.719931C11.3315 0.75166 11.2568 0.799237 11.1934 0.859931L9.19337 2.85993C9.13122 2.92209 9.08191 2.99588 9.04827 3.0771C9.01463 3.15831 8.99731 3.24536 8.99731 3.33326C8.99731 3.5108 9.06784 3.68106 9.19337 3.8066C9.31891 3.93213 9.48917 4.00266 9.66671 4.00266C9.84424 4.00266 10.0145 3.93213 10.14 3.8066L11 2.93993V6.6666C11 6.84341 11.0703 7.01298 11.1953 7.138C11.3203 7.26303 11.4899 7.33326 11.6667 7.33326C11.8435 7.33326 12.0131 7.26303 12.1381 7.138C12.2631 7.01298 12.3334 6.84341 12.3334 6.6666V2.93993L13.1934 3.8066C13.2554 3.86908 13.3291 3.91868 13.4103 3.95253C13.4916 3.98637 13.5787 4.0038 13.6667 4.0038C13.7547 4.0038 13.8419 3.98637 13.9231 3.95253C14.0043 3.91868 14.0781 3.86908 14.14 3.8066C14.2025 3.74462 14.2521 3.67089 14.286 3.58965C14.3198 3.50841 14.3372 3.42127 14.3372 3.33326C14.3372 3.24526 14.3198 3.15812 14.286 3.07688C14.2521 2.99564 14.2025 2.92191 14.14 2.85993Z" fill="#2196F3"/>
</svg>
