<svg width="24" height="24" viewBox="0 0 24 24" fill="none" xmlns="http://www.w3.org/2000/svg">
    <g clip-path="url(#clip0_5898_8644)">
        <path d="M9.74507 3.89234L0.353166 20.1065C0.124601 20.5011 0.00427157 20.9487 0.00427246 21.4043C0.00427335 21.86 0.124604 22.3076 0.353171 22.7022C0.581739 23.0968 0.910488 23.4244 1.30638 23.6522C1.70227 23.8801 2.15135 24 2.60848 24H21.3923C21.8494 24 22.2985 23.8801 22.6944 23.6522C23.0903 23.4244 23.419 23.0968 23.6476 22.7022C23.8762 22.3076 23.9965 21.8599 23.9965 21.4043C23.9965 20.9487 23.8762 20.501 23.6476 20.1064L14.2557 3.89234C14.0271 3.49774 13.6984 3.17006 13.3025 2.94224C12.9066 2.71442 12.4575 2.59448 12.0004 2.59448C11.5432 2.59448 11.0942 2.71442 10.6983 2.94224C10.3024 3.17006 9.97363 3.49774 9.74507 3.89234Z" fill="url(#paint0_linear_5898_8644)" />
        <path d="M2.71876 22.0567C2.79059 22.4628 2.96839 22.8428 3.23428 23.1587C3.50018 23.4745 3.8448 23.715 4.23351 23.856C4.62222 23.997 5.04132 24.0336 5.44869 23.962C5.85607 23.8904 6.23736 23.7132 6.55424 23.4482L17.8405 14.0088C18.1574 13.7438 18.3987 13.4003 18.5402 13.0129C18.6816 12.6254 18.7183 12.2077 18.6465 11.8017C18.5746 11.3956 18.3969 11.0156 18.131 10.6997C17.8651 10.3839 17.5204 10.1434 17.1317 10.0024L8.09188 6.7229L1.89783 17.4162L2.71876 22.0567Z" fill="url(#paint1_linear_5898_8644)" />
        <path d="M1.90779 17.4211L8.10184 6.72775L3.29703 4.98467C2.90832 4.84365 2.48922 4.80711 2.08185 4.8787C1.67447 4.9503 1.29319 5.12751 0.976306 5.39253C0.659426 5.65755 0.41812 6.00105 0.27664 6.38849C0.13516 6.77592 0.0984921 7.19365 0.170322 7.59969L1.90779 17.4211Z" fill="url(#paint2_linear_5898_8644)" />
        <path opacity="0.3" d="M10.7283 2.97445L10.7283 2.97444C11.3241 2.63161 12.0321 2.53871 12.6965 2.71616C13.361 2.89362 13.9275 3.3269 14.2715 3.92069L23.6519 20.1145C23.9959 20.7083 24.0891 21.4139 23.9111 22.0762C23.733 22.7385 23.2983 23.3032 22.7026 23.646C22.4076 23.8158 22.0819 23.9259 21.7442 23.9703C21.4065 24.0146 21.0634 23.9922 20.7344 23.9043C20.4053 23.8164 20.0969 23.6648 19.8267 23.4581C19.5564 23.2515 19.3297 22.9938 19.1594 22.6998L9.77896 6.50598C9.435 5.91219 9.34179 5.20653 9.51983 4.54424C9.69787 3.88195 10.1326 3.31727 10.7283 2.97444L10.7283 2.97445Z" fill="#FFE088" />
    </g>
    <defs>
        <linearGradient id="paint0_linear_5898_8644" x1="11.612" y1="2.36864" x2="12.0917" y2="26.0311" gradientUnits="userSpaceOnUse">
            <stop offset="0.01446" stop-color="#F4CE57" />
            <stop offset="0.50159" stop-color="#F4BC51" />
            <stop offset="0.91441" stop-color="#F4B24E" />
        </linearGradient>
        <linearGradient id="paint1_linear_5898_8644" x1="5.60054" y1="8.15657" x2="12.4669" y2="20.0885" gradientUnits="userSpaceOnUse">
            <stop offset="0.01444" stop-color="#F4B351" />
            <stop offset="1" stop-color="#F49035" />
        </linearGradient>
        <linearGradient id="paint2_linear_5898_8644" x1="0.998691" y1="6.96386" x2="5.28295" y2="12.4652" gradientUnits="userSpaceOnUse">
            <stop offset="0.01444" stop-color="#6673F7" />
            <stop offset="1" stop-color="#5163ED" />
        </linearGradient>
        <clipPath id="clip0_5898_8644">
            <rect width="24" height="24" fill="white" />
        </clipPath>
    </defs>
</svg>