<svg width="101" height="26" viewBox="0 0 101 26" fill="none" xmlns="http://www.w3.org/2000/svg">
<g clip-path="url(#clip0_5021_1542)">
<path d="M35.09 12.5614C35.09 6.24903 27.2356 1.10352 17.5459 1.10352C7.85667 1.10352 0.00226421 6.24903 0.00226421 12.5614C0.00226421 12.7242 0 13.1748 0 13.2322C0 19.9285 6.8654 25.3524 17.5434 25.3524C28.2879 25.3524 35.09 19.93 35.09 13.2335V12.5614Z" fill="#002E6D"/>
<path d="M34.4183 12.5557C34.4183 18.5065 26.8657 23.3307 17.549 23.3307C8.23223 23.3307 0.68042 18.5065 0.68042 12.5557C0.68042 6.60416 8.23223 1.77979 17.549 1.77979C26.8657 1.77979 34.4183 6.60416 34.4183 12.5557Z" fill="#FFE800"/>
<path d="M11.9477 9.156C11.9386 9.17292 11.7704 9.34681 11.8794 9.48657C12.1459 9.82609 12.9679 10.0208 13.7993 9.83471C14.2945 9.72364 14.9287 9.21945 15.5438 8.73259C16.2099 8.20396 16.871 7.67485 17.5355 7.46439C18.0023 7.29375 18.5123 7.28053 18.9873 7.42675C19.3143 7.52405 19.6982 7.73869 20.3111 8.19792C21.4653 9.06427 26.1071 13.1093 26.9087 13.8088C29.2973 12.7752 31.7813 11.9768 34.3253 11.425C33.9866 9.34874 32.7213 7.44924 30.803 5.89362C28.1297 7.01486 24.8619 7.59997 21.6665 6.04184C21.6503 6.03516 19.9207 5.21774 18.2148 5.25803C15.6799 5.31664 14.5819 6.41241 13.4192 7.57217L11.9477 9.156Z" fill="white"/>
<path d="M26.7202 14.2486C26.666 14.2002 21.2626 9.47982 20.0389 8.56116C19.3305 8.03085 18.9363 7.89535 18.5226 7.84287C18.2801 7.8233 18.0361 7.84663 17.8018 7.91179C17.2324 8.06639 16.4878 8.56357 15.8269 9.08688C15.1422 9.63104 14.4972 10.1437 13.8982 10.2776C13.1335 10.4488 12.1993 10.2467 11.773 9.95888C11.6211 9.86612 11.4988 9.73226 11.4201 9.57285C11.2629 9.20818 11.5534 8.91671 11.601 8.86786L13.0919 7.25767C13.2649 7.08501 13.4397 6.91218 13.6183 6.74195C13.1587 6.81097 12.7047 6.9131 12.2598 7.04752C11.7473 7.2177 11.2139 7.3172 10.6743 7.34326C10.1306 7.28825 9.59032 7.20374 9.05581 7.09009C7.57572 6.70954 6.13507 6.1898 4.75319 5.53784C2.63387 7.11322 1.21618 9.08324 0.806885 11.2531C1.11123 11.3335 1.60216 11.4793 1.8081 11.5251C6.60479 12.59 8.09893 13.6871 8.36986 13.9158C8.52925 13.7368 8.72722 13.5961 8.9489 13.5044C9.17058 13.4127 9.41019 13.3724 9.64972 13.3864C9.88926 13.4005 10.1225 13.4686 10.3319 13.5856C10.5412 13.7027 10.7213 13.8655 10.8586 14.0621C11.1824 13.8014 11.5861 13.6597 12.002 13.6606C12.2358 13.663 12.4677 13.7035 12.6883 13.7807C12.9019 13.849 13.0985 13.962 13.265 14.1121C13.4314 14.2622 13.5639 14.446 13.6536 14.6513C13.8633 14.5568 14.091 14.5086 14.3211 14.5099C14.5962 14.5134 14.8677 14.5733 15.1187 14.6858C16.0031 15.0647 16.141 15.9321 16.0605 16.5862C16.1239 16.5789 16.1876 16.5755 16.2513 16.5759C16.5801 16.5755 16.9034 16.6603 17.1894 16.8221C17.4755 16.9839 17.7147 17.2171 17.8834 17.4989C18.0521 17.7807 18.1447 18.1014 18.152 18.4296C18.1593 18.7578 18.0812 19.0823 17.9252 19.3713C18.2104 19.5315 18.9377 19.8941 19.5763 19.8133C20.0863 19.7487 20.2799 19.5749 20.3496 19.4769C20.3971 19.4097 20.4473 19.3312 20.4002 19.2747L19.047 17.7734C19.047 17.7734 18.824 17.563 18.8977 17.4816C18.9741 17.3981 19.1114 17.5177 19.2091 17.5994C19.898 18.1738 20.739 19.0408 20.739 19.0408C20.7529 19.0498 20.809 19.1595 21.1199 19.2151C21.3058 19.2474 21.4963 19.242 21.6801 19.1993C21.8638 19.1567 22.0371 19.0775 22.1897 18.9667C22.2759 18.8947 22.3545 18.8141 22.4243 18.7261C22.4197 18.7305 22.4147 18.7345 22.4094 18.7382C22.7554 18.2957 22.371 17.8483 22.371 17.8483L20.7907 16.0768C20.7907 16.0768 20.5651 15.8681 20.6415 15.7841C20.7105 15.7114 20.8559 15.8212 20.9547 15.9034C21.4553 16.3211 22.1623 17.0297 22.8393 17.6921C22.9713 17.7892 23.5673 18.1562 24.3553 17.6392C24.8342 17.3263 24.9301 16.9412 24.9165 16.6508C24.8823 16.4002 24.7648 16.1684 24.5828 15.9924L22.4243 13.8259C22.4243 13.8259 22.1965 13.6311 22.2774 13.5328C22.3427 13.4503 22.4913 13.5694 22.5881 13.6507C23.2759 14.2251 25.1373 15.9288 25.1373 15.9288C25.3564 16.0702 25.6129 16.143 25.8737 16.1378C26.1346 16.1326 26.388 16.0496 26.6013 15.8996C26.7383 15.8195 26.8537 15.7074 26.9375 15.5728C27.0214 15.4382 27.0711 15.2853 27.0824 15.1272C27.0889 14.9634 27.0598 14.8001 26.9973 14.6484C26.9348 14.4968 26.8403 14.3604 26.7202 14.2486Z" fill="white"/>
<path d="M16.2511 16.9952C15.9164 16.9912 15.5501 17.1898 15.5021 17.161C15.4759 17.1434 15.5227 17.0093 15.5541 16.932C15.5863 16.8548 16.0269 15.5306 14.9527 15.0708C14.1305 14.7181 13.6284 15.1149 13.4554 15.294C13.4099 15.3412 13.3898 15.3372 13.3846 15.2772C13.3783 15.03 13.2945 14.791 13.145 14.5938C12.9955 14.3967 12.7879 14.2513 12.5514 14.178C12.2166 14.0749 11.8574 14.0826 11.5273 14.2C11.1972 14.3174 10.9141 14.5382 10.72 14.8295C10.6854 14.5684 10.5636 14.3266 10.3744 14.1431C10.1852 13.9597 9.93951 13.8453 9.67712 13.8184C9.41474 13.7915 9.15093 13.8537 8.92834 13.995C8.70574 14.1363 8.53735 14.3484 8.45037 14.597C8.36338 14.8456 8.36289 15.1163 8.44896 15.3652C8.53503 15.6142 8.70264 15.8269 8.92472 15.969C9.1468 16.1111 9.41037 16.1743 9.67285 16.1484C9.93533 16.1224 10.1814 16.0089 10.3713 15.8261C10.3778 15.8319 10.3806 15.8432 10.3771 15.8656C10.3276 16.1563 10.2365 17.2129 11.3443 17.6427C11.5324 17.715 11.7361 17.7369 11.9354 17.7062C12.1346 17.6755 12.3222 17.5932 12.4797 17.4676C12.5734 17.4017 12.5883 17.4292 12.575 17.5173C12.5349 17.7891 12.5855 18.3706 13.4023 18.701C13.6047 18.7998 13.8337 18.8309 14.0552 18.7897C14.2767 18.7486 14.4791 18.6374 14.6325 18.4726C14.7372 18.3768 14.766 18.3926 14.7714 18.5403C14.7844 18.8296 14.8823 19.1087 15.0528 19.3429C15.2232 19.5772 15.4589 19.7563 15.7304 19.858C16.0019 19.9597 16.2974 19.9796 16.5801 19.9152C16.8629 19.8508 17.1204 19.7049 17.3209 19.4956C17.5213 19.2863 17.6557 19.0228 17.7076 18.7379C17.7594 18.453 17.7263 18.1592 17.6123 17.8929C17.4984 17.6266 17.3087 17.3996 17.0667 17.24C16.8247 17.0804 16.5411 16.9953 16.2511 16.9952Z" fill="white"/>
<path d="M26.9289 13.6838C25.2647 12.2332 21.4184 8.89444 20.3767 8.11345C19.7813 7.66664 19.3755 7.43064 19.0192 7.32456C18.8034 7.25679 18.5786 7.2219 18.3524 7.22105C18.0645 7.22479 17.7789 7.27278 17.5056 7.36332C16.8325 7.57596 16.1618 8.10837 15.5129 8.62297L15.4796 8.64941C14.875 9.12892 14.2505 9.62523 13.7779 9.73059C13.5711 9.77726 13.3598 9.80091 13.1477 9.80111C12.6186 9.80023 12.1429 9.64796 11.9645 9.42072C11.9351 9.38325 11.9542 9.32239 12.0229 9.23493L12.0319 9.22332L13.4959 7.64787C14.643 6.50293 15.7261 5.42192 18.2192 5.36452C18.2606 5.3634 18.3026 5.36284 18.344 5.36284C19.8956 5.3638 21.4471 6.0575 21.621 6.13787C23.0088 6.83043 24.537 7.19644 26.0885 7.20783C27.662 7.20833 29.2854 6.81931 30.9925 6.03444C30.802 5.87412 30.6032 5.71862 30.3993 5.56556C28.8996 6.21476 27.4709 6.54291 26.0928 6.54235C24.6406 6.5309 23.2105 6.18741 21.912 5.53824C21.8401 5.5039 20.1269 4.69751 18.3447 4.69653C18.2981 4.69653 18.2504 4.69751 18.2038 4.69807C16.1095 4.74692 14.9298 5.48971 14.1367 6.14021C13.4472 6.1759 12.765 6.30011 12.1072 6.50978C11.6448 6.664 11.1638 6.75601 10.677 6.78337C10.4939 6.78337 10.1637 6.7666 10.134 6.76562C9.62205 6.74999 7.04347 6.11844 4.99198 5.34316C4.7824 5.49116 4.58091 5.64391 4.38464 5.79965C6.5277 6.67696 9.1359 7.35551 9.95893 7.40878C10.1877 7.42371 10.4319 7.44958 10.6761 7.45014C11.2252 7.42331 11.7681 7.32256 12.2902 7.15061C12.6006 7.06332 12.9436 6.96868 13.3038 6.89967C13.2076 6.99383 13.1116 7.08936 13.0157 7.18624L11.5277 8.79288C11.4145 8.89307 11.3345 9.02518 11.2981 9.17175C11.2617 9.31831 11.2708 9.47245 11.324 9.61379C11.4104 9.79247 11.546 9.94287 11.7149 10.0474C12.0697 10.2856 12.7044 10.4467 13.294 10.4472C13.5058 10.4484 13.7171 10.4263 13.9239 10.3812C14.5473 10.2415 15.2015 9.72155 15.8943 9.1715C16.4465 8.73324 17.231 8.17721 17.8317 8.01391C18.0077 7.96702 18.1889 7.94221 18.3711 7.94007C18.4178 7.93971 18.4645 7.94237 18.5108 7.94804C18.9075 7.99843 19.2912 8.1332 19.9761 8.64642C21.1968 9.56227 26.6008 14.282 26.6535 14.3288C26.761 14.4303 26.8456 14.5536 26.9015 14.6904C26.9574 14.8272 26.9834 14.9743 26.9777 15.122C26.9678 15.2633 26.9233 15.4001 26.848 15.5202C26.7728 15.6404 26.6691 15.7402 26.5461 15.811C26.3357 15.9508 26.0894 16.0273 25.8366 16.0312C25.6151 16.0314 25.398 15.9685 25.211 15.85C25.191 15.8339 23.3397 14.1387 22.6586 13.5695C22.5731 13.4793 22.4604 13.4194 22.3377 13.3991C22.3106 13.3985 22.2838 13.4042 22.2593 13.4157C22.2348 13.4272 22.2133 13.4443 22.1965 13.4655C22.0892 13.5974 22.2093 13.7799 22.3506 13.8999L24.5136 16.0704C24.6744 16.2276 24.7792 16.4331 24.8121 16.6554C24.829 17.0152 24.657 17.3159 24.2988 17.5508C24.0737 17.7086 23.807 17.7965 23.532 17.8036C23.3126 17.8032 23.0981 17.7382 22.9155 17.6167L22.605 17.3114C22.0381 16.7542 21.4528 16.1785 21.0243 15.8213C20.9376 15.7324 20.8244 15.674 20.7017 15.6548C20.6762 15.6544 20.651 15.6593 20.6275 15.6693C20.6041 15.6792 20.5829 15.6938 20.5655 15.7123C20.5165 15.7666 20.4827 15.8642 20.6044 16.0259C20.6376 16.0691 20.674 16.1098 20.7134 16.1474L22.2919 17.9169C22.3049 17.9327 22.6172 18.303 22.3271 18.6723L22.2718 18.7428C22.2261 18.793 22.1771 18.8401 22.125 18.8837C21.9019 19.0476 21.6309 19.1336 21.354 19.1284C21.2823 19.1285 21.2107 19.1225 21.14 19.1104C21.025 19.1012 20.9161 19.0551 20.8296 18.979L20.8102 18.9596C20.724 18.8701 19.9285 18.0596 19.2703 17.511C19.1887 17.4242 19.081 17.3665 18.9635 17.3467C18.9365 17.3464 18.9099 17.352 18.8853 17.363C18.8607 17.374 18.8388 17.3901 18.8211 17.4104C18.6906 17.553 18.8866 17.7657 18.9694 17.8439L20.3154 19.3257C20.3036 19.3588 20.2862 19.3897 20.2641 19.417C20.2159 19.4829 20.0527 19.6459 19.5643 19.7078C19.5051 19.7148 19.4456 19.7183 19.3861 19.7181C18.923 19.6888 18.4726 19.5553 18.0686 19.3275C18.2126 19.022 18.2771 18.6852 18.2559 18.3482C18.2348 18.0113 18.1287 17.6851 17.9476 17.3999C17.7665 17.1148 17.5162 16.88 17.2199 16.7172C16.9237 16.5545 16.5911 16.469 16.2529 16.4689C16.2294 16.4689 16.2043 16.4698 16.1803 16.4707C16.2167 15.9656 16.1453 15.0094 15.1622 14.5882C14.898 14.4698 14.6123 14.407 14.3228 14.4038C14.1125 14.4027 13.9038 14.4403 13.7071 14.5148C13.5027 14.1182 13.1493 13.8186 12.7242 13.6815C12.4929 13.5995 12.2494 13.5567 12.0039 13.5548C11.6012 13.5525 11.2082 13.6781 10.8817 13.9135C10.7332 13.7274 10.547 13.5748 10.3354 13.4655C10.1237 13.3563 9.8913 13.2929 9.65341 13.2795C9.41551 13.2662 9.17748 13.3031 8.95488 13.388C8.73228 13.4728 8.53014 13.6037 8.36169 13.7719C7.94295 13.4526 6.28082 12.3984 1.83297 11.3901C1.61749 11.3414 1.12302 11.1998 0.820048 11.1113C0.769638 11.3521 0.731672 11.5954 0.706299 11.8401C0.706299 11.8401 1.52683 12.0363 1.6883 12.0723C6.23215 13.08 7.73354 14.1281 7.98744 14.3259C7.87006 14.6088 7.83127 14.9181 7.87516 15.2212C7.91905 15.5243 8.04399 15.8099 8.23682 16.0481C8.42966 16.2862 8.68324 16.468 8.97087 16.5743C9.2585 16.6807 9.56952 16.7075 9.87117 16.6522C9.93834 16.989 10.092 17.3025 10.3172 17.5621C10.5424 17.8217 10.8313 18.0183 11.1555 18.1328C11.3487 18.2089 11.5543 18.2487 11.7619 18.2501C11.8927 18.2504 12.023 18.2342 12.1497 18.2019C12.3059 18.5297 12.5496 18.8081 12.854 19.0066C13.1584 19.2051 13.5117 19.316 13.8751 19.327C14.0526 19.3273 14.2288 19.2958 14.3952 19.234C14.5211 19.5419 14.7219 19.8135 14.9795 20.0244C15.237 20.2353 15.5431 20.3787 15.8701 20.4418C16.1971 20.5049 16.5347 20.4855 16.8523 20.3856C17.17 20.2856 17.4577 20.1082 17.6894 19.8694C18.0132 20.0496 18.698 20.3746 19.3891 20.376C19.4751 20.3759 19.561 20.3703 19.6464 20.3593C20.3331 20.2725 20.6528 20.0049 20.7995 19.7963C20.8259 19.7599 20.8495 19.7215 20.8701 19.6815C21.0468 19.7351 21.2301 19.7635 21.4147 19.766C21.8139 19.7582 22.1997 19.6206 22.5135 19.3741C22.8707 19.1162 23.1248 18.7473 23.1612 18.4326C23.1619 18.4286 23.163 18.4236 23.1635 18.4191C23.2844 18.4441 23.4075 18.4568 23.5309 18.457C23.9341 18.4514 24.3267 18.327 24.6593 18.0994C24.9121 17.9528 25.1207 17.7409 25.2632 17.4861C25.4058 17.2312 25.477 16.9427 25.4694 16.6509C25.5917 16.6766 25.7163 16.6896 25.8413 16.6897C26.2179 16.6856 26.5853 16.5727 26.8991 16.3646C27.1072 16.2375 27.2823 16.0631 27.4099 15.8555C27.5375 15.6478 27.6141 15.413 27.6332 15.1702C27.6594 14.8322 27.5779 14.4947 27.4003 14.2058C29.6711 13.2802 32.0158 12.5473 34.4098 12.0147C34.3895 11.7713 34.3568 11.529 34.3118 11.2889C31.7792 11.8475 29.3067 12.6495 26.9289 13.6838ZM16.2511 19.8463C15.8971 19.8486 15.556 19.7133 15.3 19.469C15.0441 19.2248 14.8933 18.8907 14.8795 18.5374C14.8773 18.4742 14.8709 18.307 14.7294 18.307C14.6648 18.3143 14.6052 18.3454 14.5623 18.3942C14.4755 18.4868 14.3713 18.5613 14.2557 18.6135C14.14 18.6657 14.0151 18.6947 13.8883 18.6986C13.7352 18.6958 13.5842 18.6631 13.4437 18.6024C12.6605 18.2859 12.6499 17.7486 12.6819 17.5327C12.6895 17.5049 12.6908 17.4758 12.686 17.4474C12.6811 17.419 12.6701 17.392 12.6537 17.3683L12.6058 17.3254H12.5567C12.5065 17.329 12.4588 17.3485 12.4204 17.381C12.2291 17.5274 11.9965 17.6098 11.7556 17.6167C11.6284 17.6156 11.5026 17.5911 11.3843 17.5445C10.3533 17.1436 10.4349 16.1718 10.485 15.8792C10.4905 15.8546 10.4891 15.8291 10.4812 15.8052C10.4733 15.7813 10.4591 15.7601 10.4401 15.7436L10.3673 15.6836L10.2992 15.7489C10.1259 15.9163 9.90098 16.0205 9.66099 16.0444C9.421 16.0684 9.17994 16.0108 8.97682 15.8809C8.7737 15.751 8.62042 15.5565 8.54178 15.3289C8.46314 15.1012 8.46375 14.8537 8.54351 14.6265C8.62326 14.3992 8.7775 14.2054 8.98126 14.0766C9.18501 13.9477 9.42636 13.8913 9.66623 13.9164C9.9061 13.9416 10.1305 14.0468 10.303 14.2151C10.4755 14.3833 10.5861 14.6048 10.6169 14.8437L10.6533 15.1307L10.8111 14.888C10.989 14.6122 11.2533 14.403 11.5628 14.2929C11.8724 14.1829 12.2097 14.1783 12.5221 14.2798C12.7379 14.3474 12.9271 14.4809 13.0631 14.6614C13.1991 14.8419 13.275 15.0604 13.2802 15.2862C13.2915 15.4258 13.3908 15.4321 13.4103 15.4321C13.4342 15.4305 13.4576 15.4239 13.4789 15.4128C13.5002 15.4017 13.5189 15.3862 13.5339 15.3675C13.6358 15.2615 13.7583 15.1775 13.8939 15.1204C14.0294 15.0634 14.1752 15.0345 14.3224 15.0357C14.5261 15.0395 14.7269 15.0847 14.9126 15.1684C15.9205 15.6001 15.4634 16.8788 15.4579 16.8924C15.3711 17.1042 15.368 17.1977 15.4493 17.2519L15.4891 17.2704H15.518C15.5853 17.2628 15.6511 17.2456 15.7134 17.2193C15.8852 17.1513 16.0668 17.1113 16.2513 17.101H16.2518C16.6164 17.1011 16.966 17.2458 17.2238 17.5033C17.4815 17.7608 17.6263 18.1099 17.6262 18.474C17.6261 18.838 17.4812 19.1871 17.2233 19.4445C16.9654 19.7018 16.6157 19.8464 16.2511 19.8463Z" fill="#002E6D"/>
<path d="M42.151 6.24432V11.3971H40.0898V6.65574C40.0898 4.35353 41.2502 3.21021 43.5559 3.21021C44.594 3.21021 45.3879 3.43889 45.9681 3.89617C46.5485 3.45411 47.3422 3.24085 48.3807 3.24085C50.6865 3.24085 51.8316 4.38407 51.8163 6.68605V11.4277H50.7626C50.0909 11.3817 49.7551 11.0618 49.7551 10.4214V6.27463C49.7092 5.43608 49.251 5.02434 48.3502 5.02434C47.4494 5.02434 46.9911 5.43608 46.976 6.27463V11.3971H44.93V6.24432C44.884 5.4056 44.4263 4.99404 43.5254 4.99404C42.6244 4.99404 42.1662 5.4056 42.151 6.24432Z" fill="#002E6D"/>
<path d="M61.7729 7.26641C61.834 4.6592 63.124 3.21021 65.8267 3.21021H66.4397V5.31397L65.496 5.33435C64.366 5.33435 63.8341 6.06182 63.8341 7.2357V11.4283H61.7729V7.26641Z" fill="#002E6D"/>
<path d="M77.8097 5.7397L75.9187 5.73744C75.991 4.17948 76.7764 3.14111 79.0825 3.14111C81.3117 3.14111 82.4418 3.87286 82.4876 5.36698V8.11114C82.4876 10.3369 81.144 11.328 78.9603 11.4804C77.0213 11.6328 75.6775 10.7334 75.6775 8.9497C75.7234 7.01328 77.1282 6.49515 79.1742 6.29702C80.0445 6.19038 80.4873 5.9309 80.4873 5.48909C80.4415 5.03157 80.0139 4.81386 79.1742 4.8029C78.223 4.79048 77.9166 5.35851 77.8097 5.7397ZM80.5179 8.01957V7.35957C80.0445 7.55779 79.4947 7.63879 78.8992 7.76059C78.0902 7.91309 77.6776 8.2942 77.6776 8.88876C77.7235 9.52902 78.0595 9.83379 78.7006 9.83379C79.8307 9.83379 80.5179 9.16298 80.5179 8.01957Z" fill="#002E6D"/>
<path d="M91.1974 0.636475V7.90614C91.1974 10.33 89.9301 11.5346 87.4109 11.5193C84.9068 11.4733 83.6545 10.1166 83.6545 7.43345C83.6545 4.68929 84.7234 3.28665 86.8763 3.21032C87.8843 3.21032 88.6632 3.62205 89.1819 4.46054V1.89008L89.1868 1.66309C89.8585 0.662276 91.1974 0.636475 91.1974 0.636475ZM85.7467 7.3419C85.7316 8.97346 86.281 9.79644 87.4416 9.79644C88.6018 9.79644 89.1819 8.97346 89.1819 7.3419C89.1362 5.78682 88.5715 5.02446 87.4719 5.02446C86.3729 5.02446 85.8074 5.78682 85.7467 7.3419Z" fill="#002E6D"/>
<path d="M55.0351 12.6565H55.5666V23.3373H53.5359V13.9615C53.5359 13.6573 54.167 12.6565 55.0351 12.6565Z" fill="#002E6D"/>
<path d="M66.0986 15.0283C65.0913 15.0283 64.3276 15.4398 63.8085 16.2783L63.8082 12.6565H63.5783C62.5656 12.6687 62.0334 13.2085 61.7778 13.6496V19.7239C61.7778 22.1477 63.0451 23.3523 65.5645 23.3372C68.0688 23.2911 69.3206 21.9345 69.3206 19.2514C69.3206 16.5072 68.2517 15.1043 66.0986 15.0283ZM65.5035 21.6141C64.3429 21.6141 63.7932 20.7911 63.8085 19.1598C63.8697 17.6046 64.4346 16.8424 65.534 16.8424C66.6334 16.8424 67.1982 17.6046 67.2442 19.1598C67.2442 20.7911 66.6639 21.6141 65.5035 21.6141Z" fill="#002E6D"/>
<path d="M55.4372 9.37096C55.7617 9.68516 56.2285 9.84223 56.8375 9.84217C57.2379 9.85282 57.6317 9.7386 57.964 9.51541C58.2301 9.3574 58.4341 9.1134 58.5424 8.8238H60.4453C60.1408 9.76617 59.674 10.44 59.0448 10.8452C58.3594 11.2661 57.5657 11.4774 56.7615 11.4533C56.1894 11.4617 55.6211 11.3611 55.0868 11.1569C54.6086 10.9721 54.1773 10.684 53.8236 10.3133C53.4709 9.93642 53.1989 9.49161 53.0243 9.00613C52.8314 8.47005 52.7361 7.90386 52.7428 7.33428C52.7378 6.77404 52.8358 6.21765 53.0319 5.69272C53.212 5.20416 53.4907 4.75778 53.8508 4.38127C54.2109 4.00476 54.6446 3.70616 55.1251 3.50401C55.6427 3.28617 56.1998 3.17752 56.7615 3.18489C57.3678 3.17054 57.9686 3.30354 58.512 3.57245C58.996 3.81965 59.4156 4.17612 59.7375 4.61356C60.0624 5.06087 60.2976 5.56669 60.4301 6.10316C60.5733 6.67406 60.6246 7.26404 60.5822 7.85103H54.9044C54.9347 8.55014 55.1123 9.05678 55.4372 9.37096ZM57.8804 5.23673C57.6216 4.95322 57.2283 4.81136 56.7004 4.81113C56.404 4.8009 56.1093 4.86083 55.8405 4.98603C55.6288 5.08936 55.4418 5.23709 55.2925 5.41914C55.161 5.58082 55.0627 5.76677 55.0032 5.96637C54.9519 6.13459 54.9188 6.30781 54.9044 6.48306H58.4206C58.3594 6.02575 58.1724 5.59433 57.8804 5.23673Z" fill="#002E6D"/>
<path d="M71.011 4.78597C70.7014 4.77512 70.3959 4.85807 70.1344 5.02392C69.8985 5.18281 69.7015 5.39272 69.558 5.63806C69.407 5.89476 69.3004 6.17503 69.2427 6.46709C69.1819 6.76262 69.151 7.06351 69.1505 7.36522C69.1512 7.6593 69.1821 7.95255 69.2427 8.24035C69.299 8.52326 69.4002 8.79536 69.5425 9.04635C69.6795 9.2854 69.872 9.48812 70.1037 9.63743C70.3618 9.79716 70.6613 9.87727 70.9648 9.86773C71.4876 9.86773 71.89 9.72189 72.1719 9.4302C72.4692 9.10494 72.655 8.69352 72.7023 8.25567H74.8088C74.6651 9.31 74.2551 10.1135 73.5788 10.6661C72.9021 11.2188 72.0359 11.4951 70.9801 11.4951C70.4201 11.5015 69.8641 11.3998 69.3426 11.1957C68.8654 11.0095 68.433 10.7243 68.0742 10.359C67.719 9.99072 67.4418 9.55472 67.2592 9.07705C67.0598 8.55521 66.9607 8.00052 66.9671 7.44203C66.9619 6.86052 67.0528 6.28213 67.2362 5.73019C67.4027 5.22497 67.6723 4.75971 68.028 4.36382C68.383 3.97535 68.8185 3.66884 69.3042 3.46563C69.8503 3.24229 70.4363 3.1326 71.0263 3.14329C71.4863 3.1417 71.9442 3.20368 72.3871 3.32747C72.8071 3.44287 73.2029 3.63267 73.5557 3.88784C73.9175 4.14746 74.2146 4.48678 74.4239 4.87949C74.6332 5.2722 74.7491 5.70776 74.7626 6.15241H72.6254C72.4817 5.24155 71.9436 4.78607 71.011 4.78597Z" fill="#002E6D"/>
<path d="M92.7603 5.60715C92.9371 5.11506 93.2181 4.66688 93.5844 4.29327C93.9506 3.91967 94.3933 3.62945 94.8822 3.44246C95.4218 3.23609 95.9959 3.13448 96.5737 3.14308C97.1538 3.13501 97.7303 3.23659 98.2727 3.44246C98.7636 3.62763 99.2083 3.91713 99.576 4.2909C99.9437 4.66468 100.226 5.11379 100.402 5.60715C100.603 6.16055 100.702 6.7457 100.694 7.3343C100.703 7.92045 100.604 8.50318 100.402 9.0538C100.221 9.54467 99.9379 9.99192 99.5719 10.3665C99.2044 10.7356 98.7611 11.0211 98.2727 11.2032C97.7291 11.4039 97.1531 11.5028 96.5737 11.4949C95.9966 11.5033 95.423 11.4044 94.8822 11.2032C94.3967 11.0198 93.9563 10.7345 93.5907 10.3665C93.2247 9.992 92.9417 9.54473 92.7603 9.0538C92.5588 8.5032 92.4599 7.92045 92.4683 7.3343C92.4604 6.7457 92.5593 6.16053 92.7603 5.60715ZM94.7438 8.26312C94.7997 8.55091 94.9065 8.82646 95.0592 9.07684C95.2052 9.3151 95.4087 9.51303 95.6511 9.65254C95.934 9.80494 96.2524 9.87916 96.5737 9.86752C96.8972 9.87846 97.218 9.80432 97.5038 9.65254C97.7494 9.5146 97.9558 9.31648 98.1035 9.07684C98.256 8.82639 98.3628 8.55087 98.4188 8.26312C98.4807 7.95739 98.5116 7.64622 98.511 7.3343C98.5113 7.01987 98.4804 6.70617 98.4188 6.39781C98.3645 6.10957 98.2576 5.83375 98.1035 5.58409C97.9528 5.34688 97.7471 5.14941 97.5038 5.0084C97.2196 4.85179 96.8981 4.77486 96.5737 4.78577C96.2727 4.77091 95.9733 4.83718 95.7068 4.97765C95.4404 5.11811 95.2167 5.32758 95.0592 5.58409C94.9049 5.83368 94.798 6.10953 94.7438 6.39781C94.6822 6.70617 94.6514 7.01987 94.6517 7.3343C94.6511 7.64622 94.682 7.95739 94.7438 8.26312Z" fill="#002E6D"/>
<path d="M70.5149 19.1526C70.5759 16.5454 71.866 15.0964 74.5686 15.0964H75.1817V17.2001L74.238 17.2206C73.1079 17.2206 72.5761 17.948 72.5761 19.1219V23.3144H70.5149V19.1526Z" fill="#002E6D"/>
<path d="M78.3949 21.2572C78.7195 21.5714 79.1863 21.7285 79.7953 21.7284C80.1957 21.739 80.5894 21.6248 80.9218 21.4016C81.1878 21.2436 81.3919 20.9996 81.5001 20.71H83.4031C83.0986 21.6525 82.6317 22.3263 82.0026 22.7315C81.3172 23.1523 80.5235 23.3636 79.7192 23.3394C79.1472 23.3479 78.5788 23.2474 78.0446 23.0431C77.5664 22.8583 77.1351 22.5702 76.7813 22.1996C76.4287 21.8227 76.1567 21.3778 75.9821 20.8923C75.7892 20.3562 75.6938 19.79 75.7005 19.2204C75.6956 18.6602 75.7936 18.1038 75.9897 17.5789C76.1698 17.0904 76.4485 16.644 76.8086 16.2675C77.1686 15.891 77.6024 15.5924 78.0828 15.3903C78.6004 15.1724 79.1576 15.0637 79.7192 15.0711C80.3256 15.0568 80.9263 15.1898 81.4698 15.4587C81.9538 15.7058 82.3734 16.0623 82.6952 16.4998C83.0201 16.9471 83.2553 17.4529 83.3879 17.9894C83.531 18.5603 83.5824 19.1503 83.54 19.7373H77.8621C77.8925 20.4363 78.0701 20.9429 78.3949 21.2572ZM80.8381 17.123C80.5793 16.8395 80.186 16.6976 79.6582 16.6974C79.3618 16.6872 79.0671 16.7471 78.7983 16.8722C78.5866 16.9756 78.3997 17.1233 78.2503 17.3053C78.1188 17.467 78.0204 17.653 77.9609 17.8527C77.9096 18.0208 77.8765 18.194 77.8621 18.3692H81.3784C81.3172 17.9119 81.1302 17.4806 80.8381 17.123Z" fill="#002E6D"/>
<path d="M59.7763 12.6565H57.7451V14.5034H59.7763V12.6565Z" fill="#002E6D"/>
<path d="M59.7763 15.4319H57.7451V23.3373H59.7763V15.4319Z" fill="#002E6D"/>
</g>
<defs>
<clipPath id="clip0_5021_1542">
<rect width="100.694" height="24.7159" fill="white" transform="translate(0 0.636475)"/>
</clipPath>
</defs>
</svg>
