<svg viewBox="0 0 60 60" fill="none" xmlns="http://www.w3.org/2000/svg">
    <mask id="mask0_5972_28249" style="mask-type:alpha" maskUnits="userSpaceOnUse" x="0" y="0" width="60" height="60">
        <rect width="60" height="60" rx="8" fill="#005BFF" />
    </mask>
    <g mask="url(#mask0_5972_28249)">
        <rect width="60" height="60" rx="8" fill="#005BFF" />
        <path d="M10.5 36.4922L7 59.9922H60V36.9922L52 33.9922L51 27.9922L44.5 17.4922L13 20.4922L10.5 36.4922Z" fill="#F81155" />
        <path d="M52.6412 24.293C53.4717 27.9049 52.3061 32.0785 48.85 36.0236C45.3994 39.9625 39.8986 43.3316 33.094 44.8961C26.2893 46.4607 19.8695 45.8325 15.045 43.7962C10.2129 41.7568 7.34156 38.5114 6.51109 34.8995C5.68062 31.2876 6.84616 27.1141 10.3023 23.1689C13.7529 19.23 19.2537 15.8609 26.0583 14.2964C32.863 12.7318 39.2828 13.3601 44.1073 15.3963C48.9394 17.4357 51.8107 20.6811 52.6412 24.293Z" stroke="white" stroke-width="10" />
    </g>
</svg>