<svg viewBox="0 0 61 60" fill="none" xmlns="http://www.w3.org/2000/svg">
    <mask id="mask0_5972_28255" style="mask-type:alpha" maskUnits="userSpaceOnUse" x="0" y="0" width="61" height="60">
        <rect x="0.171875" width="60" height="60" rx="8" fill="url(#paint0_linear_5972_28255)" />
    </mask>
    <g mask="url(#mask0_5972_28255)">
        <rect x="0.171875" width="60" height="60" rx="8" fill="url(#paint1_linear_5972_28255)" />
        <path d="M15.3896 16.3954L0.167969 36.1953V53.7734L15.8016 32.9702L13.8971 47.0224L24.9124 50.7285L38.0382 29.47C37.9475 31.6862 37.7283 35.9335 39.1006 39.3839C40.0656 41.8103 41.8657 44.0712 44.3179 45.015C50.7638 47.4959 57.1348 42.956 60.1718 39.8162V23.2932C57.6496 27.6684 51.8125 35.9557 48.6417 34.1026C45.4709 32.2496 48.7961 19.364 50.8551 13.1529L38.8103 9.08643L24.2433 33.3304L25.8904 19.9473L15.3896 16.3954Z" fill="black" />
    </g>
    <defs>
        <linearGradient id="paint0_linear_5972_28255" x1="31.5136" y1="60" x2="30.1719" y2="-3.13455e-06" gradientUnits="userSpaceOnUse">
            <stop stop-color="#FFCE08" />
            <stop offset="1" stop-color="#FFE04A" />
        </linearGradient>
        <linearGradient id="paint1_linear_5972_28255" x1="31.5136" y1="60" x2="30.1719" y2="-3.13455e-06" gradientUnits="userSpaceOnUse">
            <stop stop-color="#FFCE08" />
            <stop offset="1" stop-color="#FFE04A" />
        </linearGradient>
    </defs>
</svg>