<svg  viewBox="0 0 154 30" fill="none" xmlns="http://www.w3.org/2000/svg">
    <circle cx="14.619" cy="14.0742" r="14" fill="#FC3F1D" />
    <mask id="mask0_5989_28164" style="mask-type:alpha" maskUnits="userSpaceOnUse" x="30" y="0" width="29" height="29">
        <circle cx="44.3641" cy="14.0742" r="14" fill="#FED42B" />
    </mask>
    <g mask="url(#mask0_5989_28164)">
        <circle cx="44.3641" cy="14.0742" r="14" fill="#FED42B" />
        <path d="M38.2134 8.50898L30.8641 18.0742L31.3641 26.0742L38.3988 16.298L37.5419 22.9017L42.4984 24.6433L48.4046 14.6532C48.3638 15.6947 48.2652 17.6906 48.8827 19.3121C49.3169 20.4523 50.1269 21.5148 51.2304 21.9583C54.1308 23.1242 56.9976 20.9907 58.3641 19.5152V11.7505C57.2292 13.8066 54.6027 17.701 53.1759 16.8302C51.7492 15.9594 53.2454 9.90403 54.1719 6.9852L48.7521 5.07422L42.1973 16.4673L42.9385 10.1781L38.2134 8.50898Z" fill="black" />
    </g>
    <path d="M20.1967 22.2712H17.378V7.92248C15.878 7.92229 13.7015 7.8061 12.9699 9.15194C11.0058 12.7653 14.3734 14.7102 16.3734 16.0939L12.3402 22.4807H9.04131L12.9699 16.6786C7.39315 12.9894 9.96875 7.89348 11.3586 6.99791C12.058 6.54724 12.7265 6.17986 13.5463 5.98524C15.4696 5.52866 17.9721 5.69862 20.1967 5.69861V22.2712Z" fill="white" />
    <path d="M68.658 24.8644H65.6002V4.06537L70.4947 4.04584L74.6234 19.1055L78.7861 4.06994H83.5517V24.8644H80.0151V9.67573L75.8623 24.8644H72.719L68.658 9.67573V24.8644Z" fill="white" />
    <path d="M141.843 12.7078V9.78198H153.809V12.7078H149.673V24.9006H145.996L145.973 12.7078H141.843Z" fill="white" />
    <path d="M109.299 9.51678C106.299 8.91678 104.799 10.5168 104.099 11.6168L103.899 9.71678H100.499L100.599 29.2168H104.199V23.2168C105.499 25.5168 111.199 27.1168 113.299 21.2168C115.199 15.6168 112.399 10.1168 109.299 9.51678ZM106.799 22.3168C104.499 22.1168 104.299 19.5168 104.099 17.3168C104.099 16.4168 103.999 12.3168 107.199 12.3168C110.099 12.3168 110.199 16.8168 110.199 17.6168C110.199 18.5168 109.799 22.6168 106.799 22.3168Z" fill="white" />
    <path d="M97.799 15.2168C97.799 13.0168 97.699 9.81676 92.999 9.31676C91.999 9.21676 90.899 9.31676 90.099 9.51676C87.899 9.91676 86.999 10.6168 86.699 10.7168V13.7168C87.999 13.0168 91.099 11.9168 92.499 12.3168C94.399 12.8168 94.099 15.0168 94.099 15.2168C92.899 15.3168 90.999 15.2168 89.399 15.7168C87.499 16.2168 86.099 17.4168 85.899 18.7168C85.499 20.0168 85.599 21.2168 85.999 22.4168C86.599 23.9168 87.999 24.8168 89.699 24.9168C92.899 25.1168 93.599 23.9168 94.099 23.4168L94.299 24.7168H97.899L97.799 15.2168ZM94.199 21.3168C93.299 22.6168 89.799 23.3168 89.499 20.6168C89.099 17.8168 91.799 17.7168 94.199 17.8168V21.3168Z" fill="white" />
    <path d="M119.658 9.88198H116.058V24.982H119.758V17.782L124.858 24.982H129.058L123.358 16.782L128.358 9.78198H124.658L119.658 16.582V9.88198V9.88198Z" fill="white" />
    <path d="M139.058 10.782C136.358 8.58198 131.058 9.08198 129.458 13.582C127.958 17.582 128.458 22.082 131.558 24.182C134.758 26.282 139.858 24.982 140.958 23.982V21.082C140.058 21.682 137.858 22.682 135.758 22.482C133.158 22.182 132.658 20.482 132.658 18.882H141.158C141.258 16.782 141.258 12.482 139.058 10.782ZM137.458 16.082H132.558C132.458 14.982 132.858 12.682 134.958 12.482C137.258 12.282 137.458 14.782 137.458 16.082Z" fill="white" />
</svg>