<svg width="53" height="56" viewBox="0 0 53 56" fill="none" xmlns="http://www.w3.org/2000/svg">
<g clip-path="url(#clip0_4319_17717)">
<path d="M47.8084 3.82998C47.8084 4.24871 47.6843 4.65802 47.4517 5.00618C47.219 5.35434 46.8884 5.62575 46.5015 5.78599C46.1147 5.94623 45.689 5.9881 45.2783 5.90641C44.8676 5.82472 44.4904 5.6231 44.1943 5.32701C43.8982 5.03093 43.6966 4.65369 43.6149 4.24301C43.5332 3.83233 43.5751 3.40663 43.7353 3.01977C43.8956 2.63292 44.167 2.30227 44.5151 2.06964C44.8633 1.83701 45.2726 1.71289 45.6913 1.71289C46.2528 1.71292 46.7913 1.93599 47.1883 2.33302C47.5853 2.73005 47.8084 3.26849 47.8084 3.82998Z" fill="#5FB0E5"/>
<path d="M43.5337 16.1765C43.5337 16.2978 43.4977 16.4163 43.4304 16.5171C43.363 16.6179 43.2673 16.6965 43.1552 16.7429C43.0432 16.7893 42.92 16.8014 42.8011 16.7778C42.6822 16.7541 42.573 16.6957 42.4872 16.61C42.4015 16.5243 42.343 16.415 42.3194 16.2961C42.2957 16.1772 42.3079 16.0539 42.3543 15.9419C42.4007 15.8299 42.4793 15.7342 42.5801 15.6668C42.6809 15.5994 42.7995 15.5635 42.9207 15.5635C43.0012 15.5635 43.0809 15.5793 43.1552 15.6101C43.2296 15.6409 43.2973 15.6861 43.3542 15.743C43.4111 15.7999 43.4562 15.8675 43.487 15.9419C43.5178 16.0163 43.5337 16.096 43.5337 16.1765Z" fill="#5FB0E5"/>
<path d="M52.4201 12.9516C52.4201 13.1674 52.356 13.3785 52.2361 13.558C52.1162 13.7374 51.9458 13.8773 51.7464 13.9599C51.5469 14.0426 51.3275 14.0642 51.1157 14.0221C50.904 13.98 50.7096 13.876 50.557 13.7234C50.4043 13.5708 50.3004 13.3763 50.2583 13.1646C50.2162 12.9529 50.2378 12.7335 50.3204 12.534C50.403 12.3346 50.5429 12.1641 50.7224 12.0442C50.9019 11.9243 51.1129 11.8603 51.3288 11.8604C51.6182 11.8604 51.8957 11.9753 52.1004 12.1799C52.3051 12.3846 52.42 12.6622 52.4201 12.9516Z" fill="#5FB0E5"/>
<path d="M3.10426 4.99543C3.10426 5.30242 3.01322 5.60255 2.84266 5.8578C2.67211 6.11305 2.42973 6.31195 2.14611 6.42942C1.8625 6.54689 1.55039 6.57763 1.24931 6.51773C0.948224 6.45783 0.671638 6.30997 0.454575 6.09289C0.237513 5.87581 0.0896795 5.59924 0.0298051 5.29815C-0.0300693 4.99706 0.000699677 4.68503 0.118195 4.40142C0.235691 4.11781 0.434632 3.87541 0.689893 3.70488C0.945154 3.53434 1.24528 3.44333 1.55226 3.44336C1.96389 3.44338 2.35866 3.6069 2.64971 3.89798C2.94077 4.18906 3.10427 4.58381 3.10426 4.99543Z" fill="#5FB0E5"/>
<path d="M14.0499 8.40725C14.0499 8.58863 13.9961 8.76595 13.8953 8.91676C13.7946 9.06757 13.6514 9.18513 13.4838 9.25454C13.3162 9.32394 13.1318 9.3421 12.9539 9.3067C12.776 9.27131 12.6126 9.18395 12.4844 9.05568C12.3561 8.92741 12.2688 8.76403 12.2334 8.58613C12.1981 8.40823 12.2162 8.22383 12.2857 8.05626C12.3551 7.88869 12.4726 7.74546 12.6234 7.6447C12.7743 7.54395 12.9516 7.49021 13.133 7.49023C13.3761 7.49027 13.6094 7.58693 13.7814 7.7589C13.9533 7.93088 14.0499 8.16406 14.0499 8.40725Z" fill="#5FB0E5"/>
<path d="M5.80016 17.2279C5.80012 17.648 5.67552 18.0587 5.44209 18.408C5.20866 18.7573 4.87691 19.0295 4.48876 19.1903C4.10062 19.351 3.67352 19.3931 3.26149 19.3111C2.84945 19.2291 2.47096 19.0268 2.17391 18.7297C1.87685 18.4326 1.67452 18.0542 1.59257 17.6421C1.51061 17.2301 1.55268 16.803 1.71345 16.4148C1.87422 16.0267 2.14652 15.6949 2.49583 15.4615C2.84514 15.2281 3.2558 15.1035 3.67592 15.1035C3.95489 15.1035 4.2311 15.1585 4.48884 15.2652C4.74658 15.372 4.98082 15.5285 5.17808 15.7257C5.37534 15.923 5.53179 16.1572 5.63853 16.415C5.74528 16.6727 5.80018 16.9489 5.80016 17.2279Z" fill="#5FB0E5"/>
<path d="M39.429 42.0839L38.0791 43.4355L43.7498 49.0987L45.0997 47.7471L39.429 42.0839Z" fill="#0686D8"/>
<path d="M25.9408 10.4561C22.1149 10.4561 18.3749 11.5906 15.1937 13.7161C12.0126 15.8417 9.53323 18.8628 8.06912 22.3975C6.60502 25.9322 6.22199 29.8217 6.96841 33.5742C7.71482 37.3266 9.55721 40.7733 12.2626 43.4787C14.9679 46.184 18.4147 48.0263 22.1672 48.7727C25.9196 49.519 29.809 49.1359 33.3436 47.6718C36.8783 46.2076 39.8995 43.7282 42.025 40.547C44.1505 37.3659 45.285 33.6258 45.2849 29.7999C45.2849 24.6695 43.2468 19.7493 39.6191 16.1217C35.9914 12.494 31.0711 10.456 25.9408 10.4561ZM25.9408 44.4961C23.0342 44.4961 20.1929 43.6342 17.7761 42.0194C15.3593 40.4046 13.4757 38.1093 12.3634 35.424C11.2511 32.7386 10.9601 29.7838 11.5271 26.933C12.0942 24.0822 13.4938 21.4636 15.5491 19.4083C17.6044 17.353 20.223 15.9534 23.0738 15.3864C25.9245 14.8193 28.8794 15.1103 31.5647 16.2226C34.2501 17.3349 36.5453 19.2186 38.1602 21.6353C39.775 24.0521 40.6369 26.8934 40.6369 29.8C40.6369 33.6977 39.0885 37.4356 36.3325 40.1917C33.5765 42.9477 29.8384 44.4961 25.9408 44.4961Z" fill="#9ECFEF"/>
<path d="M45.4548 44.0515L40.0547 49.459L45.9998 55.3959L51.3999 49.9884L45.4548 44.0515Z" fill="#9ECFEF"/>
<path d="M45.2534 56.0003L38.7041 49.46L45.4534 42.6992L52.004 49.2422L50.6526 50.5935L45.4559 45.402L41.4056 49.4574L46.6048 54.649L45.2534 56.0003Z" fill="#0686D8"/>
<path d="M48.8039 47.1322L43.1367 52.7988L44.4874 54.1497L50.1547 48.483L48.8039 47.1322Z" fill="#0686D8"/>
<path d="M17.7128 43.6583L12.2168 40.3251V15.1035H17.7128V43.6583Z" fill="white"/>
<path d="M23.2086 6.54688H17.7129V45.5914H23.2086V6.54688Z" fill="#5FB0E5"/>
<path d="M28.7037 9.97363H23.208V45.5916H28.7037V9.97363Z" fill="white"/>
<path d="M34.1998 5.94727H28.7041V45.5913H34.1998V5.94727Z" fill="#5FB0E5"/>
<path d="M39.6952 41.8376L34.1992 44.5175V0.956055H39.6952V41.8376Z" fill="white"/>
<path d="M18.6681 45.355L11.2617 40.8624V14.1484H18.6681V45.355ZM13.1723 39.7876L16.7575 41.962V16.059H13.1723V39.7876Z" fill="#0686D8"/>
<path d="M24.1633 46.5473H16.7568V5.59277H24.1633V46.5473ZM18.6674 44.6368H22.2527V7.50331H18.6674V44.6368Z" fill="#0686D8"/>
<path d="M29.6594 46.5467H22.2529V9.01758H29.6594V46.5467ZM24.1635 44.6362H27.7489V10.9281H24.1635V44.6362Z" fill="#0686D8"/>
<path d="M35.1547 46.5465H27.749V4.99121H35.1547V46.5465ZM29.6596 44.636H33.2442V6.90174H29.6596V44.636Z" fill="#0686D8"/>
<path d="M33.2442 46.4001V0H40.6501V40.9832L33.2442 46.4001ZM35.1547 1.91053V42.6364L38.7395 40.013V1.91053H35.1547Z" fill="#0686D8"/>
<path d="M40.6367 29.8C40.6367 31.7299 40.2566 33.641 39.5181 35.424C38.7795 37.207 37.697 38.827 36.3323 40.1917C34.9676 41.5563 33.3475 42.6388 31.5645 43.3774C29.7815 44.1159 27.8705 44.496 25.9406 44.496C24.0107 44.496 22.0996 44.1159 20.3166 43.3774C18.5336 42.6388 16.9135 41.5563 15.5489 40.1916C14.1842 38.8269 13.1016 37.2068 12.3631 35.4238C11.6246 33.6408 11.2445 31.7297 11.2445 29.7998L6.59668 29.8C6.59669 32.3403 7.09701 34.8557 8.06915 37.2027C9.04129 39.5496 10.4662 41.682 12.2624 43.4783C14.0587 45.2745 16.1912 46.6994 18.5381 47.6716C20.8851 48.6437 23.4005 49.144 25.9408 49.1439C28.4811 49.1439 30.9965 48.6436 33.3434 47.6715C35.6904 46.6993 37.8229 45.2745 39.6191 43.4782C41.4154 41.6819 42.8402 39.5494 43.8123 37.2025C44.7845 34.8556 45.2848 32.3401 45.2848 29.7998L40.6367 29.8Z" fill="#9ECFEF"/>
<path d="M25.941 50.0988C22.2007 50.1074 18.5311 49.0789 15.3401 47.1275C12.1491 45.1761 9.56159 42.3783 7.86497 39.0449L9.5653 38.1741C10.6973 40.3863 12.266 42.346 14.1764 43.9352C16.0868 45.5243 18.2993 46.7099 20.6806 47.4203C23.0619 48.1306 25.5624 48.3511 28.0312 48.0683C30.5 47.7855 32.8859 47.0054 35.0449 45.7751C37.2039 44.5447 39.0911 42.8895 40.5927 40.9096C42.0943 38.9296 43.1791 36.666 43.7817 34.2552C44.3842 31.8444 44.492 29.3365 44.0985 26.8829C43.705 24.4293 42.8183 22.0808 41.4921 19.9794L43.1067 18.9569C45.0452 22.0279 46.1245 25.5627 46.2321 29.1929C46.3398 32.823 45.4718 36.4155 43.7186 39.5961C41.9655 42.7766 39.3914 45.4288 36.2646 47.2761C33.1377 49.1233 29.5727 50.0981 25.941 50.0988ZM6.81455 36.6144C6.24565 35.0164 5.88001 33.3532 5.7262 31.664L7.62934 31.4898C7.76802 33.0195 8.09896 34.5257 8.61439 35.9726L6.81455 36.6144ZM7.55215 29.7994H5.64162C5.63686 25.9117 6.75256 22.105 8.85515 18.835L10.4621 19.8674C8.55815 22.8298 7.54792 26.2779 7.55215 29.7994Z" fill="#0686D8"/>
</g>
<defs>
<clipPath id="clip0_4319_17717">
<rect width="52.4197" height="56" fill="white"/>
</clipPath>
</defs>
</svg>
