<svg width="55" height="57" viewBox="0 0 55 57" fill="none" xmlns="http://www.w3.org/2000/svg">
<g clip-path="url(#clip0_4319_17661)">
<path d="M2.24992 13.3686C2.24991 13.5902 2.18391 13.8069 2.06028 13.9911C1.93666 14.1754 1.76095 14.319 1.55538 14.4038C1.34981 14.4886 1.12359 14.5108 0.905374 14.4675C0.687153 14.4243 0.486769 14.3174 0.329456 14.1607C0.172142 14.004 0.0649745 13.8044 0.0215951 13.587C-0.0217844 13.3696 0.00049688 13.1443 0.0856735 12.9396C0.17085 12.7349 0.315073 12.5599 0.500095 12.4368C0.685117 12.3137 0.902695 12.248 1.1252 12.248C1.27292 12.2481 1.41914 12.2771 1.55562 12.3334C1.69209 12.3897 1.8161 12.4722 1.92054 12.5763C2.02499 12.6803 2.10789 12.8039 2.1644 12.9398C2.22091 13.0758 2.24994 13.2215 2.24992 13.3686Z" fill="#5FB0E5"/>
<path d="M47.7743 13.3689C47.7743 13.5285 47.7268 13.6846 47.6377 13.8173C47.5487 13.9501 47.422 14.0536 47.2739 14.1146C47.1258 14.1757 46.9629 14.1917 46.8057 14.1606C46.6484 14.1294 46.504 14.0525 46.3907 13.9396C46.2773 13.8267 46.2002 13.6829 46.1689 13.5263C46.1376 13.3697 46.1536 13.2073 46.215 13.0598C46.2764 12.9123 46.3803 12.7863 46.5136 12.6976C46.6469 12.6089 46.8035 12.5615 46.9638 12.5615C47.0703 12.5615 47.1757 12.5824 47.2741 12.623C47.3724 12.6636 47.4617 12.723 47.537 12.798C47.6123 12.8729 47.672 12.962 47.7127 13.0599C47.7534 13.1579 47.7743 13.2628 47.7743 13.3689V13.3689Z" fill="#5FB0E5"/>
<path d="M3.87613 2.50805C3.87615 2.83144 3.77994 3.1476 3.59956 3.41649C3.41919 3.68539 3.16282 3.89501 2.86286 4.01877C2.5629 4.14254 2.23282 4.17488 1.91437 4.1118C1.59593 4.04872 1.30338 3.89307 1.07378 3.66441C0.844191 3.43574 0.687802 3.14434 0.624447 2.82716C0.561093 2.50999 0.593607 2.18123 0.717846 1.88245C0.842084 1.58367 1.0525 1.32835 1.32245 1.14867C1.59241 0.968997 1.90977 0.87306 2.23445 0.873047C2.45003 0.87303 2.66352 0.915315 2.8627 0.997475C3.06188 1.07964 3.2429 1.20009 3.39535 1.35192C3.54779 1.50375 3.6687 1.68399 3.75121 1.88237C3.83371 2.08075 3.87613 2.29332 3.87613 2.50805Z" fill="#5FB0E5"/>
<path d="M11.8499 14.4277C12.4375 14.4277 12.9137 13.9534 12.9137 13.3682C12.9137 12.783 12.4375 12.3086 11.8499 12.3086C11.2624 12.3086 10.7861 12.783 10.7861 13.3682C10.7861 13.9534 11.2624 14.4277 11.8499 14.4277Z" fill="#5FB0E5"/>
<path d="M40.9369 4.51295C41.7822 4.51295 42.4675 3.83039 42.4675 2.98841C42.4675 2.14643 41.7822 1.46387 40.9369 1.46387C40.0915 1.46387 39.4062 2.14643 39.4062 2.98841C39.4062 3.83039 40.0915 4.51295 40.9369 4.51295Z" fill="#5FB0E5"/>
<path d="M54.1639 9.35869C54.1639 9.62993 54.0832 9.89503 53.9319 10.1206C53.7806 10.3461 53.5656 10.5219 53.314 10.6257C53.0624 10.7295 52.7856 10.7567 52.5185 10.7038C52.2514 10.6509 52.006 10.5202 51.8134 10.3284C51.6209 10.1366 51.4897 9.89226 51.4366 9.62623C51.3835 9.36019 51.4107 9.08449 51.515 8.83389C51.6192 8.58329 51.7957 8.36911 52.0221 8.21842C52.2486 8.06773 52.5147 7.98729 52.7871 7.9873C53.1522 7.98733 53.5024 8.13184 53.7606 8.38901C54.0188 8.64618 54.1639 8.99499 54.1639 9.35869Z" fill="#5FB0E5"/>
<path d="M50.2814 17.6562H11.3223C9.93831 17.6562 8.81641 18.7737 8.81641 20.1521V38.2073C8.81641 39.5857 9.93831 40.7031 11.3223 40.7031H50.2814C51.6654 40.7031 52.7873 39.5857 52.7873 38.2073V20.1521C52.7873 18.7737 51.6654 17.6562 50.2814 17.6562Z" fill="#D2E9F7"/>
<path d="M52.8714 40.5779L51.4438 39.2741C51.6854 39.0121 51.819 38.669 51.8183 38.3132V20.0451C51.8177 19.6675 51.6669 19.3055 51.3988 19.0385C51.1307 18.7715 50.7674 18.6213 50.3883 18.6207H11.2155C11.0061 18.6204 10.7991 18.666 10.6093 18.7543C10.4196 18.8427 10.2518 18.9717 10.1177 19.132L8.63086 17.896C8.94629 17.5183 9.34147 17.2146 9.78821 17.0064C10.235 16.7982 10.7223 16.6906 11.2155 16.6914H50.3883C51.2809 16.6925 52.1366 17.0462 52.7678 17.6749C53.399 18.3036 53.7542 19.156 53.7553 20.0451V38.3132C53.7563 39.1518 53.4409 39.9602 52.8714 40.5779V40.5779Z" fill="#0686D8"/>
<path d="M30.7269 36.8314C29.1864 36.8008 27.6896 36.3159 26.4258 35.4381C25.162 34.5603 24.188 33.3289 23.6268 31.8996C23.0657 30.4704 22.9426 28.9075 23.2733 27.4087C23.6039 25.9098 24.3734 24.5421 25.4843 23.4788C26.5953 22.4155 27.9979 21.7042 29.5147 21.4349C31.0316 21.1656 32.5946 21.3502 34.0061 21.9657C35.4175 22.5811 36.614 23.5996 37.4443 24.8924C38.2746 26.1851 38.7014 27.694 38.6707 29.2284C38.6294 31.2858 37.7693 33.2426 36.2795 34.6684C34.7898 36.0943 32.7925 36.8723 30.7269 36.8314Z" fill="white"/>
<path d="M42.9938 30.9458C42.5787 30.9375 42.1754 30.8068 41.8349 30.5703C41.4943 30.3338 41.2319 30.002 41.0807 29.6169C40.9295 29.2318 40.8963 28.8106 40.9854 28.4067C41.0745 28.0029 41.2819 27.6344 41.5812 27.3479C41.8806 27.0614 42.2585 26.8697 42.6672 26.7971C43.076 26.7245 43.4971 26.7743 43.8774 26.9401C44.2577 27.106 44.5801 27.3804 44.8038 27.7288C45.0276 28.0771 45.1426 28.4836 45.1343 28.8971C45.1288 29.1716 45.0691 29.4424 44.9585 29.6939C44.848 29.9454 44.6888 30.1727 44.4901 30.363C44.2913 30.5532 44.0568 30.7026 43.8001 30.8026C43.5434 30.9026 43.2694 30.9513 42.9938 30.9458Z" fill="white"/>
<path d="M18.2164 30.9458C17.8014 30.9375 17.398 30.8069 17.0575 30.5703C16.717 30.3338 16.4545 30.002 16.3033 29.6169C16.1521 29.2318 16.119 28.8106 16.2081 28.4067C16.2972 28.0029 16.5045 27.6344 16.8039 27.3479C17.1032 27.0614 17.4812 26.8697 17.8899 26.7971C18.2986 26.7245 18.7197 26.7743 19.1001 26.9401C19.4804 27.106 19.8028 27.3804 20.0265 27.7288C20.2502 28.0771 20.3652 28.4836 20.357 28.8971C20.3459 29.4515 20.1141 29.9788 19.7127 30.363C19.3113 30.7472 18.773 30.9568 18.2164 30.9458V30.9458Z" fill="white"/>
<path d="M30.8847 37.798C30.8254 37.798 30.7674 37.7979 30.7082 37.7967C28.3874 37.7565 26.177 36.8028 24.5603 35.1439C22.9435 33.4851 22.0521 31.256 22.0807 28.9443C22.1094 26.6326 23.0558 24.4263 24.7132 22.8077C26.3705 21.1891 28.6039 20.29 30.9249 20.3069C33.246 20.3238 35.4659 21.2553 37.0992 22.8979C38.7326 24.5405 39.6466 26.7604 39.6412 29.0723C39.6359 31.3842 38.7118 33.6 37.0709 35.2351C35.43 36.8702 33.2058 37.7917 30.8847 37.798ZM30.8797 22.2793C29.0823 22.2797 27.3577 22.9867 26.0806 24.2465C24.8036 25.5064 24.0775 27.2173 24.0599 29.0075C24.0422 30.7976 24.7346 32.5223 25.9866 33.8069C27.2386 35.0914 28.949 35.8318 30.746 35.8674C32.5549 35.9033 34.3042 35.2221 35.6088 33.9735C36.9134 32.7249 37.6666 31.0113 37.7027 29.2096C37.7389 27.4079 37.0549 25.6657 35.8013 24.3662C34.5478 23.0668 32.8273 22.3165 31.0184 22.2805C30.9718 22.2793 30.9263 22.2793 30.8797 22.2793V22.2793Z" fill="#0686D8"/>
<path d="M31.7328 32.9771H27.7617V31.0478H31.7328C31.8671 31.0478 31.9959 30.9946 32.0909 30.9001C32.1859 30.8055 32.2392 30.6773 32.2392 30.5435C32.2392 30.4097 32.1859 30.2814 32.0909 30.1869C31.9959 30.0923 31.8671 30.0392 31.7328 30.0392H30.1445C29.4965 30.0392 28.8751 29.7828 28.4168 29.3264C27.9586 28.87 27.7012 28.2509 27.7012 27.6055C27.7012 26.9601 27.9586 26.3411 28.4168 25.8847C28.8751 25.4283 29.4965 25.1719 30.1445 25.1719H34.0016V27.1012H30.1445C30.0102 27.1012 29.8814 27.1544 29.7864 27.2489C29.6915 27.3435 29.6382 27.4717 29.6382 27.6055C29.6382 27.7392 29.6915 27.8676 29.7864 27.9621C29.8814 28.0567 30.0102 28.1099 30.1445 28.1099H31.7328C32.3809 28.1099 33.0024 28.3662 33.4606 28.8226C33.9188 29.279 34.1763 29.8981 34.1763 30.5435C34.1763 31.1889 33.9188 31.8079 33.4606 32.2643C33.0024 32.7207 32.3809 32.9771 31.7328 32.9771Z" fill="#0686D8"/>
<path d="M31.8501 23.7061H29.9131V34.4416H31.8501V23.7061Z" fill="#0686D8"/>
<path d="M44.8963 37.9642H40.9365V36.0349H44.378C44.5687 35.0247 45.061 34.0954 45.7907 33.3686C46.5204 32.6418 47.4535 32.1514 48.4677 31.9615V26.1873C47.453 25.9984 46.5195 25.5083 45.7896 24.7813C45.0597 24.0543 44.5677 23.1245 44.378 22.1139H41.5708V20.1846H44.9291C45.2615 20.184 45.5815 20.3098 45.8241 20.5362C46.0666 20.7626 46.2133 21.0725 46.2343 21.403C46.2911 22.1606 46.6181 22.873 47.1563 23.4114C47.6945 23.9498 48.4084 24.2786 49.1688 24.3384C49.5041 24.3606 49.8183 24.5089 50.0478 24.7533C50.2773 24.9978 50.4049 25.32 50.4047 25.6546V32.4939C50.4046 32.8292 50.2764 33.1519 50.0462 33.3966C49.816 33.6413 49.5011 33.7896 49.1651 33.8115C48.4096 33.8718 47.7002 34.1975 47.1636 34.7306C46.6269 35.2637 46.298 35.9695 46.2356 36.7218C46.2119 37.0593 46.0604 37.3754 45.8118 37.606C45.5632 37.8366 45.236 37.9647 44.8963 37.9642V37.9642Z" fill="#0686D8"/>
<path d="M20.349 37.9642H16.3892C16.0497 37.9639 15.7229 37.8356 15.4743 37.6051C15.2258 37.3747 15.074 37.0591 15.0493 36.7218C14.9866 35.9689 14.6571 35.2628 14.1199 34.7295C13.5827 34.1962 12.8728 33.8705 12.1167 33.8104C11.7814 33.7883 11.4671 33.6399 11.2376 33.3954C11.0081 33.151 10.8805 32.8286 10.8809 32.4939V25.6546C10.8809 25.3193 11.009 24.9965 11.2392 24.7518C11.4694 24.5071 11.7845 24.3588 12.1204 24.337C12.8776 24.2692 13.5866 23.9378 14.1227 23.401C14.6588 22.8641 14.9878 22.1562 15.0518 21.4017C15.0728 21.0715 15.2195 20.7617 15.462 20.5356C15.7044 20.3094 16.0243 20.1839 16.3565 20.1846H19.7141V22.1139H16.9076C16.7184 23.1246 16.2263 24.0546 15.4964 24.7817C14.7665 25.5087 13.8327 25.9988 12.8179 26.1873V31.9615C13.832 32.1517 14.7648 32.6421 15.4945 33.3689C16.2242 34.0957 16.7167 35.0248 16.9076 36.0349H20.349V37.9642Z" fill="#0686D8"/>
<path d="M8.8496 20.1191H47.8088C48.4734 20.1191 49.1107 20.3821 49.5807 20.8502C50.0506 21.3182 50.3146 21.9531 50.3146 22.615V40.6701C50.3146 41.3321 50.0506 41.9669 49.5807 42.435C49.1107 42.9031 48.4734 43.166 47.8088 43.166H8.84947C8.52042 43.166 8.19458 43.1015 7.89057 42.9761C7.58656 42.8506 7.31034 42.6668 7.07766 42.435C6.84498 42.2033 6.66041 41.9282 6.53449 41.6254C6.40856 41.3226 6.34375 40.998 6.34375 40.6703V22.615C6.34375 21.9531 6.60776 21.3182 7.0777 20.8502C7.54763 20.3821 8.18501 20.1191 8.8496 20.1191V20.1191Z" fill="#D2E9F7"/>
<path d="M50.3997 43.0409L48.9721 41.7372C49.2133 41.4749 49.3466 41.1318 49.3455 40.7762V22.5081C49.3449 22.1305 49.1941 21.7685 48.926 21.5015C48.6579 21.2345 48.2945 21.0842 47.9154 21.0836H8.74257C8.53313 21.0833 8.32619 21.129 8.13647 21.2174C7.94675 21.3057 7.77888 21.4346 7.64481 21.5949L6.15918 20.3564C6.475 19.9797 6.87011 19.6768 7.31653 19.469C7.76296 19.2613 8.24984 19.1538 8.74257 19.1543H47.9154C48.8081 19.1554 49.6639 19.5092 50.2951 20.1379C50.9263 20.7666 51.2814 21.619 51.2825 22.5081V40.7762C51.2839 41.6147 50.9688 42.423 50.3997 43.0409V43.0409Z" fill="#0686D8"/>
<path d="M28.2542 39.2943C26.7138 39.2638 25.217 38.7789 23.9532 37.9011C22.6894 37.0232 21.7153 35.7918 21.1542 34.3626C20.593 32.9333 20.47 31.3704 20.8006 29.8715C21.1313 28.3726 21.9008 27.0051 23.0118 25.9418C24.1227 24.8785 25.5253 24.1671 27.0422 23.8978C28.559 23.6284 30.122 23.8132 31.5334 24.4286C32.9449 25.044 34.1414 26.0625 34.9717 27.3552C35.802 28.648 36.2288 30.1569 36.1981 31.6912C36.1569 33.7487 35.2968 35.7056 33.8071 37.1314C32.3173 38.5572 30.3199 39.3353 28.2542 39.2943V39.2943Z" fill="white"/>
<path d="M40.5212 33.4078C40.1061 33.3996 39.7029 33.2689 39.3623 33.0324C39.0218 32.7959 38.7593 32.464 38.6081 32.0789C38.4569 31.6938 38.4237 31.2726 38.5127 30.8688C38.6018 30.4649 38.8092 30.0963 39.1085 29.8098C39.4079 29.5233 39.7858 29.3316 40.1945 29.259C40.6033 29.1864 41.0244 29.2362 41.4048 29.402C41.7851 29.5678 42.1075 29.8423 42.3313 30.1906C42.555 30.539 42.6701 30.9456 42.6618 31.359C42.6507 31.9134 42.419 32.4407 42.0176 32.8249C41.6162 33.2091 41.0779 33.4188 40.5212 33.4078V33.4078Z" fill="white"/>
<path d="M15.7439 33.4078C15.3288 33.3996 14.9255 33.2689 14.585 33.0324C14.2444 32.7959 13.982 32.464 13.8308 32.0789C13.6795 31.6938 13.6463 31.2726 13.7354 30.8688C13.8245 30.4649 14.0318 30.0963 14.3312 29.8098C14.6305 29.5233 15.0085 29.3316 15.4172 29.259C15.8259 29.1864 16.2471 29.2362 16.6274 29.402C17.0078 29.5678 17.3302 29.8423 17.5539 30.1906C17.7777 30.539 17.8928 30.9456 17.8845 31.359C17.8734 31.9134 17.6417 32.4407 17.2402 32.8249C16.8388 33.2091 16.3005 33.4188 15.7439 33.4078V33.4078Z" fill="white"/>
<path d="M28.4112 40.2601C28.3526 40.2601 28.2934 40.2601 28.2341 40.2588C25.9132 40.2186 23.7027 39.2648 22.0859 37.6058C20.4691 35.9469 19.5775 33.7178 19.6061 31.406C19.6348 29.0941 20.5812 26.8877 22.2386 25.2689C23.896 23.6502 26.1295 22.751 28.4507 22.7678C30.7719 22.7847 32.9919 23.7162 34.6254 25.3588C36.2589 27.0014 37.173 29.2215 37.1678 31.5335C37.1626 33.8455 36.2386 36.0614 34.5977 37.6966C32.9568 39.3319 30.7325 40.2536 28.4112 40.2601ZM28.4055 24.7428C26.6086 24.7462 24.886 25.4581 23.6146 26.7229C22.3431 27.9877 21.626 29.7024 21.6202 31.4923C21.6145 33.2821 22.3204 35.0014 23.5837 36.2743C24.847 37.5472 26.5649 38.2701 28.3618 38.285C30.1587 38.3 31.8885 37.6056 33.173 36.3539C34.4574 35.1022 35.192 33.3949 35.2162 31.6052C35.2404 29.8155 34.5522 28.0891 33.3021 26.8034C32.0519 25.5176 30.3416 24.7772 28.5449 24.7439C28.4988 24.7428 28.4522 24.7428 28.4055 24.7428Z" fill="#0686D8"/>
<path d="M29.2602 35.439H25.289V33.5096H29.2602C29.3945 33.5096 29.5233 33.4566 29.6182 33.362C29.7132 33.2674 29.7665 33.1391 29.7665 33.0053C29.7665 32.8716 29.7132 32.7434 29.6182 32.6488C29.5233 32.5542 29.3945 32.501 29.2602 32.501H27.6719C27.0238 32.501 26.4023 32.2446 25.9441 31.7882C25.4859 31.3318 25.2285 30.7128 25.2285 30.0674C25.2285 29.422 25.4859 28.803 25.9441 28.3466C26.4023 27.8902 27.0238 27.6338 27.6719 27.6338H31.5288V29.5631H27.6719C27.5376 29.5631 27.4087 29.6162 27.3138 29.7108C27.2188 29.8053 27.1655 29.9337 27.1655 30.0674C27.1655 30.2012 27.2188 30.3295 27.3138 30.4241C27.4087 30.5186 27.5376 30.5717 27.6719 30.5717H29.2602C29.9082 30.5717 30.5296 30.8281 30.9879 31.2845C31.4461 31.7409 31.7035 32.3599 31.7035 33.0053C31.7035 33.6508 31.4461 34.2698 30.9879 34.7262C30.5296 35.1826 29.9082 35.439 29.2602 35.439Z" fill="#0686D8"/>
<path d="M29.3784 26.1689H27.4414V36.9032H29.3784V26.1689Z" fill="#0686D8"/>
<path d="M42.4236 40.4269H38.4639V38.4976H41.9054C42.0965 37.4876 42.5891 36.5585 43.3187 35.8318C44.0483 35.1051 44.9811 34.6145 45.9951 34.4242V28.6502C44.9805 28.4613 44.0469 27.9712 43.317 27.2442C42.5872 26.5172 42.0951 25.5874 41.9054 24.5768H39.0994V22.6475H42.4564C42.7887 22.6466 43.1088 22.7721 43.3513 22.9982C43.5939 23.2244 43.7407 23.5342 43.7617 23.8644C43.826 24.6194 44.1555 25.3276 44.6922 25.8645C45.229 26.4014 45.9385 26.7326 46.6962 26.7999C47.0312 26.8234 47.3449 26.9723 47.5742 27.2168C47.8035 27.4612 47.9314 27.783 47.9321 28.1175V34.9555C47.9315 35.2897 47.804 35.6112 47.5752 35.8556C47.3465 36.1 47.0334 36.2491 46.6988 36.2731C45.9421 36.3331 45.2315 36.6589 44.6937 37.1925C44.156 37.7261 43.8262 38.4326 43.7631 39.186C43.7391 39.5234 43.5875 39.839 43.3389 40.0693C43.0903 40.2997 42.7632 40.4275 42.4236 40.4269V40.4269Z" fill="#0686D8"/>
<path d="M17.877 40.4269H13.9172C13.5781 40.4264 13.2517 40.2984 13.0033 40.0686C12.7549 39.8387 12.6028 39.5239 12.5773 39.1871C12.5151 38.4338 12.1859 37.7272 11.6487 37.1934C11.1115 36.6595 10.4011 36.3334 9.64469 36.2731C9.30953 36.2499 8.99561 36.1011 8.76619 35.8566C8.53677 35.6121 8.40886 35.2902 8.4082 34.9555V28.1175C8.40875 27.7833 8.53633 27.4616 8.76525 27.2172C8.99417 26.9727 9.3075 26.8237 9.64225 26.7999C10.4007 26.7333 11.1112 26.4022 11.6485 25.865C12.1859 25.3278 12.5158 24.6189 12.5799 23.8633C12.601 23.5333 12.7477 23.2239 12.99 22.998C13.2323 22.7721 13.552 22.6467 13.8839 22.6475H17.242V24.5768H14.4356C14.2461 25.5875 13.7539 26.5176 13.0239 27.2446C12.2939 27.9716 11.36 28.4616 10.3452 28.6502V34.4229C11.3597 34.6129 12.2929 35.1035 13.0227 35.8305C13.7525 36.5576 14.245 37.4872 14.4356 38.4976H17.877V40.4269Z" fill="#0686D8"/>
<path d="M6.37682 22.582H45.3361C45.6652 22.582 45.991 22.6466 46.2951 22.772C46.5991 22.8974 46.8753 23.0813 47.108 23.3131C47.3407 23.5448 47.5253 23.82 47.6512 24.1228C47.7771 24.4256 47.842 24.7502 47.842 25.0779V43.133C47.842 43.795 47.578 44.4298 47.1081 44.8978C46.6381 45.3659 46.0008 45.6288 45.3362 45.6288H6.37694C5.71235 45.6288 5.07498 45.3658 4.60504 44.8978C4.1351 44.4297 3.87109 43.7949 3.87109 43.1329V25.0778C3.87109 24.4159 4.13509 23.7811 4.605 23.313C5.07492 22.845 5.71226 22.582 6.37682 22.582V22.582Z" fill="#D2E9F7"/>
<path d="M18.2581 44.6631H13.8828V46.5924H18.2581V44.6631Z" fill="#0686D8"/>
<path d="M45.3362 46.5929H21.6325V44.6636H45.3362C45.7438 44.6631 46.1345 44.5017 46.4227 44.2146C46.7108 43.9276 46.8729 43.5385 46.8734 43.1325V25.0779C46.8732 24.6718 46.7112 24.2824 46.423 23.9951C46.1348 23.7078 45.744 23.5461 45.3362 23.5455H6.37653C5.9688 23.5461 5.57799 23.7078 5.2898 23.9951C5.00161 24.2824 4.83961 24.6718 4.83936 25.0779V43.1325C4.83986 43.5385 5.00194 43.9276 5.29011 44.2146C5.57829 44.5017 5.96899 44.6631 6.37653 44.6636H9.88225V46.5929H6.37653C5.45544 46.5918 4.57237 46.227 3.92106 45.5782C3.26975 44.9295 2.90342 44.05 2.90234 43.1325V25.0779C2.90316 24.1603 3.26941 23.2805 3.92074 22.6315C4.57207 21.9825 5.45524 21.6174 6.37653 21.6162H45.3362C46.2575 21.6174 47.1407 21.9825 47.792 22.6315C48.4434 23.2805 48.8096 24.1603 48.8104 25.0779V43.1325C48.8094 44.05 48.443 44.9294 47.7917 45.5782C47.1404 46.2269 46.2573 46.5918 45.3362 46.5929V46.5929Z" fill="#0686D8"/>
<path d="M25.7816 41.7572C24.2411 41.7266 22.7444 41.2417 21.4806 40.3639C20.2168 39.486 19.2427 38.2546 18.6815 36.8254C18.1204 35.3962 17.9973 33.8333 18.328 32.3344C18.6586 30.8355 19.428 29.4679 20.539 28.4046C21.65 27.3413 23.0527 26.63 24.5695 26.3607C26.0864 26.0913 27.6493 26.276 29.0608 26.8914C30.4722 27.5069 31.6687 28.5254 32.499 29.8181C33.3293 31.1109 33.7561 32.6198 33.7254 34.1541C33.6842 36.2116 32.8242 38.1685 31.3344 39.5943C29.8446 41.0201 27.8472 41.7981 25.7816 41.7572V41.7572Z" fill="white"/>
<path d="M38.0485 35.8705C37.6334 35.8623 37.2301 35.7316 36.8895 35.4951C36.549 35.2586 36.2865 34.9267 36.1353 34.5416C35.9841 34.1565 35.951 33.7354 36.0401 33.3315C36.1292 32.9277 36.3366 32.5591 36.6359 32.2726C36.9353 31.9861 37.3132 31.7945 37.7219 31.7219C38.1307 31.6493 38.5518 31.6991 38.9321 31.8649C39.3124 32.0308 39.6349 32.3052 39.8586 32.6535C40.0823 33.0018 40.1973 33.4084 40.189 33.8219C40.1779 34.3763 39.9462 34.9036 39.5447 35.2878C39.1433 35.672 38.6051 35.8816 38.0485 35.8705Z" fill="white"/>
<path d="M13.2711 35.8705C12.856 35.8623 12.4527 35.7316 12.1122 35.4951C11.7717 35.2586 11.5092 34.9267 11.358 34.5416C11.2068 34.1565 11.1737 33.7354 11.2628 33.3315C11.3519 32.9277 11.5592 32.5591 11.8586 32.2726C12.1579 31.9861 12.5359 31.7945 12.9446 31.7219C13.3533 31.6493 13.7744 31.6991 14.1548 31.8649C14.5351 32.0308 14.8574 32.3052 15.0812 32.6535C15.3049 33.0018 15.4199 33.4084 15.4116 33.8219C15.4005 34.3763 15.1688 34.9036 14.7674 35.2878C14.366 35.672 13.8277 35.8815 13.2711 35.8705V35.8705Z" fill="white"/>
<path d="M25.9393 42.7224C25.8806 42.7224 25.8214 42.7223 25.7621 42.721C23.441 42.6809 21.2303 41.727 19.6134 40.0679C17.9965 38.4089 17.1049 36.1796 17.1335 33.8676C17.1621 31.5556 18.1086 29.349 19.7661 27.7301C21.4237 26.1113 23.6573 25.2119 25.9787 25.2287C28.3 25.2456 30.5202 26.1773 32.1539 27.82C33.7875 29.4627 34.7017 31.6829 34.6965 33.9951C34.6913 36.3073 33.7671 38.5233 32.1261 40.1588C30.4851 41.7942 28.2607 42.7159 25.9393 42.7224V42.7224ZM25.9336 27.2049C24.1312 27.2066 22.4028 27.9191 21.1263 29.1864C19.8498 30.4538 19.1289 32.173 19.1214 33.9682C19.1139 35.7634 19.8204 37.4885 21.0862 38.7664C22.3521 40.0443 24.0745 40.771 25.8768 40.7877C27.6792 40.8043 29.4148 40.1095 30.7042 38.8552C31.9937 37.6009 32.7321 35.8891 32.758 34.0941C32.7839 32.2991 32.0952 30.5668 30.8425 29.2761C29.5898 27.9854 27.8749 27.2412 26.0729 27.2062C26.0269 27.2049 25.9803 27.2049 25.9336 27.2049V27.2049Z" fill="#0686D8"/>
<path d="M26.7874 37.9018H22.8162V35.9725H26.7874C26.9217 35.9725 27.0505 35.9193 27.1454 35.8247C27.2404 35.7301 27.2937 35.6019 27.2937 35.4681C27.2937 35.3344 27.2404 35.2061 27.1454 35.1115C27.0505 35.0169 26.9217 34.9638 26.7874 34.9638H25.1992C24.8783 34.9638 24.5606 34.9009 24.2642 34.7786C23.9678 34.6563 23.6984 34.477 23.4715 34.251C23.2446 34.025 23.0647 33.7568 22.9419 33.4615C22.8191 33.1663 22.7559 32.8498 22.7559 32.5302C22.7559 32.2106 22.8191 31.8942 22.9419 31.5989C23.0647 31.3037 23.2446 31.0354 23.4715 30.8094C23.6984 30.5834 23.9678 30.4042 24.2642 30.2819C24.5606 30.1597 24.8783 30.0967 25.1992 30.0967H29.0561V32.026H25.1992C25.1327 32.026 25.0668 32.039 25.0054 32.0644C24.944 32.0897 24.8882 32.1268 24.8412 32.1737C24.7942 32.2205 24.7569 32.2761 24.7314 32.3373C24.706 32.3984 24.6929 32.464 24.6929 32.5302C24.6929 32.5964 24.706 32.662 24.7314 32.7232C24.7569 32.7844 24.7942 32.84 24.8412 32.8868C24.8882 32.9336 24.944 32.9708 25.0054 32.9961C25.0668 33.0215 25.1327 33.0345 25.1992 33.0345H26.7874C27.4354 33.0345 28.0569 33.2909 28.5151 33.7473C28.9733 34.2037 29.2307 34.8227 29.2307 35.4681C29.2307 36.1136 28.9733 36.7326 28.5151 37.189C28.0569 37.6453 27.4354 37.9018 26.7874 37.9018Z" fill="#0686D8"/>
<path d="M26.9048 28.6318H24.9678V39.3661H26.9048V28.6318Z" fill="#0686D8"/>
<path d="M39.951 42.8901H35.9912V40.9608H39.4314C39.6223 39.9506 40.115 39.0213 40.8449 38.2945C41.5749 37.5677 42.508 37.0773 43.5224 36.8874V31.1133C42.5075 30.9246 41.5737 30.4343 40.8438 29.707C40.1138 28.9798 39.6219 28.0496 39.4327 27.0387H36.6255V25.1094H39.9838C40.3148 25.1096 40.6334 25.2348 40.8754 25.4597C41.1173 25.6847 41.2646 25.9926 41.2877 26.3215C41.3432 27.0804 41.6699 27.7943 42.2085 28.334C42.7471 28.8737 43.4619 29.2033 44.2235 29.2632C44.5586 29.2864 44.8725 29.4352 45.1018 29.6797C45.3311 29.9242 45.4589 30.2462 45.4594 30.5808V37.4187C45.459 37.7529 45.3315 38.0746 45.1027 38.3191C44.8739 38.5635 44.5607 38.7126 44.226 38.7363C43.4694 38.7958 42.7587 39.1213 42.2209 39.6547C41.6831 40.1881 41.3533 40.8946 41.2903 41.6479C41.2654 41.985 41.1136 42.3003 40.8653 42.5306C40.6169 42.761 40.2903 42.8894 39.951 42.8901V42.8901Z" fill="#0686D8"/>
<path d="M15.4037 42.8901H11.4439C11.1045 42.8898 10.7777 42.7615 10.5293 42.5311C10.2808 42.3007 10.1291 41.9852 10.1047 41.6479C10.0418 40.895 9.71233 40.1888 9.17502 39.6554C8.63771 39.1221 7.92758 38.7963 7.1714 38.7363C6.83634 38.713 6.52259 38.5641 6.2933 38.3196C6.06401 38.0751 5.93615 37.7532 5.93555 37.4187V30.5808C5.93604 30.2466 6.06348 29.925 6.29227 29.6806C6.52107 29.4362 6.83431 29.287 7.16896 29.2632C7.93011 29.204 8.64474 28.8753 9.18361 28.3366C9.72248 27.7979 10.05 27.0848 10.1066 26.3265C10.1282 25.9965 10.275 25.6871 10.5173 25.4611C10.7596 25.235 11.0792 25.1093 11.4111 25.1094H14.7688V27.0387H11.9629C11.7736 28.0495 11.2815 28.9795 10.5514 29.7066C9.82135 30.4336 8.88745 30.9236 7.87256 31.1121V36.8862C8.88684 37.0765 9.8199 37.5672 10.5497 38.2942C11.2794 39.0211 11.772 39.9505 11.9629 40.9608H15.4037V42.8901Z" fill="#0686D8"/>
<path d="M15.1196 14.5027L13.75 13.1385C15.6232 11.2677 17.8435 9.7772 20.2874 8.74982C23.6934 7.31502 27.4249 6.82208 31.0885 7.32301C34.7522 7.82395 38.2123 9.30017 41.1041 11.5961L39.896 13.1058C36.3165 10.2631 31.8107 8.83386 27.24 9.09155C22.6692 9.34923 18.3541 11.2757 15.1196 14.5027V14.5027Z" fill="#0686D8"/>
<path d="M35.4199 12.298L40.0558 11.9931L39.7472 7.37695L41.8444 9.20594L42.1517 13.8208L37.5184 14.127L35.4199 12.298Z" fill="#0686D8"/>
<path d="M28.2932 56.6525C23.6383 56.6593 19.1199 55.0866 15.4824 52.1934L16.6906 50.6861C20.2699 53.5295 24.7759 54.959 29.3469 54.7011C33.9178 54.4432 38.233 52.5159 41.467 49.2881L42.8365 50.6522C40.9287 52.5572 38.6618 54.0679 36.166 55.0976C33.6702 56.1273 30.9947 56.6557 28.2932 56.6525Z" fill="#0686D8"/>
<path d="M21.1663 51.4931L16.5317 51.7979L16.8403 56.4141L14.7419 54.5851L14.4346 49.9702L19.0692 49.6641L21.1663 51.4931Z" fill="#0686D8"/>
</g>
<defs>
<clipPath id="clip0_4319_17661">
<rect width="54.1639" height="55.7787" fill="white" transform="translate(0 0.873047)"/>
</clipPath>
</defs>
</svg>
