<svg width="48" height="48" viewBox="0 0 48 48" fill="none" xmlns="http://www.w3.org/2000/svg">
<path d="M24 0C10.7453 0 0 10.7453 0 24C0 37.2547 10.7453 48 24 48C37.2547 48 48 37.2547 48 24C48 10.7453 37.2547 0 24 0ZM37.5005 11.1546L32.1269 36.3908C32.0261 36.8863 31.4616 37.1291 31.0328 36.8605L22.7691 31.3798L18.4225 35.4247C18.0355 35.7557 17.4364 35.5946 17.268 35.1137L14.4379 26.1877L6.83809 23.0709C6.25503 22.8052 6.2633 21.8765 6.86097 21.6444L36.5281 10.335C37.0625 10.1277 37.6144 10.593 37.5005 11.1546Z" fill="white"/>
<path d="M18.181 32.4665L18.6638 27.8779L32.0665 14.777L15.8867 25.4025L18.181 32.4665Z" fill="white"/>
</svg>
