<svg width="48" height="48" viewBox="0 0 48 48" fill="none" xmlns="http://www.w3.org/2000/svg">
    <path d="M24 0C10.7453 0 0 10.7453 0 24C0 37.2547 10.7453 48 24 48C37.2547 48 48 37.2547 48 24C48 10.7453 37.2547 0 24 0ZM34.4075 27.1723C34.5964 27.4059 35.0456 27.861 35.7562 28.5385H35.7727L35.7893 28.5545L35.8058 28.5715L35.8394 28.6046C37.4046 30.0589 38.4646 31.2859 39.02 32.285C39.0535 32.34 39.0896 32.4101 39.1285 32.4934C39.1669 32.5766 39.2059 32.7236 39.2448 32.9343C39.2833 33.146 39.2803 33.3339 39.2365 33.5003C39.1922 33.6663 39.0535 33.8201 38.8204 33.9583C38.5873 34.0975 38.2597 34.1666 37.8378 34.1666L33.5748 34.2338C33.3086 34.2893 32.9976 34.2615 32.6423 34.1506C32.2865 34.0391 31.9984 33.9169 31.7764 33.7841L31.4431 33.5835C31.1097 33.3504 30.7213 32.9951 30.2774 32.5182C29.8331 32.0407 29.453 31.6105 29.1366 31.2275C28.8202 30.8444 28.4815 30.5232 28.1204 30.2614C27.7592 30.0005 27.4458 29.9143 27.1796 30.0034C27.1465 30.0151 27.1017 30.0346 27.0462 30.0618C26.9903 30.0896 26.8963 30.1694 26.763 30.3032C26.6296 30.4366 26.5104 30.6006 26.4048 30.7943C26.2992 30.989 26.2047 31.2776 26.1215 31.6606C26.0383 32.0432 26.0018 32.4739 26.0135 32.9513C26.0135 33.1173 25.9935 33.2706 25.9551 33.4093C25.9161 33.548 25.8743 33.6507 25.83 33.7169L25.7633 33.8001C25.5633 34.0118 25.2693 34.1335 24.8809 34.1666H22.9658C22.1773 34.2114 21.367 34.1199 20.5347 33.8921C19.7025 33.6639 18.9719 33.3704 18.3451 33.0092C17.7172 32.6491 17.1458 32.2826 16.6299 31.9108C16.1136 31.5385 15.7223 31.2197 15.456 30.9534L15.0399 30.5534C14.9289 30.4429 14.7761 30.276 14.5819 30.0535C14.3877 29.8316 13.9911 29.3269 13.3915 28.5385C12.7919 27.75 12.2034 26.9124 11.6262 26.0237C11.049 25.1355 10.3691 23.964 9.58598 22.5097C8.80337 21.056 8.07917 19.5462 7.41288 17.9805C7.3462 17.8034 7.31262 17.6535 7.31262 17.5313C7.31262 17.4096 7.32917 17.3206 7.36275 17.2646L7.42943 17.1648C7.59588 16.9536 7.91223 16.848 8.37849 16.848L12.9413 16.8149C13.0746 16.8373 13.2021 16.8733 13.3243 16.9234C13.4465 16.9731 13.5355 17.0203 13.591 17.0646L13.6742 17.1147C13.8519 17.2373 13.9848 17.4145 14.0738 17.6476C14.2957 18.2034 14.5513 18.7777 14.8399 19.3715C15.1285 19.9653 15.3563 20.4179 15.5227 20.7284L15.7889 21.2117C16.1106 21.8775 16.4216 22.4552 16.7214 22.9434C17.0217 23.432 17.2904 23.8126 17.5294 24.0842C17.7678 24.3563 17.9981 24.5704 18.2205 24.7252C18.4424 24.8809 18.6312 24.9588 18.787 24.9588C18.9422 24.9588 19.0921 24.9311 19.2367 24.8756C19.2586 24.8644 19.2863 24.8366 19.3199 24.7923C19.3535 24.7481 19.4197 24.6259 19.52 24.4254C19.6197 24.2258 19.6947 23.965 19.7448 23.6428C19.7949 23.3215 19.8475 22.8718 19.903 22.2946C19.9585 21.7169 19.9585 21.0234 19.903 20.213C19.8806 19.7687 19.8305 19.3637 19.7531 18.9972C19.6752 18.6312 19.5973 18.3757 19.52 18.2312L19.4197 18.0316C19.1423 17.6544 18.6707 17.4155 18.0044 17.3152C17.8598 17.2938 17.8876 17.1604 18.0876 16.9161C18.2764 16.7049 18.4872 16.5389 18.7203 16.4163C19.3087 16.1282 20.6355 15.9948 22.7005 16.0162C23.6106 16.0279 24.3602 16.0994 24.9486 16.2328C25.1705 16.2888 25.3564 16.3632 25.5063 16.4577C25.6562 16.5516 25.7701 16.6854 25.848 16.8567C25.9254 17.029 25.9838 17.2067 26.0227 17.3897C26.0616 17.5732 26.0811 17.8262 26.0811 18.1475C26.0811 18.4697 26.0758 18.7753 26.0646 19.0634C26.0534 19.352 26.0397 19.7438 26.0232 20.2373C26.0067 20.7313 25.9979 21.1898 25.9979 21.6113C25.9979 21.7339 25.9925 21.9666 25.9813 22.3107C25.9701 22.6553 25.9667 22.9215 25.9731 23.1098C25.9784 23.2987 25.9979 23.524 26.031 23.7844C26.0646 24.0453 26.1283 24.2623 26.2227 24.4336C26.3167 24.6059 26.4418 24.7417 26.5975 24.8415C26.6861 24.8644 26.7805 24.8863 26.8808 24.9087C26.9805 24.9306 27.1246 24.8702 27.3134 24.7252C27.5018 24.5811 27.713 24.3894 27.9461 24.1509C28.1793 23.9129 28.4679 23.541 28.812 23.0354C29.1556 22.5312 29.5333 21.934 29.944 21.2453C30.6103 20.0909 31.2041 18.8415 31.7258 17.4982C31.7701 17.3868 31.8256 17.2899 31.8923 17.2067C31.959 17.123 32.0198 17.0646 32.0753 17.0315L32.142 16.9813C32.1639 16.9701 32.1916 16.9565 32.2252 16.94C32.2588 16.9239 32.3308 16.9069 32.4418 16.8898C32.5527 16.8738 32.6637 16.8709 32.7751 16.8821L37.5711 16.848C38.0037 16.793 38.359 16.8066 38.6364 16.8894C38.9139 16.9726 39.0861 17.0646 39.1528 17.1643L39.2531 17.3308C39.5081 18.0419 38.6759 19.6728 36.7554 22.2265C36.4886 22.5823 36.1275 23.0543 35.6729 23.6423C34.8071 24.7529 34.3078 25.48 34.1754 25.8251C33.9856 26.2792 34.0634 26.7289 34.4075 27.1723Z" fill="white" />
</svg>