<svg width="48" height="48" viewBox="0 0 48 48" fill="none" xmlns="http://www.w3.org/2000/svg">
<path d="M21.2764 27.5121L28.7087 23.5693L21.2764 19.7064V27.5121Z" fill="white"/>
<path d="M24 0C10.7453 0 0 10.7453 0 24C0 37.2547 10.7453 48 24 48C37.2547 48 48 37.2547 48 24C48 10.7453 37.2547 0 24 0ZM37.4002 29.5897C37.0805 31.6144 36.1017 32.7138 34.0435 32.9465C31.7433 33.2064 26.5717 33.3261 24.273 33.3261C21.8946 33.3261 17.084 33.2263 14.6827 33.0263C12.6186 32.8545 11.2101 31.7015 10.9263 29.6496C10.72 28.1554 10.5866 26.3795 10.5866 23.5556C10.5866 20.4121 10.7 19.0819 10.9663 17.6617C11.3464 15.6351 12.3139 14.6535 14.5226 14.4252C16.8402 14.1853 19.0313 14.0655 23.9333 14.0655C26.3298 14.0655 31.4966 14.1896 33.8834 14.4053C35.9679 14.5936 37.1423 15.8688 37.3997 17.9017C37.5793 19.3204 37.7395 21.3514 37.7395 23.5362C37.7399 27.3718 37.4002 29.5897 37.4002 29.5897Z" fill="white"/>
</svg>
