<svg viewBox="0 0 157 48" fill="none" xmlns="http://www.w3.org/2000/svg">
    <path d="M68.9363 14.8345V20.7929L77.2229 26.1784L85.5159 20.7929V14.8345L77.2229 20.11L68.9363 14.8345Z" fill="#3B82F6" />
    <path d="M18.1363 24.0576C18.4528 24.3368 18.7506 24.6347 19.0299 24.9511C19.3277 25.2676 19.579 25.6027 19.7838 25.9564C20.0072 26.3101 20.184 26.6917 20.3144 27.1013C20.4447 27.5108 20.5098 27.9483 20.5098 28.4137C20.5098 29.1397 20.3795 29.8005 20.1189 30.3962C19.8583 30.9919 19.486 31.5039 19.0019 31.932C18.5366 32.3416 17.9781 32.6581 17.3265 32.8814C16.675 33.1234 15.9676 33.2444 15.2043 33.2444C14.59 33.2444 13.985 33.1514 13.3893 32.9652C12.8122 32.7977 12.2724 32.5743 11.7697 32.295C11.2857 31.9972 10.8669 31.6714 10.5132 31.3177C10.1595 30.9454 9.90817 30.5731 9.75925 30.2008L10.8203 27.0175C11.3416 27.7435 12.0117 28.3392 12.8308 28.8046C13.6499 29.27 14.4597 29.5027 15.2602 29.5027C15.707 29.5027 16.0886 29.4375 16.4051 29.3072C16.7401 29.1583 16.9077 28.8977 16.9077 28.5254C16.9077 28.2089 16.7774 27.9204 16.5167 27.6597C16.2747 27.3991 16.0327 27.1757 15.7907 26.9896C15.7349 26.9523 15.5487 26.8127 15.2323 26.5707C14.9344 26.3287 14.59 26.0495 14.1991 25.733C13.8082 25.4165 13.4172 25.1001 13.0263 24.7836C12.654 24.4485 12.3561 24.1786 12.1327 23.9738C11.6674 23.527 11.2485 23.0058 10.8762 22.4101C10.5225 21.8144 10.3456 21.1256 10.3456 20.3438C10.3456 19.6736 10.4666 19.0779 10.7086 18.5567C10.9693 18.0168 11.3137 17.57 11.7418 17.2163C12.1886 16.844 12.7098 16.5648 13.3055 16.3786C13.9012 16.1738 14.5342 16.0715 15.2043 16.0715C16.2468 16.0715 17.1869 16.3135 18.0246 16.7975C18.8623 17.2629 19.4673 17.8027 19.8397 18.417L19.1416 21.6841C18.8623 21.3862 18.5552 21.1163 18.2201 20.8743C17.885 20.6323 17.5406 20.4368 17.1869 20.2879C16.8332 20.139 16.4795 20.0273 16.1258 19.9528C15.7907 19.8598 15.4836 19.8132 15.2043 19.8132C14.832 19.8132 14.5249 19.8598 14.2829 19.9528C14.0595 20.0459 13.9478 20.2228 13.9478 20.4834C13.9478 20.6881 14.0874 20.9022 14.3666 21.1256C14.6645 21.349 14.9251 21.5538 15.1485 21.7399C15.2788 21.8516 15.4743 22.0099 15.7349 22.2146C16.0141 22.4008 16.3027 22.6149 16.6005 22.8569C16.917 23.0803 17.2148 23.3037 17.4941 23.527C17.7733 23.7504 17.9874 23.9273 18.1363 24.0576ZM23.7764 16.4624H33.2704V20.26H27.3227V22.5218H32.5444V26.3194H27.3227V29.0559H33.2704V32.8535H23.7764V16.4624ZM37.1383 16.4624H46.6323V20.26H40.6846V22.5218H45.9063V26.3194H40.6846V29.0559H46.6323V32.8535H37.1383V16.4624ZM61.5579 24.6719C61.5579 24.0576 61.4369 23.4805 61.1949 22.9407C60.9715 22.4008 60.6457 21.9354 60.2176 21.5445C59.808 21.1535 59.3147 20.8464 58.7376 20.623C58.1605 20.381 57.5276 20.26 56.8388 20.26H54.0465V29.0559H56.8388C57.509 29.0559 58.1233 28.9535 58.6818 28.7488C59.2588 28.5254 59.7615 28.2275 60.1896 27.8552C60.6178 27.4643 60.9529 26.9989 61.1949 26.459C61.4369 25.9192 61.5579 25.3235 61.5579 24.6719ZM55.8894 16.4624C57.2484 16.4624 58.4956 16.6485 59.6312 17.0209C60.7667 17.3746 61.744 17.9051 62.5631 18.6125C63.4008 19.3013 64.0524 20.1576 64.5178 21.1815C64.9832 22.2053 65.2159 23.3688 65.2159 24.6719C65.2159 25.9564 64.9739 27.1106 64.4899 28.1344C64.0245 29.1397 63.3729 29.996 62.5352 30.7034C61.7161 31.3922 60.7388 31.9227 59.6032 32.295C58.4677 32.6674 57.2297 32.8535 55.8894 32.8535H50.5002V16.4624H55.8894Z" fill="currentColor" />
    <path d="M105.37 30.4242C104.867 31.2433 104.057 31.9227 102.94 32.4626C101.842 32.9838 100.511 33.2444 98.9471 33.2444C97.793 33.2444 96.676 33.0397 95.5963 32.6301C94.5352 32.202 93.5951 31.6156 92.776 30.8709C91.9569 30.1077 91.2961 29.2048 90.7935 28.1624C90.3094 27.1013 90.0674 25.9378 90.0674 24.6719C90.0674 23.406 90.3094 22.2519 90.7935 21.2094C91.2961 20.1483 91.9569 19.2361 92.776 18.4729C93.5951 17.7096 94.5352 17.1232 95.5963 16.7137C96.6574 16.2855 97.765 16.0715 98.9192 16.0715C99.6638 16.0715 100.371 16.1459 101.041 16.2948C101.712 16.4438 102.317 16.6485 102.856 16.9092C103.396 17.1512 103.871 17.449 104.281 17.8027C104.69 18.1378 105.016 18.5008 105.258 18.8917L104.141 21.9633C103.713 21.4421 103.071 20.9674 102.214 20.5392C101.358 20.0924 100.362 19.8691 99.2264 19.8691C98.4259 19.8691 97.6906 19.9901 97.0204 20.2321C96.3502 20.4555 95.7639 20.7812 95.2612 21.2094C94.7772 21.6189 94.3956 22.1216 94.1164 22.7173C93.8557 23.313 93.7254 23.9645 93.7254 24.6719C93.7254 25.3793 93.8557 26.0309 94.1164 26.6266C94.3956 27.2036 94.7772 27.7063 95.2612 28.1344C95.7639 28.544 96.3502 28.8698 97.0204 29.1118C97.6906 29.3351 98.4259 29.4468 99.2264 29.4468C100.436 29.4468 101.46 29.2235 102.298 28.7767C103.154 28.3113 103.797 27.7994 104.225 27.2409L105.37 30.4242ZM108.556 16.4624H118.05V20.26H112.102V22.5218H117.324V26.3194H112.102V29.0559H118.05V32.8535H108.556V16.4624ZM121.918 16.4624H131.412V20.26H125.464V22.5218H130.686V26.3194H125.464V29.0559H131.412V32.8535H121.918V16.4624ZM146.338 24.6719C146.338 24.0576 146.217 23.4805 145.975 22.9407C145.751 22.4008 145.425 21.9354 144.997 21.5445C144.588 21.1535 144.094 20.8464 143.517 20.623C142.94 20.381 142.307 20.26 141.618 20.26H138.826V29.0559H141.618C142.289 29.0559 142.903 28.9535 143.461 28.7488C144.039 28.5254 144.541 28.2275 144.969 27.8552C145.397 27.4643 145.733 26.9989 145.975 26.459C146.217 25.9192 146.338 25.3235 146.338 24.6719ZM140.669 16.4624C142.028 16.4624 143.275 16.6485 144.411 17.0209C145.546 17.3746 146.524 17.9051 147.343 18.6125C148.181 19.3013 148.832 20.1576 149.297 21.1815C149.763 22.2053 149.996 23.3688 149.996 24.6719C149.996 25.9564 149.754 27.1106 149.27 28.1344C148.804 29.1397 148.153 29.996 147.315 30.7034C146.496 31.3922 145.518 31.9227 144.383 32.295C143.247 32.6674 142.009 32.8535 140.669 32.8535H135.28V16.4624H140.669Z" fill="currentColor" />
    <path d="M68.9363 33.1592V27.2007L77.2229 21.8152L85.5159 27.2007V33.1592L77.2229 27.8837L68.9363 33.1592Z" fill="#2563EB" />
</svg>