<svg id="wblogo11" data-name="wblogo11" xmlns="http://www.w3.org/2000/svg" xmlns:xlink="http://www.w3.org/1999/xlink" viewBox="0 0 239.99975 28">
  <defs>
    <style>
      .cls-1wb {
        fill: none;
      }

      .cls-2wb {
        clip-path: url(#clip-path);
      }

      .cls-3wb {
        fill: #fff;
      }
    </style>
    <clipPath id="clip-path" transform="translate(-0.125 -18)">
      <rect class="cls-1wb" />
    </clipPath>
  </defs>
  <g class="cls-2">
    <g>
      <path class="cls-3wb" d="M7.4504,45.4885.125,18.4837H4.93024L10.5586,39.2248l6.0321-20.7429,4.4793.0018L27.1232,39.335l5.6537-20.8462,4.8051-.0069L30.2535,45.4837l-5.5698-.0057L18.8322,25.3112l-5.857,20.172Z" transform="translate(-0.125 -18)" />
      <path class="cls-3wb" d="M40.896,18.4977h4.5741V45.471H40.896Z" transform="translate(-0.125 -18)" />
      <path class="cls-3wb" d="M55.2495,41.2399H66.3852V45.471H50.77V18.4977h4.4795Z" transform="translate(-0.125 -18)" />
      <path class="cls-3wb" d="M80.455,18.5288a12.37577,12.37577,0,0,1,9.3376,3.8889,13.29248,13.29248,0,0,1,3.754,9.5822,13.39522,13.39522,0,0,1-3.754,9.5822A12.37541,12.37541,0,0,1,80.455,45.471H69.6978V18.4977H80.455Zm0,22.7422a8.08888,8.08888,0,0,0,6.2776-2.6133,9.33413,9.33413,0,0,0,2.4606-6.6267,9.231,9.231,0,0,0-2.4606-6.6266A8.18111,8.18111,0,0,0,80.455,22.791H74.2089v18.48Z" transform="translate(-0.125 -18)" />
      <path class="cls-3wb" d="M117.679,37.7655a7.11774,7.11774,0,0,1-2.397,5.5095,8.29055,8.29055,0,0,1-5.836,2.21H97.7422V18.4977H108.594a8.18562,8.18562,0,0,1,5.678,2.1478,6.869,6.869,0,0,1,2.335,5.3227,6.44652,6.44652,0,0,1-2.776,5.5096A6.87571,6.87571,0,0,1,117.679,37.7655ZM102.253,22.6688v7.097h6.372a3.54881,3.54881,0,0,0,0-7.097Zm7.224,18.6452a3.76665,3.76665,0,0,0,0-7.5328h-7.224v7.5639h7.224Z" transform="translate(-0.125 -18)" />
      <path class="cls-3wb" d="M126.417,41.2517h12.114V45.485H121.938V18.4977h16.404V22.731H126.417v7.0036h10.947v4.2022H126.417Z" transform="translate(-0.125 -18)" />
      <path class="cls-3wb" d="M158.153,45.485l-5.805-9.8362h-5.3V45.485h-4.479V18.4977h10.946a8.34188,8.34188,0,0,1,6.215,2.5524,8.23994,8.23994,0,0,1,2.587,6.1321,8.44416,8.44416,0,0,1-5.426,7.8129l6.214,10.4899ZM147.048,22.6687v9.0269h6.436a4.51927,4.51927,0,0,0,0-9.0269Z" transform="translate(-0.125 -18)" />
      <path class="cls-3wb" d="M182.096,45.4849l-5.773-9.8413h-5.3v9.8413h-4.479V18.4836H177.49a8.33971,8.33971,0,0,1,6.215,2.5538,8.246,8.246,0,0,1,2.587,6.1352,8.44837,8.44837,0,0,1-5.426,7.817l6.214,10.4953ZM171.023,22.6568v9.0316h6.436a4.52174,4.52174,0,0,0,0-9.0316Z" transform="translate(-0.125 -18)" />
      <path class="cls-3wb" d="M190.361,18.4867h4.48V45.485h-4.48Z" transform="translate(-0.125 -18)" />
      <path class="cls-3wb" d="M204.62,41.2517h12.114v4.2332H200.14V18.4977h16.404V22.731H204.62v7.0036h10.946v4.2022H204.62Z" transform="translate(-0.125 -18)" />
      <path class="cls-3wb" d="M219.857,39.3422l3.88-2.24c1.104,3.0489,3.344,4.5422,6.782,4.5422,3.407,0,5.079-1.4311,5.079-3.5466a2.76152,2.76152,0,0,0-1.356-2.4889,19.6029,19.6029,0,0,0-4.858-1.9289,19.10114,19.10114,0,0,1-5.742-2.4578,6.19331,6.19331,0,0,1-2.65-5.4444,6.85594,6.85594,0,0,1,2.587-5.6622A9.337,9.337,0,0,1,229.794,18a10.13,10.13,0,0,1,9.527,5.9422l-3.786,2.1467a5.91332,5.91332,0,0,0-5.741-3.7645c-2.619,0-4.291,1.3067-4.291,3.36,0,1.9912,1.325,2.9245,5.521,4.2,1.041.3423,1.798.5912,2.271.7778.505.1556,1.167.4356,2.019.7778a7.42317,7.42317,0,0,1,1.988,1.0889,6.42321,6.42321,0,0,1,2.807,5.5378,7.05581,7.05581,0,0,1-2.681,5.8177A10.7757,10.7757,0,0,1,230.425,46C225.125,45.9689,221.276,43.48,219.857,39.3422Z" transform="translate(-0.125 -18)" />
    </g>
  </g>
</svg>