<?xml version="1.0" encoding="utf-8"?>
<!-- Generator: Adobe Illustrator 25.0.1, SVG Export Plug-In . SVG Version: 6.00 Build 0)  -->
<svg version="1.0" id="katman_1" xmlns="http://www.w3.org/2000/svg" xmlns:xlink="http://www.w3.org/1999/xlink" x="0px" y="0px"
	 viewBox="0 0 560 400" style="enable-background:new 0 0 560 400;" xml:space="preserve">
<style type="text/css">
	.st0{fill:#FED42B;}
	.st1{fill:#FC3F1D;}
	.st2{fill:#FFFFFF;}
	.st3{clip-path:url(#SVGID_2_);}
</style>
<path d="M266.6,221.6h8.8l12.3-45.7v45.7h9.9v-60.4H284l-12.3,44.3l-12.3-44.3h-13.9v60.4h8.5v-45.7L266.6,221.6z M339,191.7
	c0-10.7-5.3-14.7-16.3-14.7c-6.9,0-12.3,2.1-15.5,4v8.5c2.7-2.1,8.8-4.3,14.2-4.3c5.1,0,7.2,1.9,7.2,6.4v2.4H327
	c-15.8,0-23,5.3-23,14.2s5.3,13.9,13.4,13.9c6.1,0,8.8-1.9,10.7-4h0.5c0,1.1,0.5,2.7,0.8,3.5h10.2c-0.3-3.5-0.5-7.2-0.5-10.7
	C339,210.9,339,191.7,339,191.7z M328.6,211.2c-1.3,1.9-3.7,3.5-7.5,3.5c-4.3,0-6.4-2.7-6.4-6.4c0-5.1,3.5-6.9,12.6-6.9h1.6v9.9
	H328.6z M356.9,177.8h-9.6v56.4h10.4v-17.6c2.7,4,6.4,5.9,11,5.9c10.2,0,17.1-8,17.1-22.7c0-14.7-6.7-22.7-16.6-22.7
	c-4.8,0-8.8,2.1-11.8,6.4C357.5,183.4,356.9,177.8,356.9,177.8z M365.8,214.4c-5.3,0-8.3-4.5-8.3-14.4c0-10.2,2.9-14.7,8.8-14.7
	c5.6,0,8.5,4.5,8.5,14.4C374.8,209.9,371.9,214.4,365.8,214.4z M418.1,221.6h11.8l-16.6-23.5l14.7-20.3h-10.4l-14.7,20.3v-20.3
	h-10.4v43.8h10.4v-21.4L418.1,221.6z M464.6,218.7v-8.5c-3.2,2.1-8.5,4-13.6,4c-7.5,0-10.4-3.5-11-11h24.8v-5.6
	c0-15.2-6.7-20.8-17.1-20.8c-12.6,0-18.7,9.6-18.7,23c0,15.2,7.5,22.7,20.6,22.7C456.9,222.4,461.7,220.8,464.6,218.7z M447.8,185.3
	c5.1,0,6.7,4.3,6.7,9.6v0.8H440C440.3,188.8,443,185.3,447.8,185.3z M502,186.1v-8.3h-34.7v8.3h12.3v35.5H490v-35.5H502z"/>
<path class="st0" d="M183.8,232.3c22.2,0,40.1-17.9,40.1-40.1s-17.9-40.1-40.1-40.1s-40.1,17.9-40.1,40.1
	C143.5,214.4,161.7,232.3,183.8,232.3z"/>
<circle class="st1" cx="98.1" cy="192.2" r="40.1"/>
<path class="st2" d="M103.9,174.6h-4c-6.9,0-10.4,3.5-10.4,8.8c0,5.9,2.4,8.8,7.5,12.3l4,2.9l-11.5,17.9h-9.4l11-16.3
	c-6.4-4.5-9.9-8.8-9.9-16.3c0-9.4,6.4-15.8,18.7-15.8h12.3v48.1h-8v-41.7H103.9z"/>
<g>
	<defs>
		<path id="SVGID_1_" d="M183.8,232.3c22.2,0,40.1-17.9,40.1-40.1s-17.9-40.1-40.1-40.1s-40.1,17.9-40.1,40.1
			C143.5,214.4,161.7,232.3,183.8,232.3z"/>
	</defs>
	<clipPath id="SVGID_2_">
		<use xlink:href="#SVGID_1_"  style="overflow:visible;"/>
	</clipPath>
	<path class="st3" d="M164.1,174.1l-35.3,46.2l9.4,10.7l26.2-34.7l-2.7,19l14.7,5.1l17.9-28.6c-0.8,5.3-2.1,17.6,9.6,21.4
		c18.4,5.6,34.5-27.5,41.9-44.3l-10.7-5.6c-8.3,17.4-21.1,36.6-26.2,35.3s-0.5-17.6,2.4-28.1v-0.3l-16.3-5.6l-19.5,31.8l2.7-17.4
		L164.1,174.1z"/>
</g>
</svg>
