<svg width="676" height="472" viewBox="0 0 676 472" fill="none" xmlns="http://www.w3.org/2000/svg">
    <rect width="26.9258" height="26.7576" transform="matrix(0.866041 -0.499972 0.866041 0.499972 127.088 154.333)" fill="#EDE7F6" />
    <rect width="24.9267" height="24.7709" transform="matrix(0.866041 -0.499972 0.866041 0.499972 128.809 155.327)" fill="#B39DDB" />
    <rect width="26.9258" height="26.7576" transform="matrix(0.866041 -0.499972 0.866041 0.499972 502.744 181.299)" fill="#EDE7F6" />
    <rect width="24.9267" height="24.7709" transform="matrix(0.866041 -0.499972 0.866041 0.499972 504.465 182.292)" fill="#B39DDB" />
    <rect width="26.998" height="26.8293" transform="matrix(0.866041 -0.499972 0.866041 0.499972 361.873 290.126)" fill="#E3F2FD" />
    <rect width="24.2748" height="24.1231" transform="matrix(0.866041 -0.499972 0.866041 0.499972 364.249 291.115)" fill="#90CAF9" />
    <rect width="26.998" height="26.8293" transform="matrix(0.866041 -0.499972 0.866041 0.499972 291.67 86.4912)" fill="#E3F2FD" />
    <rect width="24.2748" height="24.1231" transform="matrix(0.866041 -0.499972 0.866041 0.499972 294.046 87.48)" fill="#90CAF9" />
    <g opacity="0.09">
        <line y1="-0.5" x2="390.089" y2="-0.5" transform="matrix(0.866041 -0.499972 -0.866041 -0.499972 4.49136 197.53)" stroke="black" />
        <line y1="-0.5" x2="390.089" y2="-0.5" transform="matrix(-0.866041 -0.499972 -0.866041 0.499972 342.315 387.578)" stroke="black" />
        <line y1="-0.5" x2="390.089" y2="-0.5" transform="matrix(0.866041 -0.499972 -0.866041 -0.499972 28.0058 211.106)" stroke="black" />
        <line y1="-0.5" x2="390.089" y2="-0.5" transform="matrix(-0.866041 -0.499972 -0.866041 0.499972 365.829 374.003)" stroke="black" />
        <line y1="-0.5" x2="390.089" y2="-0.5" transform="matrix(0.866041 -0.499972 -0.866041 -0.499972 51.5201 224.68)" stroke="black" />
        <line y1="-0.5" x2="390.089" y2="-0.5" transform="matrix(-0.866041 -0.499972 -0.866041 0.499972 389.344 360.428)" stroke="black" />
        <line y1="-0.5" x2="390.089" y2="-0.5" transform="matrix(0.866041 -0.499972 -0.866041 -0.499972 75.0345 238.256)" stroke="black" />
        <line y1="-0.5" x2="390.089" y2="-0.5" transform="matrix(-0.866041 -0.499972 -0.866041 0.499972 412.858 346.852)" stroke="black" />
        <line y1="-0.5" x2="390.089" y2="-0.5" transform="matrix(0.866041 -0.499972 -0.866041 -0.499972 98.5488 251.83)" stroke="black" />
        <line y1="-0.5" x2="390.089" y2="-0.5" transform="matrix(-0.866041 -0.499972 -0.866041 0.499972 436.373 333.277)" stroke="black" />
        <line y1="-0.5" x2="390.089" y2="-0.5" transform="matrix(0.866041 -0.499972 -0.866041 -0.499972 122.063 265.406)" stroke="black" />
        <line y1="-0.5" x2="390.089" y2="-0.5" transform="matrix(-0.866041 -0.499972 -0.866041 0.499972 459.887 319.703)" stroke="black" />
        <line y1="-0.5" x2="390.089" y2="-0.5" transform="matrix(0.866041 -0.499972 -0.866041 -0.499972 145.578 278.98)" stroke="black" />
        <line y1="-0.5" x2="390.089" y2="-0.5" transform="matrix(-0.866041 -0.499972 -0.866041 0.499972 483.401 306.127)" stroke="black" />
        <line y1="-0.5" x2="390.089" y2="-0.5" transform="matrix(0.866041 -0.499972 -0.866041 -0.499972 169.092 292.556)" stroke="black" />
        <line y1="-0.5" x2="390.089" y2="-0.5" transform="matrix(-0.866041 -0.499972 -0.866041 0.499972 506.916 292.552)" stroke="black" />
        <line y1="-0.5" x2="390.089" y2="-0.5" transform="matrix(0.866041 -0.499972 -0.866041 -0.499972 192.597 306.127)" stroke="black" />
        <line y1="-0.5" x2="390.089" y2="-0.5" transform="matrix(-0.866041 -0.499972 -0.866041 0.499972 530.43 278.977)" stroke="black" />
        <line y1="-0.5" x2="390.089" y2="-0.5" transform="matrix(0.866041 -0.499972 -0.866041 -0.499972 216.111 319.703)" stroke="black" />
        <line y1="-0.5" x2="390.089" y2="-0.5" transform="matrix(-0.866041 -0.499972 -0.866041 0.499972 553.944 265.402)" stroke="black" />
        <line y1="-0.5" x2="390.089" y2="-0.5" transform="matrix(0.866041 -0.499972 -0.866041 -0.499972 239.626 333.277)" stroke="black" />
        <line y1="-0.5" x2="390.089" y2="-0.5" transform="matrix(-0.866041 -0.499972 -0.866041 0.499972 577.459 251.827)" stroke="black" />
        <path d="M263.231 346.905L601.064 151.871" stroke="black" />
        <line y1="-0.5" x2="390.089" y2="-0.5" transform="matrix(-0.866041 -0.499972 -0.866041 0.499972 600.973 238.252)" stroke="black" />
        <line y1="-0.5" x2="390.089" y2="-0.5" transform="matrix(0.866041 -0.499972 -0.866041 -0.499972 286.654 360.428)" stroke="black" />
        <line y1="-0.5" x2="390.089" y2="-0.5" transform="matrix(-0.866041 -0.499972 -0.866041 0.499972 624.487 224.677)" stroke="black" />
        <line y1="-0.5" x2="390.089" y2="-0.5" transform="matrix(0.866041 -0.499972 -0.866041 -0.499972 310.169 374.003)" stroke="black" />
        <line y1="-0.5" x2="390.089" y2="-0.5" transform="matrix(-0.866041 -0.499972 -0.866041 0.499972 648.002 211.102)" stroke="black" />
        <line y1="-0.5" x2="390.089" y2="-0.5" transform="matrix(0.866041 -0.499972 -0.866041 -0.499972 333.683 387.578)" stroke="black" />
        <line y1="-0.5" x2="390.089" y2="-0.5" transform="matrix(-0.866041 -0.499972 -0.866041 0.499972 671.516 197.527)" stroke="black" />
    </g>
    <path d="M293.291 250.127V247.105L296.545 248.965L293.291 250.127Z" fill="#B39DDB" />
    <g filter="url(#filter0_d_5753_27972)">
        <path d="M128.758 221.075L123.458 218.015V225.082L123.468 225.076C123.523 225.528 123.849 225.971 124.447 226.316L175.094 255.555C176.41 256.315 178.545 256.315 179.861 255.555L226.735 228.494C227.438 228.089 227.765 227.548 227.717 227.016V220.107L222.346 223.209L176.088 196.503C174.771 195.743 172.637 195.743 171.32 196.503L128.758 221.075Z" fill="url(#paint0_linear_5753_27972)" />
    </g>
    <rect width="59.6284" height="63.9858" rx="5" transform="matrix(0.866041 -0.499972 0.866041 0.499972 122.063 218.059)" fill="#90CAF9" />
    <rect width="59.6284" height="63.9858" rx="5" transform="matrix(0.866041 -0.499972 0.866041 0.499972 122.063 218.059)" fill="url(#paint1_linear_5753_27972)" />
    <rect width="56.6816" height="60.8238" rx="5" transform="matrix(0.866041 -0.499972 0.866041 0.499972 124.709 218.113)" fill="url(#paint2_linear_5753_27972)" />
    <g filter="url(#filter1_d_5753_27972)">
        <path d="M459.022 295.444V292.545H455.308V298.696L455.316 298.701C455.335 299.348 455.773 299.993 456.629 300.487L494.94 322.604C496.691 323.615 499.53 323.615 501.282 322.604L595.342 268.302C596.177 267.82 596.614 267.196 596.653 266.564L596.654 266.564V266.551C596.657 266.499 596.657 266.447 596.654 266.395L596.66 260.207L591.363 262.344L557.032 242.524C555.28 241.513 552.441 241.513 550.69 242.524L459.022 295.444Z" fill="url(#paint3_linear_5753_27972)" />
    </g>
    <rect width="115.933" height="51.5596" rx="5" transform="matrix(0.866041 -0.499972 0.866041 0.499972 453.457 292.555)" fill="#673AB7" />
    <rect width="115.933" height="51.5596" rx="5" transform="matrix(0.866041 -0.499972 0.866041 0.499972 453.457 292.555)" fill="url(#paint4_linear_5753_27972)" fill-opacity="0.3" />
    <mask id="mask0_5753_27972" style="mask-type:alpha" maskUnits="userSpaceOnUse" x="455" y="236" width="141" height="81">
        <rect width="115.933" height="51.5596" rx="5" transform="matrix(0.866041 -0.499972 0.866041 0.499972 453.457 292.555)" fill="#673AB7" />
    </mask>
    <g mask="url(#mask0_5753_27972)"></g>
    <mask id="mask1_5753_27972" style="mask-type:alpha" maskUnits="userSpaceOnUse" x="455" y="236" width="141" height="81">
        <rect width="115.933" height="51.5596" rx="5" transform="matrix(0.866041 -0.499972 0.866041 0.499972 453.457 292.555)" fill="#673AB7" />
    </mask>
    <g mask="url(#mask1_5753_27972)">
        <rect width="64.3732" height="64.3732" rx="5" transform="matrix(0.866041 -0.499972 0.866041 0.499972 502.602 239.472)" fill="#5E35B1" />
        <rect opacity="0.7" x="0.866041" width="63.3732" height="63.3732" rx="4.5" transform="matrix(0.866041 -0.499972 0.866041 0.499972 470.483 245.702)" stroke="#5E35B1" />
    </g>
    <defs>
        <filter id="filter0_d_5753_27972" x="59.4576" y="195.933" width="232.264" height="208.191" filterUnits="userSpaceOnUse" color-interpolation-filters="sRGB">
            <feFlood flood-opacity="0" result="BackgroundImageFix" />
            <feColorMatrix in="SourceAlpha" type="matrix" values="0 0 0 0 0 0 0 0 0 0 0 0 0 0 0 0 0 0 127 0" result="hardAlpha" />
            <feOffset dy="84" />
            <feGaussianBlur stdDeviation="32" />
            <feColorMatrix type="matrix" values="0 0 0 0 0.129412 0 0 0 0 0.588235 0 0 0 0 0.952941 0 0 0 0.2 0" />
            <feBlend mode="normal" in2="BackgroundImageFix" result="effect1_dropShadow_5753_27972" />
            <feBlend mode="normal" in="SourceGraphic" in2="effect1_dropShadow_5753_27972" result="shape" />
        </filter>
        <filter id="filter1_d_5753_27972" x="391.308" y="241.766" width="269.353" height="229.597" filterUnits="userSpaceOnUse" color-interpolation-filters="sRGB">
            <feFlood flood-opacity="0" result="BackgroundImageFix" />
            <feColorMatrix in="SourceAlpha" type="matrix" values="0 0 0 0 0 0 0 0 0 0 0 0 0 0 0 0 0 0 127 0" result="hardAlpha" />
            <feOffset dy="84" />
            <feGaussianBlur stdDeviation="32" />
            <feColorMatrix type="matrix" values="0 0 0 0 0.403922 0 0 0 0 0.227451 0 0 0 0 0.717647 0 0 0 0.2 0" />
            <feBlend mode="normal" in2="BackgroundImageFix" result="effect1_dropShadow_5753_27972" />
            <feBlend mode="normal" in="SourceGraphic" in2="effect1_dropShadow_5753_27972" result="shape" />
        </filter>
        <linearGradient id="paint0_linear_5753_27972" x1="175.59" y1="215.035" x2="123.458" y2="226.029" gradientUnits="userSpaceOnUse">
            <stop stop-color="#2196F3" />
            <stop offset="1" stop-color="#B1DCFF" />
        </linearGradient>
        <linearGradient id="paint1_linear_5753_27972" x1="0.503035" y1="2.68177" x2="20.3032" y2="42.2842" gradientUnits="userSpaceOnUse">
            <stop stop-color="#FAFAFA" stop-opacity="0.74" />
            <stop offset="1" stop-color="#91CBFA" />
        </linearGradient>
        <linearGradient id="paint2_linear_5753_27972" x1="-18.5494" y1="-44.8799" x2="14.7845" y2="40.5766" gradientUnits="userSpaceOnUse">
            <stop stop-color="#FAFAFA" stop-opacity="0.74" />
            <stop offset="1" stop-color="#91CBFA" />
        </linearGradient>
        <linearGradient id="paint3_linear_5753_27972" x1="591.645" y1="260.231" x2="462.328" y2="315.943" gradientUnits="userSpaceOnUse">
            <stop stop-color="#A491C8" />
            <stop offset="1" stop-color="#D7C5F8" />
        </linearGradient>
        <linearGradient id="paint4_linear_5753_27972" x1="8.1531" y1="-0.145767" x2="57.1962" y2="72.3003" gradientUnits="userSpaceOnUse">
            <stop stop-color="white" />
            <stop offset="1" stop-color="white" stop-opacity="0" />
        </linearGradient>
    </defs>
</svg>