<svg width="953" height="661" viewBox="0 0 953 661" fill="none" xmlns="http://www.w3.org/2000/svg">
    <rect width="35.8669" height="35.6428" transform="matrix(0.866041 -0.499972 0.866041 0.499972 194.071 288.629)" fill="#EDE7F6" />
    <rect width="33.2039" height="32.9965" transform="matrix(0.866041 -0.499972 0.866041 0.499972 196.362 289.951)" fill="#B39DDB" />
    <rect width="35.8669" height="35.6428" transform="matrix(0.866041 -0.499972 0.866041 0.499972 694.468 324.547)" fill="#EDE7F6" />
    <rect width="33.2039" height="32.9965" transform="matrix(0.866041 -0.499972 0.866041 0.499972 696.76 325.869)" fill="#B39DDB" />
    <rect width="35.963" height="35.7383" transform="matrix(0.866041 -0.499972 0.866041 0.499972 413.304 198.258)" fill="#E3F2FD" />
    <rect width="32.3356" height="32.1336" transform="matrix(0.866041 -0.499972 0.866041 0.499972 416.469 199.574)" fill="#90CAF9" />
    <g opacity="0.09">
        <line y1="-0.5" x2="519.623" y2="-0.5" transform="matrix(0.866041 -0.499972 -0.866041 -0.499972 30.7647 346.168)" stroke="black" />
        <line y1="-0.5" x2="519.623" y2="-0.5" transform="matrix(-0.866041 -0.499972 -0.866041 0.499972 480.767 599.326)" stroke="black" />
        <line y1="-0.5" x2="519.623" y2="-0.5" transform="matrix(0.866041 -0.499972 -0.866041 -0.499972 62.0874 364.252)" stroke="black" />
        <line y1="-0.5" x2="519.623" y2="-0.5" transform="matrix(-0.866041 -0.499972 -0.866041 0.499972 512.09 581.24)" stroke="black" />
        <line y1="-0.5" x2="519.623" y2="-0.5" transform="matrix(0.866041 -0.499972 -0.866041 -0.499972 93.41 382.334)" stroke="black" />
        <line y1="-0.5" x2="519.623" y2="-0.5" transform="matrix(-0.866041 -0.499972 -0.866041 0.499972 543.413 563.16)" stroke="black" />
        <line y1="-0.5" x2="519.623" y2="-0.5" transform="matrix(0.866041 -0.499972 -0.866041 -0.499972 124.733 400.418)" stroke="black" />
        <line y1="-0.5" x2="519.623" y2="-0.5" transform="matrix(-0.866041 -0.499972 -0.866041 0.499972 574.735 545.074)" stroke="black" />
        <line y1="-0.5" x2="519.623" y2="-0.5" transform="matrix(0.866041 -0.499972 -0.866041 -0.499972 156.055 418.5)" stroke="black" />
        <line y1="-0.5" x2="519.623" y2="-0.5" transform="matrix(-0.866041 -0.499972 -0.866041 0.499972 606.058 526.994)" stroke="black" />
        <line y1="-0.5" x2="519.623" y2="-0.5" transform="matrix(0.866041 -0.499972 -0.866041 -0.499972 187.378 436.584)" stroke="black" />
        <line y1="-0.5" x2="519.623" y2="-0.5" transform="matrix(-0.866041 -0.499972 -0.866041 0.499972 637.381 508.91)" stroke="black" />
        <line y1="-0.5" x2="519.623" y2="-0.5" transform="matrix(0.866041 -0.499972 -0.866041 -0.499972 218.701 454.666)" stroke="black" />
        <line y1="-0.5" x2="519.623" y2="-0.5" transform="matrix(-0.866041 -0.499972 -0.866041 0.499972 668.703 490.828)" stroke="black" />
        <line y1="-0.5" x2="519.623" y2="-0.5" transform="matrix(0.866041 -0.499972 -0.866041 -0.499972 250.023 472.746)" stroke="black" />
        <line y1="-0.5" x2="519.623" y2="-0.5" transform="matrix(-0.866041 -0.499972 -0.866041 0.499972 700.026 472.742)" stroke="black" />
        <line y1="-0.5" x2="519.623" y2="-0.5" transform="matrix(0.866041 -0.499972 -0.866041 -0.499972 281.333 490.828)" stroke="black" />
        <line y1="-0.5" x2="519.623" y2="-0.5" transform="matrix(-0.866041 -0.499972 -0.866041 0.499972 731.349 454.662)" stroke="black" />
        <line y1="-0.5" x2="519.623" y2="-0.5" transform="matrix(0.866041 -0.499972 -0.866041 -0.499972 312.656 508.91)" stroke="black" />
        <line y1="-0.5" x2="519.623" y2="-0.5" transform="matrix(-0.866041 -0.499972 -0.866041 0.499972 762.671 436.578)" stroke="black" />
        <line y1="-0.5" x2="519.623" y2="-0.5" transform="matrix(0.866041 -0.499972 -0.866041 -0.499972 343.979 526.994)" stroke="black" />
        <line y1="-0.5" x2="519.623" y2="-0.5" transform="matrix(-0.866041 -0.499972 -0.866041 0.499972 793.994 418.496)" stroke="black" />
        <path d="M375.423 545.145L825.438 285.347" stroke="black" />
        <line y1="-0.5" x2="519.623" y2="-0.5" transform="matrix(-0.866041 -0.499972 -0.866041 0.499972 825.316 400.412)" stroke="black" />
        <line y1="-0.5" x2="519.623" y2="-0.5" transform="matrix(0.866041 -0.499972 -0.866041 -0.499972 406.624 563.16)" stroke="black" />
        <line y1="-0.5" x2="519.623" y2="-0.5" transform="matrix(-0.866041 -0.499972 -0.866041 0.499972 856.639 382.332)" stroke="black" />
        <line y1="-0.5" x2="519.623" y2="-0.5" transform="matrix(0.866041 -0.499972 -0.866041 -0.499972 437.947 581.24)" stroke="black" />
        <line y1="-0.5" x2="519.623" y2="-0.5" transform="matrix(-0.866041 -0.499972 -0.866041 0.499972 887.962 364.246)" stroke="black" />
        <line y1="-0.5" x2="519.623" y2="-0.5" transform="matrix(0.866041 -0.499972 -0.866041 -0.499972 469.269 599.326)" stroke="black" />
        <line y1="-0.5" x2="519.623" y2="-0.5" transform="matrix(-0.866041 -0.499972 -0.866041 0.499972 919.284 346.166)" stroke="black" />
    </g>
    <rect width="218.324" height="216.96" transform="matrix(0.866041 -0.499972 0.866041 0.499972 319.167 325.41)" fill="url(#paint0_linear_2620_15161)" />
    <path d="M508.32 216.254L696.141 325.483L588.244 387.424L506.988 342.8L508.32 216.254Z" fill="url(#paint1_linear_2620_15161)" />
    <rect width="112.665" height="111.961" transform="matrix(0.866041 -0.499972 0.866041 0.499972 409.797 377.268)" fill="#2196F3" />
    <g filter="url(#filter0_d_2620_15161)">
        <path d="M589.827 312.802L573.809 303.555V324.913L573.84 324.895C574.005 326.26 574.992 327.598 576.799 328.641L729.862 417.006C733.841 419.302 740.291 419.302 744.27 417.006L885.928 335.225C888.053 333.998 889.043 332.364 888.898 330.758V309.878L872.665 319.25L732.865 238.543C728.886 236.246 722.436 236.246 718.457 238.543L589.827 312.802Z" fill="url(#paint2_linear_2620_15161)" />
    </g>
    <rect width="180.206" height="193.375" rx="5" transform="matrix(0.866041 -0.499972 0.866041 0.499972 569.595 303.688)" fill="#90CAF9" />
    <rect width="180.206" height="193.375" rx="5" transform="matrix(0.866041 -0.499972 0.866041 0.499972 569.595 303.688)" fill="url(#paint3_linear_2620_15161)" />
    <rect width="171.301" height="183.819" rx="5" transform="matrix(0.866041 -0.499972 0.866041 0.499972 577.589 303.852)" fill="url(#paint4_linear_2620_15161)" />
    <g filter="url(#filter1_d_2620_15161)">
        <path d="M69.7028 266.302V262.44H64.7547V270.634L64.7662 270.64C64.7915 271.503 65.3744 272.361 66.5149 273.02L117.548 302.481C119.88 303.828 123.662 303.828 125.995 302.481L251.29 230.147C252.402 229.505 252.984 228.673 253.036 227.832L253.037 227.832L253.037 227.815C253.041 227.746 253.041 227.676 253.037 227.607L253.046 219.364L245.989 222.21L200.258 195.809C197.925 194.462 194.143 194.462 191.81 195.809L69.7028 266.302Z" fill="url(#paint5_linear_2620_15161)" />
    </g>
    <rect width="154.43" height="68.6806" rx="5" transform="matrix(0.866041 -0.499972 0.866041 0.499972 62.2906 262.453)" fill="#673AB7" />
    <rect width="154.43" height="68.6806" rx="5" transform="matrix(0.866041 -0.499972 0.866041 0.499972 62.2906 262.453)" fill="url(#paint6_linear_2620_15161)" fill-opacity="0.3" />
    <mask id="mask0_2620_15161" style="mask-type:alpha" maskUnits="userSpaceOnUse" x="64" y="186" width="189" height="110">
        <rect width="154.43" height="68.6806" rx="5" transform="matrix(0.866041 -0.499972 0.866041 0.499972 62.2906 262.453)" fill="#673AB7" />
    </mask>
    <g mask="url(#mask0_2620_15161)"></g>
    <mask id="mask1_2620_15161" style="mask-type:alpha" maskUnits="userSpaceOnUse" x="64" y="186" width="189" height="110">
        <rect width="154.43" height="68.6806" rx="5" transform="matrix(0.866041 -0.499972 0.866041 0.499972 62.2906 262.453)" fill="#673AB7" />
    </mask>
    <g mask="url(#mask1_2620_15161)">
        <rect width="85.7492" height="85.7492" rx="5" transform="matrix(0.866041 -0.499972 0.866041 0.499972 127.754 191.746)" fill="#5E35B1" />
        <rect opacity="0.7" x="0.866041" width="84.7492" height="84.7492" rx="4.5" transform="matrix(0.866041 -0.499972 0.866041 0.499972 84.9317 199.898)" stroke="#5E35B1" />
    </g>
    <g filter="url(#filter2_d_2620_15161)">
        <path d="M507.066 205.784L478.375 224.339L474.311 70.9476L511.131 47.1348L507.066 205.784ZM492.721 239.493C498.539 235.73 503.201 234.931 506.708 237.096C510.294 239.21 512.087 243.72 512.087 250.626C512.087 257.43 510.294 264.208 506.708 270.96C503.201 277.661 498.539 282.892 492.721 286.655C486.983 290.366 482.32 291.165 478.734 289.052C475.227 286.887 473.474 282.402 473.474 275.599C473.474 268.795 475.227 262.043 478.734 255.342C482.32 248.487 486.983 243.204 492.721 239.493Z" fill="#673AB7" />
        <path d="M479.265 289.722C463.067 276.527 480.736 236.942 502.823 235.293H520.492C517.547 244.639 510.774 265.312 507.24 273.229C505.562 276.988 517.547 289.722 495.46 291.372C495.46 291.372 486.627 293.021 479.265 289.722Z" fill="url(#paint7_linear_2620_15161)" />
        <path d="M524.735 205.784L496.044 224.339L491.98 70.9476L528.8 47.1348L524.735 205.784ZM510.39 239.493C516.208 235.73 520.87 234.931 524.377 237.096C527.963 239.21 529.756 243.72 529.756 250.626C529.756 257.43 527.963 264.208 524.377 270.96C520.87 277.661 516.208 282.892 510.39 286.655C504.652 290.366 499.989 291.165 496.403 289.052C492.896 286.887 491.143 282.402 491.143 275.599C491.143 268.795 492.896 262.043 496.403 255.342C499.989 248.487 504.652 243.204 510.39 239.493Z" fill="#B39DDB" />
        <path d="M508.712 47.2637H529.326L492.516 72.0043L474.847 70.3549L508.712 47.2637Z" fill="url(#paint8_linear_2620_15161)" />
        <path d="M477.792 223.747L473.375 70.3555L492.516 72.0048L496.933 223.747H477.792Z" fill="url(#paint9_linear_2620_15161)" />
    </g>
    <defs>
        <filter id="filter0_d_2620_15161" x="509.809" y="236.82" width="443.103" height="329.908" filterUnits="userSpaceOnUse" color-interpolation-filters="sRGB">
            <feFlood flood-opacity="0" result="BackgroundImageFix" />
            <feColorMatrix in="SourceAlpha" type="matrix" values="0 0 0 0 0 0 0 0 0 0 0 0 0 0 0 0 0 0 127 0" result="hardAlpha" />
            <feOffset dy="84" />
            <feGaussianBlur stdDeviation="32" />
            <feColorMatrix type="matrix" values="0 0 0 0 0.129412 0 0 0 0 0.588235 0 0 0 0 0.952941 0 0 0 0.2 0" />
            <feBlend mode="normal" in2="BackgroundImageFix" result="effect1_dropShadow_2620_15161" />
            <feBlend mode="normal" in="SourceGraphic" in2="effect1_dropShadow_2620_15161" result="shape" />
        </filter>
        <filter id="filter1_d_2620_15161" x="0.754669" y="194.799" width="316.291" height="256.691" filterUnits="userSpaceOnUse" color-interpolation-filters="sRGB">
            <feFlood flood-opacity="0" result="BackgroundImageFix" />
            <feColorMatrix in="SourceAlpha" type="matrix" values="0 0 0 0 0 0 0 0 0 0 0 0 0 0 0 0 0 0 127 0" result="hardAlpha" />
            <feOffset dy="84" />
            <feGaussianBlur stdDeviation="32" />
            <feColorMatrix type="matrix" values="0 0 0 0 0.403922 0 0 0 0 0.227451 0 0 0 0 0.717647 0 0 0 0.2 0" />
            <feBlend mode="normal" in2="BackgroundImageFix" result="effect1_dropShadow_2620_15161" />
            <feBlend mode="normal" in="SourceGraphic" in2="effect1_dropShadow_2620_15161" result="shape" />
        </filter>
        <filter id="filter2_d_2620_15161" x="410.972" y="47.1348" width="180.784" height="390.648" filterUnits="userSpaceOnUse" color-interpolation-filters="sRGB">
            <feFlood flood-opacity="0" result="BackgroundImageFix" />
            <feColorMatrix in="SourceAlpha" type="matrix" values="0 0 0 0 0 0 0 0 0 0 0 0 0 0 0 0 0 0 127 0" result="hardAlpha" />
            <feOffset dy="84" />
            <feGaussianBlur stdDeviation="31" />
            <feColorMatrix type="matrix" values="0 0 0 0 0.129412 0 0 0 0 0.588235 0 0 0 0 0.952941 0 0 0 0.1 0" />
            <feBlend mode="normal" in2="BackgroundImageFix" result="effect1_dropShadow_2620_15161" />
            <feBlend mode="normal" in="SourceGraphic" in2="effect1_dropShadow_2620_15161" result="shape" />
        </filter>
        <linearGradient id="paint0_linear_2620_15161" x1="107.477" y1="215.526" x2="259.064" y2="32.0663" gradientUnits="userSpaceOnUse">
            <stop stop-color="#2196F3" />
            <stop offset="1" stop-color="#E3F2FD" />
        </linearGradient>
        <linearGradient id="paint1_linear_2620_15161" x1="556.275" y1="244.893" x2="545.618" y2="370.107" gradientUnits="userSpaceOnUse">
            <stop stop-color="white" />
            <stop offset="1" stop-color="white" stop-opacity="0" />
        </linearGradient>
        <linearGradient id="paint2_linear_2620_15161" x1="731.361" y1="294.55" x2="573.809" y2="327.774" gradientUnits="userSpaceOnUse">
            <stop stop-color="#2196F3" />
            <stop offset="1" stop-color="#B1DCFF" />
        </linearGradient>
        <linearGradient id="paint3_linear_2620_15161" x1="1.52025" y1="8.1047" x2="61.3592" y2="127.789" gradientUnits="userSpaceOnUse">
            <stop stop-color="#FAFAFA" stop-opacity="0.74" />
            <stop offset="1" stop-color="#91CBFA" />
        </linearGradient>
        <linearGradient id="paint4_linear_2620_15161" x1="-56.0591" y1="-135.634" x2="44.6811" y2="122.629" gradientUnits="userSpaceOnUse">
            <stop stop-color="#FAFAFA" stop-opacity="0.74" />
            <stop offset="1" stop-color="#91CBFA" />
        </linearGradient>
        <linearGradient id="paint5_linear_2620_15161" x1="246.364" y1="219.395" x2="74.1061" y2="293.607" gradientUnits="userSpaceOnUse">
            <stop stop-color="#A491C8" />
            <stop offset="1" stop-color="#D7C5F8" />
        </linearGradient>
        <linearGradient id="paint6_linear_2620_15161" x1="10.8605" y1="-0.194172" x2="76.1891" y2="96.3087" gradientUnits="userSpaceOnUse">
            <stop stop-color="white" />
            <stop offset="1" stop-color="white" stop-opacity="0" />
        </linearGradient>
        <linearGradient id="paint7_linear_2620_15161" x1="473.375" y1="240.241" x2="506.093" y2="286.358" gradientUnits="userSpaceOnUse">
            <stop stop-color="#EDE7F6" />
            <stop offset="1" stop-color="#673AB7" />
        </linearGradient>
        <linearGradient id="paint8_linear_2620_15161" x1="529.326" y1="45.6143" x2="459.53" y2="71.3503" gradientUnits="userSpaceOnUse">
            <stop stop-color="#673AB7" />
            <stop offset="0.0001" stop-color="#673AB7" />
            <stop offset="1" stop-color="#EDE7F6" />
        </linearGradient>
        <linearGradient id="paint9_linear_2620_15161" x1="485.154" y1="220.449" x2="479.612" y2="19.2559" gradientUnits="userSpaceOnUse">
            <stop stop-color="#EDE7F6" />
            <stop offset="1" stop-color="#B39DDB" />
        </linearGradient>
    </defs>
</svg>