<svg width="24" height="24" viewBox="0 0 24 24" fill="none" xmlns="http://www.w3.org/2000/svg">
    <path d="M9 4.99976H7C6.46957 4.99976 5.96086 5.21047 5.58579 5.58554C5.21071 5.96062 5 6.46932 5 6.99976V18.9998C5 19.5302 5.21071 20.0389 5.58579 20.414C5.96086 20.789 6.46957 20.9998 7 20.9998H17C17.5304 20.9998 18.0391 20.789 18.4142 20.414C18.7893 20.0389 19 19.5302 19 18.9998V6.99976C19 6.46932 18.7893 5.96062 18.4142 5.58554C18.0391 5.21047 17.5304 4.99976 17 4.99976H15" stroke="currentColor" stroke-width="1.75" stroke-linecap="round" stroke-linejoin="round" />
    <path d="M13 3H11C9.89543 3 9 3.89543 9 5C9 6.10457 9.89543 7 11 7H13C14.1046 7 15 6.10457 15 5C15 3.89543 14.1046 3 13 3Z" stroke="currentColor" stroke-width="1.75" stroke-linecap="round" stroke-linejoin="round" />
    <path d="M14 10.9998H11.5C11.1022 10.9998 10.7206 11.1578 10.4393 11.4391C10.158 11.7204 10 12.1019 10 12.4998C10 12.8976 10.158 13.2791 10.4393 13.5604C10.7206 13.8417 11.1022 13.9998 11.5 13.9998H12.5C12.8978 13.9998 13.2794 14.1578 13.5607 14.4391C13.842 14.7204 14 15.1019 14 15.4998C14 15.8976 13.842 16.2791 13.5607 16.5604C13.2794 16.8417 12.8978 16.9998 12.5 16.9998H10" stroke="currentColor" stroke-width="1.75" stroke-linecap="round" stroke-linejoin="round" />
    <path d="M12 17.0002V18.0002M12 10.0002V11.0002" stroke="currentColor" stroke-width="1.75" stroke-linecap="round" stroke-linejoin="round" />
</svg>