<svg width="24" height="24" viewBox="0 0 24 24" fill="none" xmlns="http://www.w3.org/2000/svg">
<path d="M19.7283 5.78557L19.7284 5.78558L19.7303 5.77603C19.9441 4.72153 18.909 3.84762 17.9058 4.23386C17.9047 4.23431 17.9035 4.23476 17.9023 4.23521L3.07428 9.88778L3.07427 9.88777L3.0684 9.89005C2.45563 10.1281 2.20952 10.7018 2.20347 11.1593C2.19745 11.6144 2.42343 12.1806 3.00433 12.4454L3.02182 12.4534L3.0396 12.4607L6.40698 13.8417L7.68077 17.8591L7.68528 17.8733L7.69021 17.8874C8.00701 18.792 9.13366 19.0946 9.86123 18.4723L9.87714 18.4587L9.89247 18.4444L11.4888 16.9589L14.9637 19.2636L14.9745 19.2708L14.9854 19.2776C15.7909 19.7823 16.8496 19.3275 17.0422 18.4006L19.7283 5.78557ZM1 12C1 5.92493 5.92493 1 12 1C18.0751 1 23 5.92493 23 12C23 18.0751 18.0751 23 12 23C5.92493 23 1 18.0751 1 12Z" stroke="currentColor" stroke-width="1.75"/>
<path d="M9.26132 13.326L9.17992 13.4152L9.10238 13.1364L9.93071 12.5924L9.26132 13.326Z" stroke="currentColor" stroke-width="2"/>
</svg>
